<?xml version="1.0" encoding="UTF-8" standalone="no"?>
<!-- Created with Inkscape (http://www.inkscape.org/) -->

<svg width="87.616676mm" height="123.80259mm" viewBox="0 0 87.616676 123.80259" version="1.1" id="svg5" inkscape:label="quad_bg" inkscape:version="1.1.2 (b8e25be833, 2022-02-05)" sodipodi:docname="start_back.svg" xmlns:inkscape="http://www.inkscape.org/namespaces/inkscape" xmlns:sodipodi="http://sodipodi.sourceforge.net/DTD/sodipodi-0.dtd" xmlns="http://www.w3.org/2000/svg" xmlns:svg="http://www.w3.org/2000/svg" xmlns:rdf="http://www.w3.org/1999/02/22-rdf-syntax-ns#" xmlns:cc="http://creativecommons.org/ns#" xmlns:dc="http://purl.org/dc/elements/1.1/">
  <title id="title63815">PS5 DualSense Controller</title>
  <sodipodi:namedview id="namedview7" pagecolor="#ffffff" bordercolor="#666666" borderopacity="1.0" inkscape:pageshadow="2" inkscape:pageopacity="0.0" inkscape:pagecheckerboard="true" inkscape:document-units="mm" showgrid="false" fit-margin-top="10" fit-margin-left="10" fit-margin-right="10" fit-margin-bottom="10" inkscape:zoom="0.9595366" inkscape:cx="163.62065" inkscape:cy="221.98215" inkscape:window-width="1833" inkscape:window-height="1015" inkscape:window-x="128" inkscape:window-y="37" inkscape:window-maximized="0" inkscape:current-layer="svg5" inkscape:showpageshadow="false" />
  <defs id="defs2">
    <linearGradient id="linearGradient8705" inkscape:swatch="solid">
      <stop style="stop-color:#0000ff;stop-opacity:1;" offset="0" id="stop8703" />
    </linearGradient>
    <linearGradient id="linearGradient8655" inkscape:swatch="solid">
      <stop style="stop-color:#0000ff;stop-opacity:1;" offset="0" id="stop8653" />
    </linearGradient>
    <linearGradient id="linearGradient8629" inkscape:swatch="solid">
      <stop style="stop-color:#0000ff;stop-opacity:1;" offset="0" id="stop8627" />
    </linearGradient>
    <linearGradient id="linearGradient8541" inkscape:swatch="solid">
      <stop style="stop-color:#000000;stop-opacity:1;" offset="0" id="stop8539" />
    </linearGradient>
  </defs>
  <g id="g1347" inkscape:label="pressed" transform="translate(-230.50831,-118.82178)">
    <path id="path16609" style="display:inline;fill:#ff6666;fill-opacity:1;stroke:#993333;stroke-width:2.33871;stroke-linecap:butt;stroke-linejoin:bevel;stroke-miterlimit:4;stroke-dasharray:none;stroke-opacity:1" d="m 296.03632,186.89344 a 11.037217,11.037217 0 0 1 2.02435,0.20947 11.037217,11.037217 0 0 1 8.68351,12.9719 11.037217,11.037217 0 0 1 -0.16916,0.71103 l 0.0787,0.016 -4.05474,20.46499 h -0.0706 a 11.037217,11.037217 0 0 1 -11.00394,10.18818 11.037217,11.037217 0 0 1 -11.03817,-11.03619 11.037217,11.037217 0 0 1 0.51564,-3.33161 h -0.0503 l 3.97215,-20.05809 a 11.037217,11.037217 0 0 1 0.16721,-1.24483 11.037217,11.037217 0 0 1 10.94552,-8.89099 z" inkscape:label="start_btn" />
    <path id="circle16059" style="display:inline;fill:#ff6666;fill-opacity:1;stroke:#993333;stroke-width:2.33871;stroke-linecap:butt;stroke-linejoin:bevel;stroke-miterlimit:4;stroke-dasharray:none;stroke-opacity:1" d="m 252.59699,186.89345 a 11.037217,11.037217 0 0 0 -2.02435,0.20947 11.037217,11.037217 0 0 0 -8.68353,12.97189 11.037217,11.037217 0 0 0 0.16921,0.71103 l -0.0786,0.016 4.05473,20.46499 h 0.0705 a 11.037217,11.037217 0 0 0 11.00397,10.18818 11.037217,11.037217 0 0 0 11.03819,-11.03619 11.037217,11.037217 0 0 0 -0.51565,-3.33161 h 0.0503 l -3.97214,-20.05809 a 11.037217,11.037217 0 0 0 -0.16718,-1.24483 11.037217,11.037217 0 0 0 -10.94554,-8.89098 z" inkscape:label="share_btn" />
  </g>
  <g id="g1353" inkscape:label="normal" transform="translate(-230.50831,-175.7233)" style="display:inline">
    <path id="path1349" style="display:inline;fill:#ffffff;fill-opacity:1;stroke:#666666;stroke-width:2.33871;stroke-linecap:butt;stroke-linejoin:bevel;stroke-miterlimit:4;stroke-dasharray:none" d="m 296.03632,186.89344 a 11.037217,11.037217 0 0 1 2.02435,0.20947 11.037217,11.037217 0 0 1 8.68351,12.9719 11.037217,11.037217 0 0 1 -0.16916,0.71103 l 0.0787,0.016 -4.05474,20.46499 h -0.0706 a 11.037217,11.037217 0 0 1 -11.00394,10.18818 11.037217,11.037217 0 0 1 -11.03817,-11.03619 11.037217,11.037217 0 0 1 0.51564,-3.33161 h -0.0503 l 3.97215,-20.05809 a 11.037217,11.037217 0 0 1 0.16721,-1.24483 11.037217,11.037217 0 0 1 10.94552,-8.89099 z" inkscape:label="start_btn" />
    <path id="path1351" style="display:inline;fill:#ffffff;fill-opacity:1;stroke:#666666;stroke-width:2.33871;stroke-linecap:butt;stroke-linejoin:bevel;stroke-miterlimit:4;stroke-dasharray:none" d="m 252.59699,186.89345 a 11.037217,11.037217 0 0 0 -2.02435,0.20947 11.037217,11.037217 0 0 0 -8.68353,12.97189 11.037217,11.037217 0 0 0 0.16921,0.71103 l -0.0786,0.016 4.05473,20.46499 h 0.0705 a 11.037217,11.037217 0 0 0 11.00397,10.18818 11.037217,11.037217 0 0 0 11.03819,-11.03619 11.037217,11.037217 0 0 0 -0.51565,-3.33161 h 0.0503 l -3.97214,-20.05809 a 11.037217,11.037217 0 0 0 -0.16718,-1.24483 11.037217,11.037217 0 0 0 -10.94554,-8.89098 z" inkscape:label="share_btn" />
  </g>
  <style type="text/css" id="style2">
	.st0{fill:#61E0DF;}
	.st1{fill:#3ED8D2;}
</style>
  <style type="text/css" id="style2-5">
	.st0{fill:#3ED8D2;}
	.st1{fill:#61E0DF;}
	.st2{opacity:8.000000e-002;}
</style>
  <metadata id="metadata63811">
    <rdf:RDF>
      <cc:Work rdf:about="">
        <cc:license rdf:resource="http://creativecommons.org/licenses/by-nc-sa/4.0/" />
        <dc:title>PS5 DualSense Controller</dc:title>
        <dc:date>2024-03-14</dc:date>
        <dc:creator>
          <cc:Agent>
            <dc:title>Robin Christopher Ladiges</dc:title>
          </cc:Agent>
        </dc:creator>
        <dc:source>https://rcl.blackpinguin.de/</dc:source>
      </cc:Work>
      <cc:License rdf:about="http://creativecommons.org/licenses/by-nc-sa/4.0/">
        <cc:permits rdf:resource="http://creativecommons.org/ns#Reproduction" />
        <cc:permits rdf:resource="http://creativecommons.org/ns#Distribution" />
        <cc:requires rdf:resource="http://creativecommons.org/ns#Notice" />
        <cc:requires rdf:resource="http://creativecommons.org/ns#Attribution" />
        <cc:prohibits rdf:resource="http://creativecommons.org/ns#CommercialUse" />
        <cc:permits rdf:resource="http://creativecommons.org/ns#DerivativeWorks" />
        <cc:requires rdf:resource="http://creativecommons.org/ns#ShareAlike" />
      </cc:License>
    </rdf:RDF>
  </metadata>
</svg>
