<?xml version="1.0" encoding="UTF-8" standalone="no"?>
<!-- Generator: Adobe Illustrator 19.0.1, SVG Export Plug-In . SVG Version: 6.00 Build 0)  -->

<svg version="1.1" id="Layer_1" x="0px" y="0px" width="243.80646mm" height="243.80779mm" viewBox="-816 494 921.4733 921.47832" xml:space="preserve" sodipodi:docname="sticks.svg" inkscape:version="1.1.2 (b8e25be833, 2022-02-05)" xmlns:inkscape="http://www.inkscape.org/namespaces/inkscape" xmlns:sodipodi="http://sodipodi.sourceforge.net/DTD/sodipodi-0.dtd" xmlns="http://www.w3.org/2000/svg" xmlns:svg="http://www.w3.org/2000/svg"><defs id="defs59" /><sodipodi:namedview id="namedview57" pagecolor="#ffffff" bordercolor="#666666" borderopacity="1.0" inkscape:pageshadow="2" inkscape:pageopacity="0.0" inkscape:pagecheckerboard="0" showgrid="false" inkscape:zoom="0.51311189" inkscape:cx="468.70869" inkscape:cy="416.08858" inkscape:window-width="1620" inkscape:window-height="970" inkscape:window-x="164" inkscape:window-y="39" inkscape:window-maximized="0" inkscape:current-layer="Layer_1" units="mm" fit-margin-top="10" lock-margins="true" fit-margin-left="10" fit-margin-right="10" fit-margin-bottom="10" width="243.80646mm" height="279.39847mm" inkscape:document-units="mm" />
<style type="text/css" id="style2">
	.st0{fill:#C1272D;}
	.st1{fill:#CF2A32;}
	.st2{fill:#E02D39;}
	.st3{fill:#3ED8D2;}
	.st4{fill:#30D5CD;}
	.st5{fill:#1FD2C6;}
</style>
<g id="g54" transform="matrix(5.013865,0,0,5.013865,3293.8044,-1698.4993)" inkscape:label="sticks" style="display:inline">
	
	
	<g id="g1705" inkscape:label="pressed" transform="translate(-81.505587,37.395201)"><g id="g52" inkscape:label="R3" transform="matrix(0.85728838,0,0,0.85728838,-107.57259,72.054345)">
		<g id="g42">
			<path class="st3" d="m -577,586.5 c -25.1,0 -45.5,-20.4 -45.5,-45.5 0,-25.1 20.4,-45.5 45.5,-45.5 25.1,0 45.5,20.4 45.5,45.5 0,25.1 -20.4,45.5 -45.5,45.5 z" id="path36" style="fill:#d83e3e;fill-opacity:1" />
			<g id="g40">
				<path class="st4" d="m -577,497 c 24.3,0 44,19.7 44,44 0,24.3 -19.7,44 -44,44 -24.3,0 -44,-19.7 -44,-44 0,-24.3 19.7,-44 44,-44 m 0,-3 c -26,0 -47,21 -47,47 0,26 21,47 47,47 26,0 47,-21 47,-47 0,-26 -21,-47 -47,-47 z" id="path38" style="fill:#d53030;fill-opacity:1" />
			</g>
		</g>
		<circle class="st5" cx="-577" cy="541" r="27.299999" id="circle44" style="fill:#d21f1f;fill-opacity:1" />
		<g id="g50">
			<path d="m -597.3,527.5 h 12.6 c 5.8,0 8.7,2.7 8.7,7.1 0,5.1 -3.5,6.4 -4.4,6.7 v 0.1 c 1.6,0.2 3.9,1.4 3.9,5.6 0,3.1 0.4,5.9 1.4,7 h -5 c -0.7,-1.1 -0.7,-2.6 -0.7,-3.9 0,-4.8 -1,-7 -5.3,-7 h -6.8 v 10.9 h -4.6 v -26.5 z m 4.6,12.1 h 7.6 c 3,0 4.5,-1.4 4.5,-4.2 0,-3.4 -2.2,-4 -4.6,-4 h -7.5 z" id="path46" />
			<path d="m -565.7,538.8 c 2.8,0.1 5.7,-0.9 5.7,-4.1 0,-2.2 -1.7,-3.7 -4,-3.7 -2.9,0 -4.4,2.6 -4.3,5.3 h -4.2 c 0.2,-5 3.4,-8.8 8.6,-8.8 4,0 8.2,2.3 8.2,6.9 0,2.6 -1.1,4.7 -3.7,5.5 v 0.1 c 3,0.6 4.7,3.1 4.7,6.5 0,4.9 -4.3,7.9 -9.2,7.9 -6,0 -9,-3.6 -9.1,-9 h 4.2 c -0.1,3.1 1.6,5.5 4.9,5.5 2.8,0 5,-1.7 5,-4.6 0,-4 -3.4,-4.5 -6.8,-4.4 z" id="path48" />
		</g>
	</g><g id="g34" inkscape:label="L3" transform="matrix(0.85728838,0,0,0.85728838,-113.3965,72.054345)">
		<g id="g24">
			<path class="st3" d="m -673,586.5 c -25.1,0 -45.5,-20.4 -45.5,-45.5 0,-25.1 20.4,-45.5 45.5,-45.5 25.1,0 45.5,20.4 45.5,45.5 0,25.1 -20.4,45.5 -45.5,45.5 z" id="path18" style="fill:#d83e3e;fill-opacity:1" />
			<g id="g22">
				<path class="st4" d="m -673,497 c 24.3,0 44,19.7 44,44 0,24.3 -19.7,44 -44,44 -24.3,0 -44,-19.7 -44,-44 0,-24.3 19.7,-44 44,-44 m 0,-3 c -26,0 -47,21 -47,47 0,26 21,47 47,47 26,0 47,-21 47,-47 0,-26 -21,-47 -47,-47 z" id="path20" style="fill:#d53030;fill-opacity:1" />
			</g>
		</g>
		<circle class="st5" cx="-673" cy="541" r="27.299999" id="circle26" style="fill:#d21f1f;fill-opacity:1" />
		<g id="g32">
			<path d="m -690.9,527.5 h 4.6 v 22.4 h 13.4 v 4 h -18 z" id="path28" />
			<path d="m -664.1,538.8 c 2.8,0.1 5.7,-0.9 5.7,-4.1 0,-2.2 -1.7,-3.7 -4,-3.7 -2.9,0 -4.4,2.6 -4.3,5.3 h -4.2 c 0.2,-5 3.4,-8.8 8.6,-8.8 4,0 8.2,2.3 8.2,6.9 0,2.6 -1.1,4.7 -3.7,5.5 v 0.1 c 3,0.6 4.7,3.1 4.7,6.5 0,4.9 -4.3,7.9 -9.2,7.9 -6,0 -9,-3.6 -9.1,-9 h 4.2 c -0.1,3.1 1.6,5.5 4.9,5.5 2.8,0 5,-1.7 5,-4.6 0,-4 -3.4,-4.5 -6.8,-4.4 z" id="path30" />
		</g>
	</g></g>
<g id="g1685" inkscape:label="normal" transform="translate(20.411723,-60.799743)"><g id="g16" inkscape:label="R3" transform="matrix(0.85728837,0,0,0.85728837,-44.890533,82.124694)">
		<g id="g14">
			<g id="g10">
				<path class="st0" d="m -769,586.5 c -25.1,0 -45.5,-20.4 -45.5,-45.5 0,-25.1 20.4,-45.5 45.5,-45.5 25.1,0 45.5,20.4 45.5,45.5 0,25.1 -20.4,45.5 -45.5,45.5 z" id="path4" style="fill:#4d4d4d;fill-opacity:1" />
				<g id="g8">
					<path class="st1" d="m -769,497 c 24.3,0 44,19.7 44,44 0,24.3 -19.7,44 -44,44 -24.3,0 -44,-19.7 -44,-44 0,-24.3 19.7,-44 44,-44 m 0,-3 c -26,0 -47,21 -47,47 0,26 21,47 47,47 26,0 47,-21 47,-47 0,-26 -21,-47 -47,-47 z" id="path6" style="fill:#1a1a1a;fill-opacity:1" />
				</g>
			</g>
			<circle class="st2" cx="-769" cy="541" r="27.299999" id="circle12" style="fill:#666666;fill-opacity:1" />
		</g>
	</g><g id="g1669" inkscape:label="L3" transform="matrix(0.85728837,0,0,0.85728837,-133.01414,82.124694)">
		<g id="g1667">
			<g id="g1663">
				<path class="st0" d="m -769,586.5 c -25.1,0 -45.5,-20.4 -45.5,-45.5 0,-25.1 20.4,-45.5 45.5,-45.5 25.1,0 45.5,20.4 45.5,45.5 0,25.1 -20.4,45.5 -45.5,45.5 z" id="path1657" style="fill:#4d4d4d;fill-opacity:1" />
				<g id="g1661">
					<path class="st1" d="m -769,497 c 24.3,0 44,19.7 44,44 0,24.3 -19.7,44 -44,44 -24.3,0 -44,-19.7 -44,-44 0,-24.3 19.7,-44 44,-44 m 0,-3 c -26,0 -47,21 -47,47 0,26 21,47 47,47 26,0 47,-21 47,-47 0,-26 -21,-47 -47,-47 z" id="path1659" style="fill:#1a1a1a;fill-opacity:1" />
				</g>
			</g>
			<circle class="st2" cx="-769" cy="541" r="27.299999" id="circle1665" style="fill:#666666;fill-opacity:1" />
		</g>
	</g></g></g>
</svg>
