<?xml version="1.0" encoding="UTF-8" standalone="no"?>
<!-- Created with Inkscape (http://www.inkscape.org/) -->

<svg width="422.07492mm" height="468.27496mm" viewBox="0 0 422.07492 468.27496" version="1.1" id="svg5" inkscape:label="quad_bg" inkscape:version="1.1.2 (b8e25be833, 2022-02-05)" sodipodi:docname="touchpad.svg" xmlns:inkscape="http://www.inkscape.org/namespaces/inkscape" xmlns:sodipodi="http://sodipodi.sourceforge.net/DTD/sodipodi-0.dtd" xmlns="http://www.w3.org/2000/svg" xmlns:svg="http://www.w3.org/2000/svg" xmlns:rdf="http://www.w3.org/1999/02/22-rdf-syntax-ns#" xmlns:cc="http://creativecommons.org/ns#" xmlns:dc="http://purl.org/dc/elements/1.1/">
  <title id="title63815">PS5 DualSense Controller</title>
  <sodipodi:namedview id="namedview7" pagecolor="#ffffff" bordercolor="#666666" borderopacity="1.0" inkscape:pageshadow="2" inkscape:pageopacity="0.0" inkscape:pagecheckerboard="true" inkscape:document-units="mm" showgrid="false" fit-margin-top="10" fit-margin-left="10" fit-margin-right="10" fit-margin-bottom="10" inkscape:zoom="0.31109064" inkscape:cx="556.10803" inkscape:cy="813.26781" inkscape:window-width="1833" inkscape:window-height="1015" inkscape:window-x="68" inkscape:window-y="20" inkscape:window-maximized="0" inkscape:current-layer="svg5" inkscape:showpageshadow="false" />
  <defs id="defs2">
    <linearGradient id="linearGradient8705" inkscape:swatch="solid">
      <stop style="stop-color:#0000ff;stop-opacity:1;" offset="0" id="stop8703" />
    </linearGradient>
    <linearGradient id="linearGradient8655" inkscape:swatch="solid">
      <stop style="stop-color:#0000ff;stop-opacity:1;" offset="0" id="stop8653" />
    </linearGradient>
    <linearGradient id="linearGradient8629" inkscape:swatch="solid">
      <stop style="stop-color:#0000ff;stop-opacity:1;" offset="0" id="stop8627" />
    </linearGradient>
    <linearGradient id="linearGradient8541" inkscape:swatch="solid">
      <stop style="stop-color:#000000;stop-opacity:1;" offset="0" id="stop8539" />
    </linearGradient>
  </defs>
  <style type="text/css" id="style2">
	.st0{fill:#61E0DF;}
	.st1{fill:#3ED8D2;}
</style>
  <style type="text/css" id="style2-5">
	.st0{fill:#3ED8D2;}
	.st1{fill:#61E0DF;}
	.st2{opacity:8.000000e-002;}
</style>
  <metadata id="metadata63811">
    <rdf:RDF>
      <cc:Work rdf:about="">
        <cc:license rdf:resource="http://creativecommons.org/licenses/by-nc-sa/4.0/" />
        <dc:title>PS5 DualSense Controller</dc:title>
        <dc:date>2024-03-14</dc:date>
        <dc:creator>
          <cc:Agent>
            <dc:title>Robin Christopher Ladiges</dc:title>
          </cc:Agent>
        </dc:creator>
        <dc:source>https://rcl.blackpinguin.de/</dc:source>
      </cc:Work>
      <cc:License rdf:about="http://creativecommons.org/licenses/by-nc-sa/4.0/">
        <cc:permits rdf:resource="http://creativecommons.org/ns#Reproduction" />
        <cc:permits rdf:resource="http://creativecommons.org/ns#Distribution" />
        <cc:requires rdf:resource="http://creativecommons.org/ns#Notice" />
        <cc:requires rdf:resource="http://creativecommons.org/ns#Attribution" />
        <cc:prohibits rdf:resource="http://creativecommons.org/ns#CommercialUse" />
        <cc:permits rdf:resource="http://creativecommons.org/ns#DerivativeWorks" />
        <cc:requires rdf:resource="http://creativecommons.org/ns#ShareAlike" />
      </cc:License>
    </rdf:RDF>
  </metadata>
  <path id="path833" style="display:inline;fill:#ff8f8f;fill-opacity:1;stroke:#000000;stroke-width:1.03131px;stroke-linecap:butt;stroke-linejoin:miter;stroke-opacity:1" inkscape:label="touchpad_pressed" d="m 211.33761,239.65707 c -61.35775,0.0468 -122.629057,4.19508 -183.669237,10.17811 -18.6944285,9.18138 -20.0018585,29.01836 -13.861568,46.8841 9.157828,42.68534 17.760638,85.53968 28.006828,127.97108 6.95682,20.07373 27.3442,34.75693 48.84841,32.91224 82.426657,-0.55132 164.872917,0.51744 247.302917,-0.0156 25.19107,-1.58896 43.62986,-24.38716 46.61815,-48.34588 8.55449,-46.30611 21.34214,-91.94258 26.89026,-138.73492 1.36943,-11.80321 -13.97501,-20.00436 -21.58669,-21.81669 -55.7786,-5.24244 -111.84089,-7.2066 -167.82822,-8.93246 -3.57336,-0.0545 -7.14714,-0.0897 -10.72085,-0.10192 z" />
  <path id="path6056" style="display:inline;fill:#f9f9f9;stroke:#000000;stroke-width:1.03131px;stroke-linecap:butt;stroke-linejoin:miter;stroke-opacity:1" inkscape:label="touchpad_normal" d="m 211.33761,10.519361 c -61.35775,0.0468 -122.629055,4.19508 -183.669235,10.17811 -18.6944291,9.18138 -20.0018591,29.01836 -13.861569,46.8841 9.157829,42.685339 17.760639,85.539679 28.006829,127.971079 6.95682,20.07373 27.3442,34.75693 48.84841,32.91224 82.426655,-0.55132 164.872915,0.51744 247.302915,-0.0156 25.19107,-1.58896 43.62986,-24.38716 46.61815,-48.34588 8.55449,-46.30611 21.34214,-91.942579 26.89026,-138.734919 1.36943,-11.80321 -13.97501,-20.00436 -21.58669,-21.81669 -55.7786,-5.24244 -111.84089,-7.2066 -167.82822,-8.93246 -3.57336,-0.0545 -7.14714,-0.0897 -10.72085,-0.10192 z" />
</svg>
