<?xml version="1.0" encoding="UTF-8" standalone="no"?>
<!-- Generator: Adobe Illustrator 19.0.1, SVG Export Plug-In . SVG Version: 6.00 Build 0)  -->

<svg version="1.1" id="Layer_1" x="0px" y="0px" width="180" height="108" viewBox="-870 489 180 108" xml:space="preserve" sodipodi:docname="dpad.svg" inkscape:version="1.1.2 (b8e25be833, 2022-02-05)" xmlns:inkscape="http://www.inkscape.org/namespaces/inkscape" xmlns:sodipodi="http://sodipodi.sourceforge.net/DTD/sodipodi-0.dtd" xmlns="http://www.w3.org/2000/svg" xmlns:svg="http://www.w3.org/2000/svg"><defs id="defs59" /><sodipodi:namedview id="namedview57" pagecolor="#ffffff" bordercolor="#666666" borderopacity="1.0" inkscape:pageshadow="2" inkscape:pageopacity="0.0" inkscape:pagecheckerboard="0" showgrid="false" inkscape:zoom="6.5770308" inkscape:cx="27.748084" inkscape:cy="52.07517" inkscape:window-width="1362" inkscape:window-height="970" inkscape:window-x="387" inkscape:window-y="58" inkscape:window-maximized="0" inkscape:current-layer="Layer_1" />
<style type="text/css" id="style2">
	.st0{fill:#C1272D;}
	.st1{opacity:0.25;}
	.st2{fill:#3ED8D2;}
	.st3{opacity:0.25;fill:#FFFFFF;}
</style>
<g id="g10" transform="translate(0.77528824,0.51833856)" style="stroke:#1d9125;stroke-opacity:1">
	<g id="g8" style="stroke:#1d9125;stroke-opacity:1">
		<path class="st0" d="m -745.5,509.6 c 1.4,-2 1.2,-2.9 1.2,-2.9 0,0 0.2,-0.9 -1.2,-2.9 -1.4,-2 -15,-13.6 -15.7,-14 -0.7,-0.4 -28.5,-2.2 -31.4,1.3 -2.9,3.5 -2.6,15.6 -2.6,15.6 0,0 -0.3,12.1 2.6,15.6 2.9,3.5 30.7,1.7 31.4,1.3 0.7,-0.4 14.3,-12 15.7,-14 z" id="path4" style="fill:#27c131;fill-opacity:1;stroke:#1d9125;stroke-opacity:1" />
		<path class="st1" d="m -745.5,509.6 c 1.4,-2 1.2,-2.9 1.2,-2.9 0,0 0.2,-0.9 -1.2,-2.9 -0.9,-1.3 -6.9,-6.6 -11.2,-10.3 -2.1,3.9 -3.4,8.4 -3.4,13.2 0,4.8 1.2,9.3 3.4,13.2 4.3,-3.7 10.3,-9 11.2,-10.3 z" id="path6" style="stroke:#1d9125;stroke-opacity:1" />
	</g>
</g>
<g id="g16" transform="translate(0.51833856,0.40966619)" style="stroke:#1d9125;stroke-opacity:1">
	<path class="st0" d="m -849.4,490.3 c -2,-1.4 -2.9,-1.2 -2.9,-1.2 0,0 -0.9,-0.2 -2.9,1.2 -2,1.4 -13.6,15 -14,15.7 -0.4,0.7 -2.2,28.5 1.3,31.4 3.5,2.9 15.6,2.6 15.6,2.6 0,0 12.1,0.3 15.6,-2.6 3.5,-2.9 1.7,-30.7 1.3,-31.4 -0.4,-0.8 -12,-14.4 -14,-15.7 z" id="path12" style="fill:#27c131;fill-opacity:1;stroke:#1d9125;stroke-opacity:1" />
	<path class="st1" d="m -849.4,490.3 c -2,-1.4 -2.9,-1.2 -2.9,-1.2 0,0 -0.9,-0.2 -2.9,1.2 -1.3,0.9 -6.6,6.9 -10.3,11.2 3.9,2.1 8.4,3.4 13.2,3.4 4.8,0 9.3,-1.2 13.2,-3.4 -3.7,-4.4 -9,-10.4 -10.3,-11.2 z" id="path14" style="stroke:#1d9125;stroke-opacity:1" />
</g>
<g id="g22" transform="translate(0.65156076,0.40883621)" style="stroke:#1d9125;stroke-opacity:1">
	<path class="st0" d="m -817.8,538.8 c 2,1.4 2.9,1.2 2.9,1.2 0,0 0.9,0.2 2.9,-1.2 2,-1.4 13.6,-15 14,-15.7 0.4,-0.7 2.2,-28.5 -1.3,-31.4 -3.5,-2.9 -15.6,-2.6 -15.6,-2.6 0,0 -12.1,-0.3 -15.6,2.6 -3.5,2.9 -1.7,30.7 -1.3,31.4 0.4,0.7 12,14.3 14,15.7 z" id="path18" style="fill:#27c131;fill-opacity:1;stroke:#1d9125;stroke-opacity:1" />
	<path class="st1" d="m -817.8,538.8 c 2,1.4 2.9,1.2 2.9,1.2 0,0 0.9,0.2 2.9,-1.2 1.3,-0.9 6.6,-6.9 10.3,-11.2 -3.9,-2.1 -8.4,-3.4 -13.2,-3.4 -4.8,0 -9.3,1.2 -13.2,3.4 3.7,4.3 9,10.3 10.3,11.2 z" id="path20" style="stroke:#1d9125;stroke-opacity:1" />
</g>
<g id="g28" transform="translate(0.99116379,0.31833856)" style="stroke:#1d9125;stroke-opacity:1">
	<path class="st0" d="m -694.1,491.3 c -2.9,-3.5 -30.7,-1.7 -31.4,-1.3 -0.7,0.4 -14.3,12 -15.7,14 -1.4,2 -1.2,2.9 -1.2,2.9 0,0 -0.2,0.9 1.2,2.9 1.4,2 15,13.6 15.7,14 0.7,0.4 28.5,2.2 31.4,-1.3 2.9,-3.5 2.6,-15.6 2.6,-15.6 0,0 0.2,-12.1 -2.6,-15.6 z" id="path24" style="fill:#27c131;fill-opacity:1;stroke:#1d9125;stroke-opacity:1" />
	<path class="st1" d="m -730,493.7 c -4.3,3.7 -10.3,9 -11.2,10.3 -1.4,2 -1.2,2.9 -1.2,2.9 0,0 -0.2,0.9 1.2,2.9 0.9,1.3 6.9,6.6 11.2,10.3 2.1,-3.9 3.4,-8.4 3.4,-13.2 0,-4.8 -1.3,-9.3 -3.4,-13.2 z" id="path26" style="stroke:#1d9125;stroke-opacity:1" />
</g>
<g id="g34" transform="translate(0.77528824,3.5998361)" style="stroke:#e26e6e;stroke-opacity:1">
	<path class="st2" d="m -745.5,562.6 c 1.4,-2 1.2,-2.9 1.2,-2.9 0,0 0.2,-0.9 -1.2,-2.9 -1.4,-2 -15,-13.6 -15.7,-14 -0.7,-0.4 -28.5,-2.2 -31.4,1.3 -2.9,3.5 -2.6,15.6 -2.6,15.6 0,0 -0.3,12.1 2.6,15.6 2.9,3.5 30.7,1.7 31.4,1.3 0.7,-0.4 14.3,-12 15.7,-14 z" id="path30" style="fill:#d83e3e;fill-opacity:1;stroke:#e26e6e;stroke-opacity:1" />
	<path class="st3" d="m -745.5,562.6 c 1.4,-2 1.2,-2.9 1.2,-2.9 0,0 0.2,-0.9 -1.2,-2.9 -0.9,-1.3 -6.9,-6.6 -11.2,-10.3 -2.1,3.9 -3.4,8.4 -3.4,13.2 0,4.8 1.2,9.3 3.4,13.2 4.3,-3.7 10.3,-9 11.2,-10.3 z" id="path32" style="stroke:#e26e6e;stroke-opacity:1" />
</g>
<g id="g40" transform="translate(0.51833856,3.4911638)" style="stroke:#e26e6e;stroke-opacity:1">
	<path class="st2" d="m -849.4,543.3 c -2,-1.4 -2.9,-1.2 -2.9,-1.2 0,0 -0.9,-0.2 -2.9,1.2 -2,1.4 -13.6,15 -14,15.7 -0.4,0.7 -2.2,28.5 1.3,31.4 3.5,2.9 15.6,2.6 15.6,2.6 0,0 12.1,0.3 15.6,-2.6 3.5,-2.9 1.7,-30.7 1.3,-31.4 -0.4,-0.8 -12,-14.4 -14,-15.7 z" id="path36" style="fill:#d83e3e;fill-opacity:1;stroke:#e26e6e;stroke-opacity:1" />
	<path class="st3" d="m -849.4,543.3 c -2,-1.4 -2.9,-1.2 -2.9,-1.2 0,0 -0.9,-0.2 -2.9,1.2 -1.3,0.9 -6.6,6.9 -10.3,11.2 3.9,2.1 8.4,3.4 13.2,3.4 4.8,0 9.3,-1.2 13.2,-3.4 -3.7,-4.4 -9,-10.4 -10.3,-11.2 z" id="path38" style="stroke:#e26e6e;stroke-opacity:1" />
</g>
<g id="g46" transform="translate(0.65156076,3.4903338)" style="stroke:#e26e6e;stroke-opacity:1">
	<path class="st2" d="m -817.8,591.8 c 2,1.4 2.9,1.2 2.9,1.2 0,0 0.9,0.2 2.9,-1.2 2,-1.4 13.6,-15 14,-15.7 0.4,-0.7 2.2,-28.5 -1.3,-31.4 -3.5,-2.9 -15.6,-2.6 -15.6,-2.6 0,0 -12.1,-0.3 -15.6,2.6 -3.5,2.9 -1.7,30.7 -1.3,31.4 0.4,0.7 12,14.3 14,15.7 z" id="path42" style="fill:#d83e3e;fill-opacity:1;stroke:#e26e6e;stroke-opacity:1" />
	<path class="st3" d="m -817.8,591.8 c 2,1.4 2.9,1.2 2.9,1.2 0,0 0.9,0.2 2.9,-1.2 1.3,-0.9 6.6,-6.9 10.3,-11.2 -3.9,-2.1 -8.4,-3.4 -13.2,-3.4 -4.8,0 -9.3,1.2 -13.2,3.4 3.7,4.3 9,10.3 10.3,11.2 z" id="path44" style="stroke:#e26e6e;stroke-opacity:1" />
</g>
<g id="g54" transform="translate(0.99116379,3.4998361)" style="stroke:#e26e6e;stroke-opacity:1">
	<g id="g52" style="stroke:#e26e6e;stroke-opacity:1">
		<path class="st2" d="m -694.1,544.2 c -2.9,-3.5 -30.7,-1.7 -31.4,-1.3 -0.7,0.4 -14.3,12 -15.7,14 -1.4,2 -1.2,2.9 -1.2,2.9 0,0 -0.2,0.9 1.2,2.9 1.4,2 15,13.6 15.7,14 0.7,0.4 28.5,2.2 31.4,-1.3 2.9,-3.5 2.6,-15.6 2.6,-15.6 0,0 0.2,-12.1 -2.6,-15.6 z" id="path48" style="fill:#d83e3e;fill-opacity:1;stroke:#e26e6e;stroke-opacity:1" />
		<path class="st3" d="m -730,546.6 c -4.3,3.7 -10.3,9 -11.2,10.3 -1.4,2 -1.2,2.9 -1.2,2.9 0,0 -0.2,0.9 1.2,2.9 0.9,1.3 6.9,6.6 11.2,10.3 2.1,-3.9 3.4,-8.4 3.4,-13.2 0,-4.8 -1.3,-9.3 -3.4,-13.2 z" id="path50" style="stroke:#e26e6e;stroke-opacity:1" />
	</g>
</g>
</svg>
