<?xml version="1.0" encoding="UTF-8" standalone="no"?>
<!-- Generator: Adobe Illustrator 19.0.1, SVG Export Plug-In . SVG Version: 6.00 Build 0)  -->

<svg version="1.1" id="Layer_1" x="0px" y="0px" width="28.4px" height="46.7px" viewBox="-945 517.3 28.4 46.7" style="enable-background:new -945 517.3 28.4 46.7;" xml:space="preserve" sodipodi:docname="start.svg" inkscape:version="1.1.2 (b8e25be833, 2022-02-05)" xmlns:inkscape="http://www.inkscape.org/namespaces/inkscape" xmlns:sodipodi="http://sodipodi.sourceforge.net/DTD/sodipodi-0.dtd" xmlns="http://www.w3.org/2000/svg" xmlns:svg="http://www.w3.org/2000/svg"><defs id="defs13" /><sodipodi:namedview id="namedview11" pagecolor="#ffffff" bordercolor="#666666" borderopacity="1.0" inkscape:pageshadow="2" inkscape:pageopacity="0.0" inkscape:pagecheckerboard="0" showgrid="false" inkscape:zoom="15.396145" inkscape:cx="2.7604313" inkscape:cy="23.350001" inkscape:window-width="1616" inkscape:window-height="970" inkscape:window-x="3923" inkscape:window-y="63" inkscape:window-maximized="0" inkscape:current-layer="Layer_1" />
<style type="text/css" id="style2">
	.st0{fill:#FFFFFF;}
	.st1{fill:#3ED8D2;}
</style>
<g id="g8">
	<path class="st0" d="m -930.8,517.3 c -7.8,0 -14.2,6.4 -14.2,14.2 v 18.3 c 0,7.8 6.4,14.2 14.2,14.2 7.8,0 14.2,-6.4 14.2,-14.2 v -18.3 c 0,-7.8 -6.4,-14.2 -14.2,-14.2 z" id="path4" style="fill:#000000;fill-opacity:1" sodipodi:nodetypes="sssssss" />
	<path class="st1" d="m -930.8,519 c -6.9,0 -12.5,5.6 -12.5,12.5 v 18.3 c 0,6.9 5.6,12.5 12.5,12.5 6.9,0 12.5,-5.6 12.5,-12.5 v -18.3 c 0,-6.9 -5.6,-12.5 -12.5,-12.5 z" id="path6" style="display:inline;fill:#d83e3e;fill-opacity:1" />
</g>
</svg>
