<?xml version="1.0" encoding="UTF-8" standalone="no"?>
<!-- Created with Inkscape (http://www.inkscape.org/) -->

<svg width="1000mm" height="792.06476mm" viewBox="0 0 1000 792.06476" version="1.1" id="svg5" inkscape:label="quad_bg" inkscape:version="1.1.2 (b8e25be833, 2022-02-05)" sodipodi:docname="disconnected.svg" xmlns:inkscape="http://www.inkscape.org/namespaces/inkscape" xmlns:sodipodi="http://sodipodi.sourceforge.net/DTD/sodipodi-0.dtd" xmlns="http://www.w3.org/2000/svg" xmlns:svg="http://www.w3.org/2000/svg" xmlns:rdf="http://www.w3.org/1999/02/22-rdf-syntax-ns#" xmlns:cc="http://creativecommons.org/ns#" xmlns:dc="http://purl.org/dc/elements/1.1/">
  <title id="title63815">PS5 DualSense Controller</title>
  <sodipodi:namedview id="namedview7" pagecolor="#ffffff" bordercolor="#666666" borderopacity="1.0" inkscape:pageshadow="2" inkscape:pageopacity="0.0" inkscape:pagecheckerboard="true" inkscape:document-units="mm" showgrid="false" fit-margin-top="0" fit-margin-left="0" fit-margin-right="0" fit-margin-bottom="0" inkscape:zoom="0.18845529" inkscape:cx="1077.1786" inkscape:cy="1193.9171" inkscape:window-width="1833" inkscape:window-height="1015" inkscape:window-x="1978" inkscape:window-y="10" inkscape:window-maximized="0" inkscape:current-layer="svg5" inkscape:showpageshadow="false" />
  <defs id="defs2">
    <rect x="620.83691" y="1087.7912" width="2493.9602" height="546.54873" id="rect8876" />
    <linearGradient id="linearGradient8705" inkscape:swatch="solid">
      <stop style="stop-color:#0000ff;stop-opacity:1;" offset="0" id="stop8703" />
    </linearGradient>
    <linearGradient id="linearGradient8655" inkscape:swatch="solid">
      <stop style="stop-color:#0000ff;stop-opacity:1;" offset="0" id="stop8653" />
    </linearGradient>
    <linearGradient id="linearGradient8629" inkscape:swatch="solid">
      <stop style="stop-color:#0000ff;stop-opacity:1;" offset="0" id="stop8627" />
    </linearGradient>
    <linearGradient id="linearGradient8541" inkscape:swatch="solid">
      <stop style="stop-color:#000000;stop-opacity:1;" offset="0" id="stop8539" />
    </linearGradient>
    <rect x="620.83691" y="1087.7912" width="2493.9602" height="546.54873" id="rect100" />
  </defs>
  <path id="path57193" style="display:inline;fill:#ff0000;stroke:#ff0000;stroke-width:1.03131px;stroke-linecap:butt;stroke-linejoin:miter;stroke-opacity:1" inkscape:label="R2" d="m 802.32932,0.52038341 c -8.44212,-0.0385887 -16.92969,2.14028279 -24.22386,6.29780499 -11.65714,7.5225526 -20.38958,19.5444416 -23.69262,33.0326086 -2.16288,19.378347 -3.12323,38.854019 -4.44468,58.299802 -0.003,0.003 -0.004,0.0058 -0.008,0.009 -0.2635,3.876991 -0.53514,7.753071 -0.83976,11.626681 0,10e-4 0,0.003 0,0.004 -0.0483,0.61438 -0.0971,1.22854 -0.14695,1.84279 0.28572,-0.0491 0.57182,-0.0955 0.85784,-0.14262 0,0.001 0.003,0.002 0.003,0.004 10.27111,-1.69242 20.69627,-2.15996 31.08443,-2.69803 0.58253,-0.03 1.16546,-0.0596 1.74772,-0.0904 0.76499,-0.0405 1.52951,-0.0814 2.29388,-0.12403 0.0195,-0.001 0.0351,-0.002 0.0546,-0.003 0.085,-0.005 0.16956,-0.01 0.25414,-0.0144 0.69756,-0.0392 1.39489,-0.079 2.09182,-0.12091 4.31987,5.3e-4 8.64485,-0.0179 12.96979,-0.005 1.6e-4,0 0,0 0,0 1.08107,0.003 2.16222,0.009 3.24321,0.0164 1.9e-4,0 0,0 0,0 1.08099,0.008 2.16186,0.0191 3.24266,0.0335 1.9e-4,0 0,0 0,0 0.54032,0.007 1.08033,0.0152 1.62057,0.0242 2e-4,0 0,-1e-5 0,0 0.0117,1.7e-4 0.0195,2.6e-4 0.0312,5.3e-4 1.07082,0.0179 2.14129,0.0401 3.21168,0.0667 9.18333,0.22814 18.34901,0.79827 27.45155,2.19315 2.89427,0.32087 5.76987,0.74987 8.63565,1.23403 0.44486,0.0752 0.88937,0.15182 1.33377,0.22946 3.60917,0.6304 7.20525,1.33528 10.80655,2.01022 2e-4,3e-5 0,-3e-5 0,0 0.69,0.12933 1.38019,0.25761 2.0707,0.38397 1.6e-4,3e-5 0,-3e-5 0,0 0.6905,0.12633 1.38148,0.25071 2.07276,0.3726 0.63605,0.11214 1.27249,0.22151 1.90944,0.32867 0.34457,0.058 0.68906,0.11529 1.03402,0.17158 0.0573,0.009 0.11421,0.0191 0.17112,0.0285 1.5e-4,3e-5 0,-2e-5 0,0 0.34652,0.0562 0.693,0.11164 1.03971,0.1659 2e-4,2e-5 0,-3e-5 0,0 0.34691,0.0543 0.69366,0.10758 1.04077,0.15969 1.5e-4,2e-5 0,-3e-5 0,0 0.34729,0.0521 0.69432,0.10318 1.04181,0.15295 2e-4,3e-5 0,-2e-5 0,0 0.3473,0.0498 0.69538,0.0985 1.04334,0.14574 0.34808,0.0473 0.69631,0.0934 1.0449,0.13799 1.5e-4,2e-5 0,-2e-5 0,0 -3.42395,-20.844348 -10.09509,-40.945445 -16.12771,-61.135808 -3.78022,-12.537871 -7.26283,-25.816739 -16.20364,-35.814353 -4.4996,-4.84669 -9.02973,-9.7164974 -15.07607,-12.6488391 -6.82405,-4.1461444 -14.7147,-6.13874537 -22.64515,-6.17481999 z" />
  <path id="path26935" style="display:inline;fill:#ff0000;stroke:#ff0000;stroke-width:1.03131px;stroke-linecap:butt;stroke-linejoin:miter;stroke-opacity:1" inkscape:label="L2" d="m 194.93229,0.52038341 c -7.93045,0.03625 -15.82112,2.02867169 -22.64513,6.17481609 -6.04638,2.9323417 -10.577,7.8021495 -15.0766,12.6488385 -8.94081,9.997618 -12.42293,23.276483 -16.20315,35.814354 -6.03259,20.190366 -12.70371,40.29146 -16.12769,61.135808 1.7e-4,-3e-5 2.6e-4,2e-5 5.3e-4,0 0.006,-8e-4 0.0121,-0.002 0.0179,-0.003 0.68468,-0.0877 1.36809,-0.18074 2.05103,-0.27854 0.014,-0.002 0.0281,-0.004 0.0424,-0.006 0.67961,-0.0975 1.35844,-0.19941 2.03657,-0.30539 0.0175,-0.003 0.0355,-0.005 0.0532,-0.008 1.25819,-0.19708 2.51392,-0.40891 3.76824,-0.62838 0.13003,-0.0226 0.26018,-0.0447 0.39016,-0.0677 1.3608,-0.24015 2.71998,-0.48959 4.0783,-0.74414 0.0113,-0.002 0.0222,-0.004 0.0335,-0.006 6.90158,-1.29345 13.78388,-2.69853 20.776,-3.47369 10.70749,-1.64082 21.5019,-2.14035 32.31017,-2.28461 2.16348,-0.0289 4.32761,-0.0434 6.49159,-0.0501 1.7e-4,0 2.7e-4,1e-5 5.3e-4,0 2.00774,-0.006 4.01519,-0.005 6.02237,-0.003 2.31639,0.003 4.63205,0.008 6.94635,0.008 2.1727,0.13066 4.34948,0.24518 6.52725,0.35759 10.36031,0.53624 20.75684,1.00553 31.00018,2.69338 10e-4,-10e-4 0.002,-0.002 0.003,-0.004 0.28595,0.0471 0.57215,0.0936 0.85783,0.14262 -0.0497,-0.61443 -0.0984,-1.22875 -0.14675,-1.8433 2.2e-4,-0.001 7.9e-4,-0.002 0.001,-0.004 -0.30462,-3.87362 -0.57677,-7.74969 -0.84025,-11.62668 -0.003,-0.0029 -0.005,-0.0055 -0.008,-0.0082 -1.32145,-19.445951 -2.28127,-38.921798 -4.44417,-58.300316 -3.30304,-13.488167 -12.03598,-25.510056 -23.69313,-33.032609 -7.29415,-4.1575221 -15.78124,-6.33620655 -24.22333,-6.29780492 z" />
  <path id="path23691" style="fill:#ff0000;stroke:#ff0000;stroke-width:3.89786px;stroke-linecap:butt;stroke-linejoin:miter;stroke-opacity:1" inkscape:label="body" d="M 2986.6875 490.91406 C 2985.4888 490.91756 2984.2892 490.92715 2983.0879 490.94336 C 2930.4864 493.71768 2873.7954 483.96012 2825.5742 510.57812 C 2823.6991 521.69256 2821.824 532.80728 2819.9492 543.92188 C 2818.4286 552.9342 2816.9108 561.94851 2815.3906 570.96094 C 2798.4175 569.36133 2781.7515 569.41311 2761.873 573.63672 C 2698.7576 569.70487 2637.7487 546.35716 2573.668 546.23047 C 2569.7173 544.81561 2565.9837 543.67033 2562.668 542.88086 C 2351.8512 523.06691 2139.9611 515.64403 1928.3555 509.12109 C 1914.8499 508.91511 1901.3429 508.78251 1887.8359 508.73633 L 1887.8359 508.74219 C 1655.9326 508.91907 1424.3573 524.59791 1193.6543 547.21094 L 1026.4336 569.99023 C 1003.3729 565.9304 980.26475 565.64045 957.12109 567.10547 C 957.12507 567.06616 957.12845 567.02614 957.13477 566.98828 C 957.04048 566.66771 956.95812 566.33837 956.86914 566.01367 C 956.72182 565.30079 956.57432 564.58805 956.42773 563.875 C 955.28512 559.10863 954.47333 554.05486 953.78516 548.83789 C 953.78449 548.83689 953.7842 548.83499 953.7832 548.83398 C 951.40701 530.82048 949.36721 511.84425 931.27344 503.77734 C 890.37868 495.94301 848.53474 492.51964 806.79492 492.71484 L 806.79102 492.7168 C 800.82815 492.74479 794.87162 492.84794 788.91602 493.02148 C 746.28834 492.37327 704.26303 501.14287 663.95703 514.53711 C 595.4539 537.83188 522.64583 558.27498 467.18359 607.14062 L 460.06641 655.7793 C 460.09587 655.77629 460.12679 655.77644 460.15625 655.77344 C 460.61957 655.72924 461.09749 655.69843 461.57422 655.66602 C 461.74467 655.65422 461.91158 655.63826 462.08203 655.625 C 462.09824 655.624 462.1127 655.6221 462.12891 655.62109 C 462.31436 655.6083 462.49734 655.594 462.68164 655.58008 C 432.23192 658.93928 394.59199 654.80775 387.1875 691.65234 C 275.39141 912.94478 190.29273 1147.0902 127.02734 1386.6582 C 76.533597 1605.9253 24.801017 1826.6282 8.9042969 2051.5918 C 1.8066527 2191.167 -3.1636579 2331.0711 11.044922 2470.3672 C 18.40985 2615.1936 47.015042 2771.5713 153.44531 2878.0273 C 188.31725 2913.7046 227.54656 2948.8629 280.48242 2949.0566 C 289.93442 2951.1411 298.57811 2950.7967 306.4668 2948.5977 C 341.41781 2958.2487 379.25671 2970.091 415.48438 2976.6152 C 417.67692 2977.1861 419.86996 2977.7573 422.0625 2978.3281 C 442.83656 2981.4543 463.77786 2983.7025 484.61719 2986.4902 C 494.20687 2988.2699 503.93443 2987.9435 513.63867 2987.9141 C 527.86542 2983.4489 538.85125 2974.6638 547.27344 2962.4629 C 563.32445 2941.2458 574.00281 2916.132 586.86719 2892.8281 C 643.71427 2772.3934 692.66615 2648.5126 741.03125 2524.4961 C 773.03621 2441.1084 806.73297 2358.3967 840.88281 2275.8711 C 844.5667 2265.4918 848.65421 2255.1741 852.70117 2244.8496 C 858.57214 2234.8353 863.88933 2224.5157 869.91211 2214.5859 C 992.14161 2041.4452 1205.536 2121.9575 1378.3145 2119.8262 C 1765.9663 2112.0248 2154.3504 2120.0361 2541.6699 2115.4805 C 2653.5923 2086.6606 2784.9985 2089.3046 2868.4199 2181.3027 C 2891.6763 2208.2775 2912.29 2237.054 2931.2109 2266.9609 C 2969.8434 2375.5062 3013.083 2482.3227 3056.377 2589.084 C 3104.9008 2707.9838 3147.9245 2829.949 3210.0156 2942.623 C 3223.1919 2960.8083 3239.2341 2984.7454 3261.3477 2990.3242 C 3264.3263 2991.5392 3267.6594 2991.996 3271.4727 2991.3711 C 3275.7298 2991.3284 3280.1113 2990.8787 3284.8125 2989.2754 C 3285.0995 2989.167 3285.3848 2989.0558 3285.6719 2988.9473 C 3291.3539 2987.9571 3297.0367 2986.9758 3302.7188 2985.9941 C 3353.1588 2976.6533 3434.8606 2978.0204 3473.8652 2951.3066 C 3482.5615 2954.2743 3492.0435 2954.8333 3502.3691 2951.752 C 3548.5799 2949.9018 3586.5924 2924.5331 3617.9453 2892.4355 C 3709.2561 2813.9808 3741.8867 2692.5065 3757.5059 2577.6641 C 3782.1459 2346.9781 3788.2551 2111.9966 3751.9121 1882.1406 C 3713.2417 1655.8156 3672.7638 1428.8822 3602.9395 1209.6719 C 3542.856 1037.492 3477.6977 866.43397 3396.5762 702.8457 C 3388.596 664.17501 3347.2375 661.67493 3314.7031 661.17773 C 3314.6771 661.17175 3314.651 661.16614 3314.625 661.16016 L 3314.625 661.15625 C 3314.635 661.15824 3314.6396 661.16011 3314.6543 661.16211 C 3309.0552 633.64804 3300.6866 602.59741 3294.334 595.07422 C 3266.0155 575.2487 3235.0416 559.4873 3203.1621 546.25195 C 3134.8175 519.92306 3064.5129 491.72021 2990.2871 490.92969 L 2990.2812 490.92773 C 2989.0844 490.91374 2987.8862 490.91056 2986.6875 490.91406 z M 3271.4727 2991.3711 C 3271.199 2991.3738 3270.8876 2991.5075 3270.6152 2991.5059 C 3270.9456 2991.4647 3271.2656 2991.4426 3271.6035 2991.3848 C 3271.5541 2991.3932 3271.5219 2991.363 3271.4727 2991.3711 z M 3261.3477 2990.3242 C 3261.3454 2990.3233 3261.3421 2990.3251 3261.3398 2990.3242 C 3261.4849 2990.3834 3261.6208 2990.462 3261.7676 2990.5176 C 3261.6175 2990.4816 3261.4971 2990.3619 3261.3477 2990.3242 z " transform="scale(0.26458333)" />
  <style type="text/css" id="style2">
	.st0{fill:#61E0DF;}
	.st1{fill:#3ED8D2;}
</style>
  <style type="text/css" id="style2-5">
	.st0{fill:#3ED8D2;}
	.st1{fill:#61E0DF;}
	.st2{opacity:8.000000e-002;}
</style>
  <metadata id="metadata63811">
    <rdf:RDF>
      <cc:Work rdf:about="">
        <cc:license rdf:resource="http://creativecommons.org/licenses/by-nc-sa/4.0/" />
        <dc:title>PS5 DualSense Controller</dc:title>
        <dc:date>2024-03-14</dc:date>
        <dc:creator>
          <cc:Agent>
            <dc:title>Robin Christopher Ladiges</dc:title>
          </cc:Agent>
        </dc:creator>
        <dc:source>https://rcl.blackpinguin.de/</dc:source>
      </cc:Work>
      <cc:License rdf:about="http://creativecommons.org/licenses/by-nc-sa/4.0/">
        <cc:permits rdf:resource="http://creativecommons.org/ns#Reproduction" />
        <cc:permits rdf:resource="http://creativecommons.org/ns#Distribution" />
        <cc:requires rdf:resource="http://creativecommons.org/ns#Notice" />
        <cc:requires rdf:resource="http://creativecommons.org/ns#Attribution" />
        <cc:prohibits rdf:resource="http://creativecommons.org/ns#CommercialUse" />
        <cc:permits rdf:resource="http://creativecommons.org/ns#DerivativeWorks" />
        <cc:requires rdf:resource="http://creativecommons.org/ns#ShareAlike" />
      </cc:License>
    </rdf:RDF>
  </metadata>
  <text xml:space="preserve" transform="matrix(0.26458333,0,0,0.26458333,5.4451804,-1.4823534)" id="text8874" style="font-style:normal;font-weight:normal;font-size:400px;line-height:1.25;font-family:sans-serif;letter-spacing:0px;word-spacing:0px;white-space:pre;shape-inside:url(#rect8876);display:none;fill:#000000;fill-opacity:1;stroke:none" x="1092.9688" y="0" inkscape:label="text" />
  <g aria-label="Disconnected" transform="matrix(0.26458333,0,0,0.26458333,5.4451804,-1.4823534)" id="text98" style="font-size:400px;line-height:1.25;letter-spacing:0px;word-spacing:0px;white-space:pre;shape-inside:url(#rect100)" inkscape:label="text">
    <path d="m 986.17578,1311.6191 q 0,34.7657 -9.17969,59.5704 -8.98437,24.6093 -25.97656,40.2343 -16.99219,15.625 -41.40625,23.0469 -24.21875,7.2266 -57.8125,7.2266 h -60.35156 q -6.44531,0 -10.9375,-3.711 -4.29688,-3.9062 -4.29688,-12.5 v -220.3125 q 0,-8.5937 4.29688,-12.3047 4.49219,-3.9062 10.9375,-3.9062 h 64.84375 q 33.78906,0 57.22656,8.0078 23.63281,7.8125 39.64844,23.4375 16.21094,15.4297 24.60937,38.2813 8.39844,22.8515 8.39844,52.9296 z m -53.125,1.7579 q 0,-17.9688 -4.29687,-33.3985 -4.10157,-15.4297 -13.47657,-26.7578 -9.17968,-11.3281 -23.82812,-17.5781 -14.45313,-6.4453 -38.08594,-6.4453 h -25.97656 v 171.875 h 26.75781 q 21.09375,0 35.54688,-5.4688 14.45312,-5.4687 24.02343,-16.4062 9.76563,-11.1328 14.45313,-27.5391 4.88281,-16.4062 4.88281,-38.2812 z" style="font-weight:bold;font-family:Calibri;-inkscape-font-specification:'Calibri Bold';text-align:center;text-anchor:middle;fill:#ffffff" id="path102" />
    <path d="m 1074.6523,1435.0566 q 0,1.9532 -1.1718,3.5157 -1.1719,1.3672 -4.1016,2.3437 -2.7344,0.9766 -7.4219,1.3672 -4.6875,0.5859 -11.914,0.5859 -7.2266,0 -11.9141,-0.5859 -4.6875,-0.3906 -7.6172,-1.3672 -2.7344,-0.9765 -3.9062,-2.3437 -1.1719,-1.5625 -1.1719,-3.5157 v -173.8281 q 0,-1.9531 1.1719,-3.3203 1.1718,-1.5625 3.9062,-2.5391 2.9297,-1.1718 7.6172,-1.7578 4.6875,-0.5859 11.9141,-0.5859 7.2265,0 11.914,0.5859 4.6875,0.586 7.4219,1.7578 2.9297,0.9766 4.1016,2.5391 1.1718,1.3672 1.1718,3.3203 z m 3.711,-233.2031 q 0,14.8438 -6.0547,20.5078 -6.0547,5.6641 -22.4609,5.6641 -16.6016,0 -22.461,-5.4688 -5.664,-5.4687 -5.664,-19.7265 0,-14.8438 5.8593,-20.5078 6.0547,-5.8594 22.6563,-5.8594 16.4062,0 22.2656,5.6641 5.8594,5.4687 5.8594,19.7265 z" style="font-weight:bold;font-family:Calibri;-inkscape-font-specification:'Calibri Bold';text-align:center;text-anchor:middle;fill:#ffffff" id="path104" />
    <path d="m 1246.332,1385.8379 q 0,14.8437 -5.664,26.1719 -5.4688,11.3281 -15.625,18.9453 -10.1563,7.6172 -24.0235,11.3281 -13.8672,3.9063 -30.0781,3.9063 -9.7656,0 -18.75,-1.5625 -8.7891,-1.3672 -15.8203,-3.5157 -7.0313,-2.3437 -11.7188,-4.6875 -4.6875,-2.3437 -6.8359,-4.2968 -2.1484,-2.1485 -3.3203,-6.4454 -1.1719,-4.4921 -1.1719,-13.0859 0,-5.6641 0.3906,-8.9844 0.3907,-3.5156 1.1719,-5.4687 0.7813,-2.1485 1.9531,-2.7344 1.1719,-0.7812 2.9297,-0.7812 2.1485,0 6.25,2.539 4.2969,2.3438 10.5469,5.2735 6.25,2.9296 14.4531,5.4687 8.3985,2.5391 18.9453,2.5391 6.6407,0 11.7188,-1.3672 5.2734,-1.3672 8.9844,-3.9063 3.9062,-2.539 5.8593,-6.4453 1.9532,-3.9062 1.9532,-8.9844 0,-5.8593 -3.711,-9.9609 -3.5156,-4.2969 -9.5703,-7.4219 -5.8594,-3.125 -13.4765,-5.8593 -7.4219,-2.7344 -15.4297,-6.0547 -7.8125,-3.3203 -15.4297,-7.6172 -7.4219,-4.2969 -13.4766,-10.5469 -5.8594,-6.25 -9.5703,-15.0391 -3.5156,-8.789 -3.5156,-21.0937 0,-12.5 4.8828,-22.8516 4.8828,-10.5468 14.0625,-17.9687 9.1797,-7.4219 22.2656,-11.5235 13.2813,-4.1015 29.6875,-4.1015 8.2031,0 15.8203,1.1719 7.8125,1.1718 14.0625,2.9296 6.25,1.7579 10.5469,3.9063 4.2969,1.9531 6.0547,3.5156 1.9531,1.3672 2.7344,2.9297 0.7812,1.3672 1.1718,3.5156 0.3907,1.9532 0.586,5.0782 0.3906,2.9296 0.3906,7.4218 0,5.2735 -0.3906,8.5938 -0.1953,3.3203 -0.9766,5.2734 -0.5859,1.9531 -1.7578,2.7344 -1.1719,0.5859 -2.7344,0.5859 -1.7578,0 -5.4687,-1.9531 -3.711,-2.1484 -9.375,-4.4922 -5.4688,-2.3437 -12.8906,-4.2969 -7.2266,-2.1484 -16.6016,-2.1484 -6.6406,0 -11.5234,1.3672 -4.8829,1.3672 -8.0079,3.9062 -3.125,2.5391 -4.6875,6.0547 -1.5625,3.3203 -1.5625,7.2266 0,6.0547 3.711,10.1562 3.7109,4.1016 9.7656,7.2266 6.0547,3.125 13.6719,5.8594 7.8125,2.7344 15.625,6.0547 8.0078,3.125 15.625,7.4218 7.8125,4.2969 13.8672,10.5469 6.0547,6.25 9.7656,15.0391 3.7109,8.5937 3.7109,20.5078 z" style="font-weight:bold;font-family:Calibri;-inkscape-font-specification:'Calibri Bold';text-align:center;text-anchor:middle;fill:#ffffff" id="path106" />
    <path d="m 1415.082,1407.3223 q 0,5.0781 -0.3906,8.5937 -0.1953,3.3203 -0.7812,5.6641 -0.3907,2.3437 -1.1719,3.9062 -0.586,1.3672 -2.9297,3.711 -2.3438,2.1484 -8.0078,5.4687 -5.6641,3.125 -12.8906,5.6641 -7.2266,2.539 -15.8204,4.1015 -8.3984,1.5625 -17.3828,1.5625 -20.1172,0 -35.7422,-6.25 -15.4296,-6.25 -25.9765,-18.3593 -10.5469,-12.3047 -16.0156,-29.8828 -5.2735,-17.5782 -5.2735,-40.2344 0,-26.1719 6.4453,-45.1172 6.6407,-19.1406 18.3594,-31.6406 11.7188,-12.5 27.7344,-18.5547 16.0156,-6.0547 35.1562,-6.0547 7.8125,0 15.2344,1.3672 7.6172,1.3672 14.0625,3.7109 6.6406,2.3438 11.7188,5.2735 5.2734,2.9296 7.4218,5.0781 2.1485,2.1484 2.9297,3.7109 0.9766,1.3672 1.3672,3.711 0.5859,2.3437 0.7813,5.8593 0.3906,3.3203 0.3906,8.2032 0,11.3281 -1.9531,16.0156 -1.9532,4.4922 -5.0782,4.4922 -3.3203,0 -7.0312,-2.7344 -3.711,-2.7344 -8.7891,-6.0547 -5.0781,-3.3203 -12.1094,-6.0547 -7.0312,-2.7344 -16.7968,-2.7344 -19.1407,0 -29.2969,14.8438 -10.1563,14.6484 -10.1563,43.1641 0,14.0625 2.5391,24.8046 2.5391,10.7422 7.4219,17.9688 5.0781,7.2266 12.5,10.9375 7.6172,3.5156 17.5781,3.5156 10.1563,0 17.3828,-2.9297 7.4219,-3.125 12.8906,-6.8359 5.4688,-3.7109 9.1797,-6.6406 3.711,-3.125 6.25,-3.125 1.7578,0 2.9297,0.9765 1.1719,0.9766 1.7578,3.711 0.7813,2.539 1.1719,6.6406 0.3906,4.1016 0.3906,10.5469 z" style="font-weight:bold;font-family:Calibri;-inkscape-font-specification:'Calibri Bold';text-align:center;text-anchor:middle;fill:#ffffff" id="path108" />
    <path d="m 1624.8477,1346.1895 q 0,22.2656 -5.8594,40.625 -5.8594,18.3593 -17.7735,31.6406 -11.914,13.2812 -29.8828,20.5078 -17.9687,7.2266 -41.9922,7.2266 -23.2421,0 -40.4296,-6.4454 -17.1875,-6.4453 -28.5157,-18.75 -11.3281,-12.3046 -16.7968,-30.2734 -5.4688,-17.9687 -5.4688,-41.0156 0,-22.2656 5.8594,-40.625 6.0547,-18.5547 17.9687,-31.6406 11.9141,-13.2813 29.6875,-20.5079 17.9688,-7.2265 41.9922,-7.2265 23.4375,0 40.625,6.4453 17.1875,6.25 28.3203,18.5547 11.3282,12.3047 16.7969,30.2734 5.4688,17.9688 5.4688,41.211 z m -50.586,1.9531 q 0,-12.8906 -2.1484,-23.6328 -1.9531,-10.9375 -6.836,-18.9453 -4.8828,-8.0079 -13.0859,-12.5 -8.0078,-4.4922 -20.3125,-4.4922 -10.9375,0 -19.1406,4.1015 -8.2031,3.9063 -13.4766,11.7188 -5.2734,7.6172 -8.0078,18.5547 -2.5391,10.7422 -2.5391,24.6093 0,12.8907 2.1485,23.8282 2.1484,10.7422 6.8359,18.75 4.8828,8.0078 13.086,12.5 8.2031,4.2968 20.3125,4.2968 11.1328,0 19.3359,-3.9062 8.2031,-4.1016 13.4766,-11.7188 5.2734,-7.6171 7.8125,-18.3593 2.539,-10.9375 2.539,-24.8047 z" style="font-weight:bold;font-family:Calibri;-inkscape-font-specification:'Calibri Bold';text-align:center;text-anchor:middle;fill:#ffffff" id="path110" />
    <path d="m 1830.1211,1435.0566 q 0,1.9532 -1.1719,3.5157 -1.1719,1.3672 -3.9062,2.3437 -2.7344,0.9766 -7.6172,1.3672 -4.6875,0.5859 -11.7188,0.5859 -7.2265,0 -12.1093,-0.5859 -4.6875,-0.3906 -7.4219,-1.3672 -2.7344,-0.9765 -3.9063,-2.3437 -1.1718,-1.5625 -1.1718,-3.5157 v -99.414 q 0,-12.6953 -1.9532,-19.9219 -1.7578,-7.2266 -5.2734,-12.3047 -3.5156,-5.2734 -9.1797,-8.0078 -5.4687,-2.9297 -12.8906,-2.9297 -9.375,0 -18.9453,6.836 -9.5703,6.8359 -19.9219,19.9218 v 115.8203 q 0,1.9532 -1.1719,3.5157 -1.1719,1.3672 -4.1015,2.3437 -2.7344,0.9766 -7.4219,1.3672 -4.6875,0.5859 -11.9141,0.5859 -7.2265,0 -11.914,-0.5859 -4.6875,-0.3906 -7.6172,-1.3672 -2.7344,-0.9765 -3.9063,-2.3437 -1.1719,-1.5625 -1.1719,-3.5157 v -174.2187 q 0,-1.9531 0.9766,-3.3203 0.9766,-1.5625 3.5156,-2.5391 2.5391,-0.9765 6.4453,-1.3672 4.1016,-0.5859 10.1563,-0.5859 6.25,0 10.3516,0.5859 4.1015,0.3907 6.25,1.3672 2.3437,0.9766 3.3203,2.5391 0.9765,1.3672 0.9765,3.3203 v 20.1172 q 14.4532,-15.625 29.2969,-23.4375 15.0391,-7.8125 31.25,-7.8125 17.7734,0 29.8828,5.8594 12.3047,5.8593 19.7266,16.0156 7.6172,9.9609 10.9375,23.4375 3.3203,13.4765 3.3203,32.4219 z" style="font-weight:bold;font-family:Calibri;-inkscape-font-specification:'Calibri Bold';text-align:center;text-anchor:middle;fill:#ffffff" id="path112" />
    <path d="m 2044.7695,1435.0566 q 0,1.9532 -1.1718,3.5157 -1.1719,1.3672 -3.9063,2.3437 -2.7344,0.9766 -7.6172,1.3672 -4.6875,0.5859 -11.7187,0.5859 -7.2266,0 -12.1094,-0.5859 -4.6875,-0.3906 -7.4219,-1.3672 -2.7344,-0.9765 -3.9062,-2.3437 -1.1719,-1.5625 -1.1719,-3.5157 v -99.414 q 0,-12.6953 -1.9531,-19.9219 -1.7578,-7.2266 -5.2735,-12.3047 -3.5156,-5.2734 -9.1797,-8.0078 -5.4687,-2.9297 -12.8906,-2.9297 -9.375,0 -18.9453,6.836 -9.5703,6.8359 -19.9219,19.9218 v 115.8203 q 0,1.9532 -1.1718,3.5157 -1.1719,1.3672 -4.1016,2.3437 -2.7344,0.9766 -7.4219,1.3672 -4.6875,0.5859 -11.914,0.5859 -7.2266,0 -11.9141,-0.5859 -4.6875,-0.3906 -7.6172,-1.3672 -2.7344,-0.9765 -3.9062,-2.3437 -1.1719,-1.5625 -1.1719,-3.5157 v -174.2187 q 0,-1.9531 0.9765,-3.3203 0.9766,-1.5625 3.5157,-2.5391 2.539,-0.9765 6.4453,-1.3672 4.1015,-0.5859 10.1562,-0.5859 6.25,0 10.3516,0.5859 4.1016,0.3907 6.25,1.3672 2.3437,0.9766 3.3203,2.5391 0.9766,1.3672 0.9766,3.3203 v 20.1172 q 14.4531,-15.625 29.2968,-23.4375 15.0391,-7.8125 31.25,-7.8125 17.7735,0 29.8829,5.8594 12.3046,5.8593 19.7265,16.0156 7.6172,9.9609 10.9375,23.4375 3.3203,13.4765 3.3203,32.4219 z" style="font-weight:bold;font-family:Calibri;-inkscape-font-specification:'Calibri Bold';text-align:center;text-anchor:middle;fill:#ffffff" id="path114" />
    <path d="m 2253.9492,1342.8691 q 0,8.9844 -4.1015,13.2813 -3.9063,4.2969 -10.9375,4.2969 h -106.0547 q 0,11.1328 2.539,20.3125 2.7344,8.9843 8.3985,15.4297 5.8593,6.25 14.8437,9.5703 9.1797,3.3203 21.875,3.3203 12.8906,0 22.6563,-1.7578 9.7656,-1.9532 16.7968,-4.1016 7.2266,-2.3437 11.9141,-4.1016 4.6875,-1.9531 7.6172,-1.9531 1.7578,0 2.9297,0.7813 1.1719,0.5859 1.9531,2.3437 0.7813,1.7578 0.9766,5.0781 0.3906,3.125 0.3906,8.0079 0,4.2968 -0.1953,7.4218 -0.1953,2.9297 -0.586,5.0782 -0.3906,2.1484 -1.1718,3.7109 -0.7813,1.3672 -2.1485,2.7344 -1.1718,1.3672 -6.8359,3.7109 -5.6641,2.3438 -14.4531,4.6875 -8.7891,2.1484 -20.1172,3.7109 -11.3281,1.7579 -24.2188,1.7579 -23.2422,0 -40.8203,-5.8594 -17.3828,-5.8594 -29.1015,-17.7735 -11.7188,-11.914 -17.5782,-30.0781 -5.664,-18.164 -5.664,-42.5781 0,-23.2422 6.0547,-41.7969 6.0546,-18.75 17.5781,-31.6406 11.5234,-13.0859 27.9297,-19.9219 16.6015,-6.8359 37.3047,-6.8359 21.875,0 37.3046,6.4453 15.625,6.4453 25.586,17.9687 9.9609,11.3282 14.6484,26.9532 4.6875,15.625 4.6875,33.9843 z m -47.6562,-14.0625 q 0.5859,-20.7031 -8.3985,-32.4218 -8.789,-11.9141 -27.3437,-11.9141 -9.375,0 -16.4063,3.5156 -6.8359,3.5157 -11.5234,9.5703 -4.4922,5.8594 -7.0313,14.0625 -2.3437,8.0079 -2.7343,17.1875 z" style="font-weight:bold;font-family:Calibri;-inkscape-font-specification:'Calibri Bold';text-align:center;text-anchor:middle;fill:#ffffff" id="path116" />
    <path d="m 2426.2148,1407.3223 q 0,5.0781 -0.3906,8.5937 -0.1953,3.3203 -0.7812,5.6641 -0.3907,2.3437 -1.1719,3.9062 -0.5859,1.3672 -2.9297,3.711 -2.3437,2.1484 -8.0078,5.4687 -5.6641,3.125 -12.8906,5.6641 -7.2266,2.539 -15.8203,4.1015 -8.3985,1.5625 -17.3829,1.5625 -20.1171,0 -35.7421,-6.25 -15.4297,-6.25 -25.9766,-18.3593 -10.5469,-12.3047 -16.0156,-29.8828 -5.2735,-17.5782 -5.2735,-40.2344 0,-26.1719 6.4453,-45.1172 6.6407,-19.1406 18.3594,-31.6406 11.7188,-12.5 27.7344,-18.5547 16.0156,-6.0547 35.1562,-6.0547 7.8125,0 15.2344,1.3672 7.6172,1.3672 14.0625,3.7109 6.6406,2.3438 11.7188,5.2735 5.2734,2.9296 7.4218,5.0781 2.1485,2.1484 2.9297,3.7109 0.9766,1.3672 1.3672,3.711 0.586,2.3437 0.7813,5.8593 0.3906,3.3203 0.3906,8.2032 0,11.3281 -1.9531,16.0156 -1.9532,4.4922 -5.0782,4.4922 -3.3203,0 -7.0312,-2.7344 -3.7109,-2.7344 -8.7891,-6.0547 -5.0781,-3.3203 -12.1093,-6.0547 -7.0313,-2.7344 -16.7969,-2.7344 -19.1406,0 -29.2969,14.8438 -10.1562,14.6484 -10.1562,43.1641 0,14.0625 2.539,24.8046 2.5391,10.7422 7.4219,17.9688 5.0781,7.2266 12.5,10.9375 7.6172,3.5156 17.5781,3.5156 10.1563,0 17.3828,-2.9297 7.4219,-3.125 12.8907,-6.8359 5.4687,-3.7109 9.1796,-6.6406 3.711,-3.125 6.25,-3.125 1.7579,0 2.9297,0.9765 1.1719,0.9766 1.7578,3.711 0.7813,2.539 1.1719,6.6406 0.3906,4.1016 0.3906,10.5469 z" style="font-weight:bold;font-family:Calibri;-inkscape-font-specification:'Calibri Bold';text-align:center;text-anchor:middle;fill:#ffffff" id="path118" />
    <path d="m 2564.8867,1417.8691 q 0,8.5938 -1.1719,13.2813 -0.9765,4.4922 -2.7343,6.4453 -1.7578,1.7578 -5.2735,3.3203 -3.3203,1.3672 -8.0078,2.3438 -4.4922,1.1718 -9.9609,1.7578 -5.2735,0.5859 -10.7422,0.5859 -14.6484,0 -25.3906,-3.7109 -10.7422,-3.711 -17.7735,-11.3281 -7.0312,-7.8125 -10.3515,-19.5313 -3.3203,-11.7187 -3.3203,-27.7344 v -89.2578 h -20.8985 q -3.7109,0 -5.664,-4.4922 -1.9532,-4.6875 -1.9532,-15.4297 0,-5.664 0.3907,-9.5703 0.5859,-3.9062 1.5625,-6.0547 0.9765,-2.3437 2.3437,-3.3203 1.5625,-0.9765 3.5156,-0.9765 h 20.7032 v -38.8672 q 0,-1.9531 0.9765,-3.5156 1.1719,-1.5625 3.9063,-2.5391 2.9297,-1.1719 7.6172,-1.5625 4.8828,-0.5859 11.914,-0.5859 7.2266,0 11.9141,0.5859 4.8828,0.3906 7.6172,1.5625 2.7343,0.9766 3.9062,2.5391 1.1719,1.5625 1.1719,3.5156 v 38.8672 h 37.8906 q 1.9531,0 3.3203,0.9765 1.5625,0.9766 2.5391,3.3203 0.9766,2.1485 1.3672,6.0547 0.5859,3.9063 0.5859,9.5703 0,10.7422 -1.9531,15.4297 -1.9531,4.4922 -5.6641,4.4922 h -38.0859 v 81.836 q 0,14.2578 4.4922,21.4843 4.4922,7.0313 16.0156,7.0313 3.9063,0 7.0313,-0.586 3.125,-0.7812 5.4687,-1.5625 2.5391,-0.9765 4.1016,-1.5625 1.7578,-0.7812 3.125,-0.7812 1.1718,0 2.1484,0.7812 1.1719,0.586 1.7578,2.7344 0.586,1.9531 0.9766,5.4688 0.5859,3.5156 0.5859,8.9843 z" style="font-weight:bold;font-family:Calibri;-inkscape-font-specification:'Calibri Bold';text-align:center;text-anchor:middle;fill:#ffffff" id="path120" />
    <path d="m 2756.4883,1342.8691 q 0,8.9844 -4.1016,13.2813 -3.9062,4.2969 -10.9375,4.2969 h -106.0547 q 0,11.1328 2.5391,20.3125 2.7344,8.9843 8.3984,15.4297 5.8594,6.25 14.8438,9.5703 9.1797,3.3203 21.875,3.3203 12.8906,0 22.6562,-1.7578 9.7657,-1.9532 16.7969,-4.1016 7.2266,-2.3437 11.9141,-4.1016 4.6875,-1.9531 7.6172,-1.9531 1.7578,0 2.9296,0.7813 1.1719,0.5859 1.9532,2.3437 0.7812,1.7578 0.9765,5.0781 0.3907,3.125 0.3907,8.0079 0,4.2968 -0.1954,7.4218 -0.1953,2.9297 -0.5859,5.0782 -0.3906,2.1484 -1.1719,3.7109 -0.7812,1.3672 -2.1484,2.7344 -1.1719,1.3672 -6.8359,3.7109 -5.6641,2.3438 -14.4532,4.6875 -8.789,2.1484 -20.1172,3.7109 -11.3281,1.7579 -24.2187,1.7579 -23.2422,0 -40.8203,-5.8594 -17.3828,-5.8594 -29.1016,-17.7735 -11.7187,-11.914 -17.5781,-30.0781 -5.6641,-18.164 -5.6641,-42.5781 0,-23.2422 6.0547,-41.7969 6.0547,-18.75 17.5781,-31.6406 11.5235,-13.0859 27.9297,-19.9219 16.6016,-6.8359 37.3047,-6.8359 21.875,0 37.3047,6.4453 15.625,6.4453 25.5859,17.9687 9.961,11.3282 14.6485,26.9532 4.6875,15.625 4.6875,33.9843 z m -47.6563,-14.0625 q 0.586,-20.7031 -8.3984,-32.4218 -8.7891,-11.9141 -27.3438,-11.9141 -9.375,0 -16.4062,3.5156 -6.8359,3.5157 -11.5234,9.5703 -4.4922,5.8594 -7.0313,14.0625 -2.3437,8.0079 -2.7344,17.1875 z" style="font-weight:bold;font-family:Calibri;-inkscape-font-specification:'Calibri Bold';text-align:center;text-anchor:middle;fill:#ffffff" id="path122" />
    <path d="m 2962.1523,1435.0566 q 0,2.1485 -0.9765,3.711 -0.9766,1.3672 -3.3203,2.3437 -2.3438,0.9766 -6.4453,1.3672 -3.9063,0.3906 -9.7657,0.3906 -6.25,0 -10.1562,-0.3906 -3.9063,-0.3906 -6.4453,-1.3672 -2.3438,-0.9765 -3.5157,-2.3437 -0.9765,-1.5625 -0.9765,-3.711 v -19.3359 q -13.4766,14.4531 -28.3203,22.4609 -14.6485,8.0079 -32.6172,8.0079 -19.9219,0 -33.7891,-7.6172 -13.6719,-7.8125 -22.4609,-20.8985 -8.5938,-13.0859 -12.5,-30.4687 -3.9063,-17.5781 -3.9063,-36.9141 0,-23.2422 4.8828,-41.7969 5.0782,-18.5546 14.6485,-31.6406 9.5703,-13.0859 23.8281,-20.1172 14.2578,-7.0312 32.8125,-7.0312 14.6484,0 26.5625,6.0547 11.9141,5.8593 23.6328,17.3828 v -94.336 q 0,-1.9531 0.9766,-3.5156 1.1719,-1.5625 3.9062,-2.539 2.9297,-1.1719 7.6172,-1.7579 4.6875,-0.5859 11.9141,-0.5859 7.2265,0 11.914,0.5859 4.6875,0.586 7.4219,1.7579 2.7344,0.9765 3.9063,2.539 1.1718,1.5625 1.1718,3.5156 z m -48.8281,-116.4062 q -10.5469,-13.2813 -20.3125,-20.3125 -9.5703,-7.0313 -20.1172,-7.0313 -9.5703,0 -16.6015,4.8829 -6.836,4.6875 -11.1328,12.6953 -4.1016,8.0078 -6.25,17.9687 -1.9532,9.7656 -1.9532,20.1172 0,10.9375 1.7578,21.2891 1.7579,10.3515 5.6641,18.5547 4.1016,8.0078 10.7422,12.8906 6.6406,4.8828 16.7969,4.8828 5.0781,0 9.7656,-1.3672 4.8828,-1.5625 9.7656,-4.8828 5.0781,-3.3203 10.3516,-8.5938 5.2734,-5.4687 11.5234,-13.2812 z" style="font-weight:bold;font-family:Calibri;-inkscape-font-specification:'Calibri Bold';text-align:center;text-anchor:middle;fill:#ffffff" id="path124" />
  </g>
</svg>
