<?xml version="1.0" encoding="UTF-8" standalone="no"?>
<!-- Created with Inkscape (http://www.inkscape.org/) -->

<svg width="317.27148mm" height="176.04692mm" viewBox="0 0 317.27148 176.04692" version="1.1" id="svg5" inkscape:label="quad_bg" inkscape:version="1.1.2 (b8e25be833, 2022-02-05)" sodipodi:docname="dpad.svg" xmlns:inkscape="http://www.inkscape.org/namespaces/inkscape" xmlns:sodipodi="http://sodipodi.sourceforge.net/DTD/sodipodi-0.dtd" xmlns="http://www.w3.org/2000/svg" xmlns:svg="http://www.w3.org/2000/svg" xmlns:rdf="http://www.w3.org/1999/02/22-rdf-syntax-ns#" xmlns:cc="http://creativecommons.org/ns#" xmlns:dc="http://purl.org/dc/elements/1.1/">
  <title id="title63815">PS5 DualSense Controller</title>
  <sodipodi:namedview id="namedview7" pagecolor="#ffffff" bordercolor="#666666" borderopacity="1.0" inkscape:pageshadow="2" inkscape:pageopacity="0.0" inkscape:pagecheckerboard="true" inkscape:document-units="mm" showgrid="false" fit-margin-top="10" fit-margin-left="10" fit-margin-right="10" fit-margin-bottom="10" inkscape:zoom="0.5691661" inkscape:cx="524.45147" inkscape:cy="147.58433" inkscape:window-width="1598" inkscape:window-height="1015" inkscape:window-x="2038" inkscape:window-y="10" inkscape:window-maximized="0" inkscape:current-layer="g1256" inkscape:showpageshadow="false" width="317.27148mm" height="176.04692mm" />
  <defs id="defs2">
    <linearGradient id="linearGradient8705" inkscape:swatch="solid">
      <stop style="stop-color:#0000ff;stop-opacity:1;" offset="0" id="stop8703" />
    </linearGradient>
    <linearGradient id="linearGradient8655" inkscape:swatch="solid">
      <stop style="stop-color:#0000ff;stop-opacity:1;" offset="0" id="stop8653" />
    </linearGradient>
    <linearGradient id="linearGradient8629" inkscape:swatch="solid">
      <stop style="stop-color:#0000ff;stop-opacity:1;" offset="0" id="stop8627" />
    </linearGradient>
    <linearGradient id="linearGradient8541" inkscape:swatch="solid">
      <stop style="stop-color:#000000;stop-opacity:1;" offset="0" id="stop8539" />
    </linearGradient>
  </defs>
  <style type="text/css" id="style2">
	.st0{fill:#61E0DF;}
	.st1{fill:#3ED8D2;}
</style>
  <style type="text/css" id="style2-5">
	.st0{fill:#3ED8D2;}
	.st1{fill:#61E0DF;}
	.st2{opacity:8.000000e-002;}
</style>
  <metadata id="metadata63811">
    <rdf:RDF>
      <cc:Work rdf:about="">
        <cc:license rdf:resource="http://creativecommons.org/licenses/by-nc-sa/4.0/" />
        <dc:title>PS5 DualSense Controller</dc:title>
        <dc:date>2024-03-14</dc:date>
        <dc:creator>
          <cc:Agent>
            <dc:title>Robin Christopher Ladiges</dc:title>
          </cc:Agent>
        </dc:creator>
        <dc:source>https://rcl.blackpinguin.de/</dc:source>
      </cc:Work>
      <cc:License rdf:about="http://creativecommons.org/licenses/by-nc-sa/4.0/">
        <cc:permits rdf:resource="http://creativecommons.org/ns#Reproduction" />
        <cc:permits rdf:resource="http://creativecommons.org/ns#Distribution" />
        <cc:requires rdf:resource="http://creativecommons.org/ns#Notice" />
        <cc:requires rdf:resource="http://creativecommons.org/ns#Attribution" />
        <cc:prohibits rdf:resource="http://creativecommons.org/ns#CommercialUse" />
        <cc:permits rdf:resource="http://creativecommons.org/ns#DerivativeWorks" />
        <cc:requires rdf:resource="http://creativecommons.org/ns#ShareAlike" />
      </cc:License>
    </rdf:RDF>
  </metadata>
  <g id="g1256" inkscape:label="pressed" transform="translate(-7.5048464,85.885219)" sodipodi:insensitive="true">
    <g id="g1236" inkscape:label="dpad_right" transform="matrix(-3.8978512,0,0,3.8978512,461.28807,-332.96468)">
      <path style="opacity:1;fill:#2020df;fill-opacity:1;stroke:#ff7f27;stroke-width:0.8;stroke-linecap:butt;stroke-linejoin:miter;stroke-miterlimit:4;stroke-dasharray:none;stroke-opacity:1" d="m 41.420081,89.274115 c -1.752235,0.511811 -3.336295,2.077827 -3.394329,3.975342 -0.04666,1.336461 0.03215,2.674039 -0.01549,4.01121 0.01683,1.053076 -0.09399,2.128139 0.07308,3.166763 0.639018,1.9597 2.527907,3.67355 4.680311,3.50734 2.208717,-0.0205 4.532045,0.34082 6.628363,-0.54455 1.859009,-0.69651 3.07348,-2.33741 4.421605,-3.701408 0.642426,-0.746581 1.394591,-1.420763 1.918689,-2.257221 0.483324,-1.058772 -0.03559,-2.300947 -0.866455,-3.023896 -1.542883,-1.70631 -3.189271,-3.392052 -5.197486,-4.543877 -1.586541,-0.5935 -3.31284,-0.52004 -4.977471,-0.617474 -1.090368,-0.004 -2.180475,0.04179 -3.270817,0.02777 z" id="path1232" inkscape:label="dpad_bg" />
      <path style="fill:#ff7f27;fill-opacity:1;stroke:#ff7f27;stroke-width:0;stroke-linecap:butt;stroke-linejoin:miter;stroke-miterlimit:4;stroke-dasharray:none;stroke-opacity:1" d="m 41.759986,96.679225 c 0.841675,-0.598883 1.68335,-1.197767 2.525025,-1.79665 -0.01619,1.197768 -0.03237,2.395535 -0.04856,3.593303 -0.825488,-0.598884 -1.650977,-1.197769 -2.476465,-1.796653 z" id="path1234" inkscape:label="dpad_arrow" />
      <path id="path1026" style="opacity:1;fill:none;fill-opacity:1;stroke:#ff7f27;stroke-width:0.8;stroke-linecap:butt;stroke-linejoin:miter;stroke-miterlimit:4;stroke-dasharray:none;stroke-opacity:1" inkscape:label="dpad_outline" d="m 46.316406,91.302734 c -1.522658,0.108028 -3.13582,-0.120963 -4.654152,0.08807 -1.362502,0.448464 -1.873701,2.075263 -1.632848,3.381216 0.228648,1.9496 -0.468007,4.06729 0.500111,5.88626 0.822566,1.38922 2.662495,1.38168 4.085717,1.32414 1.928483,-0.007 4.10344,-0.10137 5.59703,-1.52094 1.227627,-1.279115 2.565785,-2.47674 3.555314,-3.963428 -0.535269,-1.350893 -1.937411,-2.004695 -2.76159,-3.148198 -1.243152,-1.225684 -2.989716,-2.009043 -4.689582,-2.047115 z" />
    </g>
    <g id="g1242" inkscape:label="dpad_left" transform="matrix(3.8978512,0,0,3.8978512,12.219019,-332.96468)">
      <path style="opacity:1;fill:#2020df;fill-opacity:1;stroke:#ff7f27;stroke-width:0.8;stroke-linecap:butt;stroke-linejoin:miter;stroke-miterlimit:4;stroke-dasharray:none;stroke-opacity:1" d="m 41.420081,89.274115 c -1.752235,0.511811 -3.336295,2.077827 -3.394329,3.975342 -0.04666,1.336461 0.03215,2.674039 -0.01549,4.01121 0.01683,1.053076 -0.09399,2.128139 0.07308,3.166763 0.639018,1.9597 2.527907,3.67355 4.680311,3.50734 2.208717,-0.0205 4.532045,0.34082 6.628363,-0.54455 1.859009,-0.69651 3.07348,-2.33741 4.421605,-3.701408 0.642426,-0.746581 1.394591,-1.420763 1.918689,-2.257221 0.483324,-1.058772 -0.03559,-2.300947 -0.866455,-3.023896 -1.542883,-1.70631 -3.189271,-3.392052 -5.197486,-4.543877 -1.586541,-0.5935 -3.31284,-0.52004 -4.977471,-0.617474 -1.090368,-0.004 -2.180475,0.04179 -3.270817,0.02777 z" id="path1238" inkscape:label="dpad_bg" />
      <path style="fill:#ff7f27;fill-opacity:1;stroke:#ff7f27;stroke-width:0;stroke-linecap:butt;stroke-linejoin:miter;stroke-miterlimit:4;stroke-dasharray:none;stroke-opacity:1" d="m 41.759986,96.679225 c 0.841675,-0.598883 1.68335,-1.197767 2.525025,-1.79665 -0.01619,1.197768 -0.03237,2.395535 -0.04856,3.593303 -0.825488,-0.598884 -1.650977,-1.197769 -2.476465,-1.796653 z" id="path1240" inkscape:label="dpad_arrow" />
      <path id="path1028" style="opacity:1;fill:none;fill-opacity:1;stroke:#ff7f27;stroke-width:0.8;stroke-linecap:butt;stroke-linejoin:miter;stroke-miterlimit:4;stroke-dasharray:none;stroke-opacity:1" inkscape:label="dpad_outline" d="m 46.316406,91.302734 c -1.522658,0.108028 -3.13582,-0.120963 -4.654152,0.08807 -1.362502,0.448464 -1.873701,2.075263 -1.632848,3.381216 0.228648,1.9496 -0.468007,4.06729 0.500111,5.88626 0.822566,1.38922 2.662495,1.38168 4.085717,1.32414 1.928483,-0.007 4.10344,-0.10137 5.59703,-1.52094 1.227627,-1.279115 2.565785,-2.47674 3.555314,-3.963428 -0.535269,-1.350893 -1.937411,-2.004695 -2.76159,-3.148198 -1.243152,-1.225684 -2.989716,-2.009043 -4.689582,-2.047115 z" />
    </g>
    <g id="g1248" inkscape:label="dpad_down" transform="matrix(0,-3.8978512,3.8978512,0,-258.19105,226.67343)">
      <path style="opacity:1;fill:#2020df;fill-opacity:1;stroke:#ff7f27;stroke-width:0.8;stroke-linecap:butt;stroke-linejoin:miter;stroke-miterlimit:4;stroke-dasharray:none;stroke-opacity:1" d="m 41.420081,89.274115 c -1.752235,0.511811 -3.336295,2.077827 -3.394329,3.975342 -0.04666,1.336461 0.03215,2.674039 -0.01549,4.01121 0.01683,1.053076 -0.09399,2.128139 0.07308,3.166763 0.639018,1.9597 2.527907,3.67355 4.680311,3.50734 2.208717,-0.0205 4.532045,0.34082 6.628363,-0.54455 1.859009,-0.69651 3.07348,-2.33741 4.421605,-3.701408 0.642426,-0.746581 1.394591,-1.420763 1.918689,-2.257221 0.483324,-1.058772 -0.03559,-2.300947 -0.866455,-3.023896 -1.542883,-1.70631 -3.189271,-3.392052 -5.197486,-4.543877 -1.586541,-0.5935 -3.31284,-0.52004 -4.977471,-0.617474 -1.090368,-0.004 -2.180475,0.04179 -3.270817,0.02777 z" id="path1244" inkscape:label="dpad_bg" />
      <path style="fill:#ff7f27;fill-opacity:1;stroke:#ff7f27;stroke-width:0;stroke-linecap:butt;stroke-linejoin:miter;stroke-miterlimit:4;stroke-dasharray:none;stroke-opacity:1" d="m 41.759986,96.679225 c 0.841675,-0.598883 1.68335,-1.197767 2.525025,-1.79665 -0.01619,1.197768 -0.03237,2.395535 -0.04856,3.593303 -0.825488,-0.598884 -1.650977,-1.197769 -2.476465,-1.796653 z" id="path1246" inkscape:label="dpad_arrow" />
      <path id="path1030" style="opacity:1;fill:none;fill-opacity:1;stroke:#ff7f27;stroke-width:0.8;stroke-linecap:butt;stroke-linejoin:miter;stroke-miterlimit:4;stroke-dasharray:none;stroke-opacity:1" inkscape:label="dpad_outline" d="m 46.316406,91.302734 c -1.522658,0.108028 -3.13582,-0.120963 -4.654152,0.08807 -1.362502,0.448464 -1.873701,2.075263 -1.632848,3.381216 0.228648,1.9496 -0.468007,4.06729 0.500111,5.88626 0.822566,1.38922 2.662495,1.38168 4.085717,1.32414 1.928483,-0.007 4.10344,-0.10137 5.59703,-1.52094 1.227627,-1.279115 2.565785,-2.47674 3.555314,-3.963428 -0.535269,-1.350893 -1.937411,-2.004695 -2.76159,-3.148198 -1.243152,-1.225684 -2.989716,-2.009043 -4.689582,-2.047115 z" />
    </g>
    <g id="g1254" inkscape:label="dpad_up" transform="matrix(0,3.8978512,3.8978512,0,-328.804,-139.3726)">
      <path style="display:inline;opacity:1;fill:#2020df;fill-opacity:1;stroke:#ff7f27;stroke-width:0.8;stroke-linecap:butt;stroke-linejoin:miter;stroke-miterlimit:4;stroke-dasharray:none;stroke-opacity:1" d="m 41.420081,89.274115 c -1.752235,0.511811 -3.336295,2.077827 -3.394329,3.975342 -0.04666,1.336461 0.03215,2.674039 -0.01549,4.01121 0.01683,1.053076 -0.09399,2.128139 0.07308,3.166763 0.639018,1.9597 2.527907,3.67355 4.680311,3.50734 2.208717,-0.0205 4.532045,0.34082 6.628363,-0.54455 1.859009,-0.69651 3.07348,-2.33741 4.421605,-3.701408 0.642426,-0.746581 1.394591,-1.420763 1.918689,-2.257221 0.483324,-1.058772 -0.03559,-2.300947 -0.866455,-3.023896 -1.542883,-1.70631 -3.189271,-3.392052 -5.197486,-4.543877 -1.586541,-0.5935 -3.31284,-0.52004 -4.977471,-0.617474 -1.090368,-0.004 -2.180475,0.04179 -3.270817,0.02777 z" id="path1250" inkscape:label="dpad_bg" />
      <path style="fill:#ff7f27;fill-opacity:1;stroke:#ff7f27;stroke-width:0;stroke-linecap:butt;stroke-linejoin:miter;stroke-miterlimit:4;stroke-dasharray:none;stroke-opacity:1" d="m 41.759986,96.679225 c 0.841675,-0.598883 1.68335,-1.197767 2.525025,-1.79665 -0.01619,1.197768 -0.03237,2.395535 -0.04856,3.593303 -0.825488,-0.598884 -1.650977,-1.197769 -2.476465,-1.796653 z" id="path1252" inkscape:label="dpad_arrow" />
      <path id="path1032" style="display:inline;opacity:1;fill:none;fill-opacity:1;stroke:#ff7f27;stroke-width:0.8;stroke-linecap:butt;stroke-linejoin:miter;stroke-miterlimit:4;stroke-dasharray:none;stroke-opacity:1" inkscape:label="dpad_outline" d="m 46.316406,91.302734 c -1.522658,0.108028 -3.13582,-0.120963 -4.654152,0.08807 -1.362502,0.448464 -1.873701,2.075263 -1.632848,3.381216 0.228648,1.9496 -0.468007,4.06729 0.500111,5.88626 0.822566,1.38922 2.662495,1.38168 4.085717,1.32414 1.928483,-0.007 4.10344,-0.10137 5.59703,-1.52094 1.227627,-1.279115 2.565785,-2.47674 3.555314,-3.963428 -0.535269,-1.350893 -1.937411,-2.004695 -2.76159,-3.148198 -1.243152,-1.225684 -2.989716,-2.009043 -4.689582,-2.047115 z" />
    </g>
  </g>
  <g id="g1106" inkscape:label="normal" transform="translate(-7.5048464,2.8608699)">
    <g id="g1092" inkscape:label="dpad_right" transform="matrix(-3.8978512,0,0,3.8978512,461.28807,-332.96468)">
      <path style="opacity:1;fill:#2020df;fill-opacity:1;stroke:#ff7f27;stroke-width:0.8;stroke-linecap:butt;stroke-linejoin:miter;stroke-miterlimit:4;stroke-dasharray:none;stroke-opacity:0" d="m 41.420081,89.274115 c -1.752235,0.511811 -3.336295,2.077827 -3.394329,3.975342 -0.04666,1.336461 0.03215,2.674039 -0.01549,4.01121 0.01683,1.053076 -0.09399,2.128139 0.07308,3.166763 0.639018,1.9597 2.527907,3.67355 4.680311,3.50734 2.208717,-0.0205 4.532045,0.34082 6.628363,-0.54455 1.859009,-0.69651 3.07348,-2.33741 4.421605,-3.701408 0.642426,-0.746581 1.394591,-1.420763 1.918689,-2.257221 0.483324,-1.058772 -0.03559,-2.300947 -0.866455,-3.023896 -1.542883,-1.70631 -3.189271,-3.392052 -5.197486,-4.543877 -1.586541,-0.5935 -3.31284,-0.52004 -4.977471,-0.617474 -1.090368,-0.004 -2.180475,0.04179 -3.270817,0.02777 z" id="path1088" inkscape:label="dpad_bg" />
      <path style="fill:#666666;stroke:#666666;stroke-width:0;stroke-linecap:butt;stroke-linejoin:miter;stroke-miterlimit:4;stroke-dasharray:none;stroke-opacity:1" d="m 41.759986,96.679225 c 0.841675,-0.598883 1.68335,-1.197767 2.525025,-1.79665 -0.01619,1.197768 -0.03237,2.395535 -0.04856,3.593303 -0.825488,-0.598884 -1.650977,-1.197769 -2.476465,-1.796653 z" id="path1090" inkscape:label="dpad_arrow" />
      <path id="path1034" style="opacity:1;fill:none;fill-opacity:1;stroke:#666666;stroke-width:0.8;stroke-linecap:butt;stroke-linejoin:miter;stroke-miterlimit:4;stroke-dasharray:none;stroke-opacity:1" inkscape:label="dpad_outline" d="m 46.316406,91.302734 c -1.522658,0.108028 -3.13582,-0.120963 -4.654152,0.08807 -1.362502,0.448464 -1.873701,2.075263 -1.632848,3.381216 0.228648,1.9496 -0.468007,4.06729 0.500111,5.88626 0.822566,1.38922 2.662495,1.38168 4.085717,1.32414 1.928483,-0.007 4.10344,-0.10137 5.59703,-1.52094 1.227627,-1.279115 2.565785,-2.47674 3.555314,-3.963428 -0.535269,-1.350893 -1.937411,-2.004695 -2.76159,-3.148198 -1.243152,-1.225684 -2.989716,-2.009043 -4.689582,-2.047115 z" />
    </g>
    <g id="g1098" inkscape:label="dpad_left" transform="matrix(3.8978749,0,0,3.8978506,12.218221,-332.96462)">
      <path style="opacity:1;fill:#2020df;fill-opacity:1;stroke:#ff7f27;stroke-width:0.8;stroke-linecap:butt;stroke-linejoin:miter;stroke-miterlimit:4;stroke-dasharray:none;stroke-opacity:0" d="m 41.420081,89.274115 c -1.752235,0.511811 -3.336295,2.077827 -3.394329,3.975342 -0.04666,1.336461 0.03215,2.674039 -0.01549,4.01121 0.01683,1.053076 -0.09399,2.128139 0.07308,3.166763 0.639018,1.9597 2.527907,3.67355 4.680311,3.50734 2.208717,-0.0205 4.532045,0.34082 6.628363,-0.54455 1.859009,-0.69651 3.07348,-2.33741 4.421605,-3.701408 0.642426,-0.746581 1.394591,-1.420763 1.918689,-2.257221 0.483324,-1.058772 -0.03559,-2.300947 -0.866455,-3.023896 -1.542883,-1.70631 -3.189271,-3.392052 -5.197486,-4.543877 -1.586541,-0.5935 -3.31284,-0.52004 -4.977471,-0.617474 -1.090368,-0.004 -2.180475,0.04179 -3.270817,0.02777 z" id="path1094" inkscape:label="dpad_bg" />
      <path style="fill:#666666;stroke:#666666;stroke-width:0;stroke-linecap:butt;stroke-linejoin:miter;stroke-miterlimit:4;stroke-dasharray:none;stroke-opacity:1" d="m 41.759986,96.679225 c 0.841675,-0.598883 1.68335,-1.197767 2.525025,-1.79665 -0.01619,1.197768 -0.03237,2.395535 -0.04856,3.593303 -0.825488,-0.598884 -1.650977,-1.197769 -2.476465,-1.796653 z" id="path1096" inkscape:label="dpad_arrow" />
      <path id="path1036" style="opacity:1;fill:none;fill-opacity:1;stroke:#666666;stroke-width:0.8;stroke-linecap:butt;stroke-linejoin:miter;stroke-miterlimit:4;stroke-dasharray:none;stroke-opacity:1" inkscape:label="dpad_outline" d="m 46.316406,91.302734 c -1.522658,0.108028 -3.13582,-0.120963 -4.654152,0.08807 -1.362502,0.448464 -1.873701,2.075263 -1.632848,3.381216 0.237876,2.023482 -0.514918,4.203827 0.589735,6.03657 0.971837,1.33162 2.826918,1.21667 4.295864,1.1621 1.998982,0.0316 4.323299,-0.24448 5.680698,-1.9199 1.13781,-1.107374 2.277808,-2.232766 3.171875,-3.552738 -0.533366,-1.347764 -1.931399,-2.000286 -2.753749,-3.140415 -1.243739,-1.230276 -2.993958,-2.016703 -4.697423,-2.054898 z" />
    </g>
    <g id="g1086" inkscape:label="dpad_down" transform="matrix(0,-3.8978512,3.8978512,0,-258.19105,226.67343)">
      <path style="opacity:1;fill:#2020df;fill-opacity:1;stroke:#ff7f27;stroke-width:0.8;stroke-linecap:butt;stroke-linejoin:miter;stroke-miterlimit:4;stroke-dasharray:none;stroke-opacity:0" d="m 41.420081,89.274115 c -1.752235,0.511811 -3.336295,2.077827 -3.394329,3.975342 -0.04666,1.336461 0.03215,2.674039 -0.01549,4.01121 0.01683,1.053076 -0.09399,2.128139 0.07308,3.166763 0.639018,1.9597 2.527907,3.67355 4.680311,3.50734 2.208717,-0.0205 4.532045,0.34082 6.628363,-0.54455 1.859009,-0.69651 3.07348,-2.33741 4.421605,-3.701408 0.642426,-0.746581 1.394591,-1.420763 1.918689,-2.257221 0.483324,-1.058772 -0.03559,-2.300947 -0.866455,-3.023896 -1.542883,-1.70631 -3.189271,-3.392052 -5.197486,-4.543877 -1.586541,-0.5935 -3.31284,-0.52004 -4.977471,-0.617474 -1.090368,-0.004 -2.180475,0.04179 -3.270817,0.02777 z" id="path1082" inkscape:label="dpad_bg" />
      <path style="fill:#666666;stroke:#666666;stroke-width:0;stroke-linecap:butt;stroke-linejoin:miter;stroke-miterlimit:4;stroke-dasharray:none;stroke-opacity:1" d="m 41.759986,96.679225 c 0.841675,-0.598883 1.68335,-1.197767 2.525025,-1.79665 -0.01619,1.197768 -0.03237,2.395535 -0.04856,3.593303 -0.825488,-0.598884 -1.650977,-1.197769 -2.476465,-1.796653 z" id="path1084" inkscape:label="dpad_arrow" />
      <path id="path1038" style="opacity:1;fill:none;fill-opacity:1;stroke:#666666;stroke-width:0.8;stroke-linecap:butt;stroke-linejoin:miter;stroke-miterlimit:4;stroke-dasharray:none;stroke-opacity:1" inkscape:label="dpad_outline" d="m 46.316406,91.302734 c -1.522658,0.108028 -3.13582,-0.120963 -4.654152,0.08807 -1.362502,0.448464 -1.873701,2.075263 -1.632848,3.381216 0.228648,1.9496 -0.468007,4.06729 0.500111,5.88626 0.822566,1.38922 2.662495,1.38168 4.085717,1.32414 1.928483,-0.007 4.10344,-0.10137 5.59703,-1.52094 1.227627,-1.279115 2.565785,-2.47674 3.555314,-3.963428 -0.535269,-1.350893 -1.937411,-2.004695 -2.76159,-3.148198 -1.243152,-1.225684 -2.989716,-2.009043 -4.689582,-2.047115 z" />
    </g>
    <g id="g1104" inkscape:label="dpad_up" transform="matrix(0,3.8978512,3.8978512,0,-328.804,-139.3726)">
      <path style="display:inline;opacity:1;fill:#2020df;fill-opacity:1;stroke:#ff7f27;stroke-width:0.8;stroke-linecap:butt;stroke-linejoin:miter;stroke-miterlimit:4;stroke-dasharray:none;stroke-opacity:0" d="m 41.420081,89.274115 c -1.752235,0.511811 -3.336295,2.077827 -3.394329,3.975342 -0.04666,1.336461 0.03215,2.674039 -0.01549,4.01121 0.01683,1.053076 -0.09399,2.128139 0.07308,3.166763 0.639018,1.9597 2.527907,3.67355 4.680311,3.50734 2.208717,-0.0205 4.532045,0.34082 6.628363,-0.54455 1.859009,-0.69651 3.07348,-2.33741 4.421605,-3.701408 0.642426,-0.746581 1.394591,-1.420763 1.918689,-2.257221 0.483324,-1.058772 -0.03559,-2.300947 -0.866455,-3.023896 -1.542883,-1.70631 -3.189271,-3.392052 -5.197486,-4.543877 -1.586541,-0.5935 -3.31284,-0.52004 -4.977471,-0.617474 -1.090368,-0.004 -2.180475,0.04179 -3.270817,0.02777 z" id="path1100" inkscape:label="dpad_bg" />
      <path style="fill:#666666;stroke:#666666;stroke-width:0;stroke-linecap:butt;stroke-linejoin:miter;stroke-miterlimit:4;stroke-dasharray:none;stroke-opacity:1" d="m 41.759986,96.679225 c 0.841675,-0.598883 1.68335,-1.197767 2.525025,-1.79665 -0.01619,1.197768 -0.03237,2.395535 -0.04856,3.593303 -0.825488,-0.598884 -1.650977,-1.197769 -2.476465,-1.796653 z" id="path1102" inkscape:label="dpad_arrow" />
      <path id="path1040" style="display:inline;opacity:1;fill:none;fill-opacity:1;stroke:#666666;stroke-width:0.8;stroke-linecap:butt;stroke-linejoin:miter;stroke-miterlimit:4;stroke-dasharray:none;stroke-opacity:1" inkscape:label="dpad_outline" d="m 46.316406,91.302734 c -1.522658,0.108028 -3.13582,-0.120963 -4.654152,0.08807 -1.362502,0.448464 -1.873701,2.075263 -1.632848,3.381216 0.228648,1.9496 -0.468007,4.06729 0.500111,5.88626 0.822566,1.38922 2.662495,1.38168 4.085717,1.32414 1.928483,-0.007 4.10344,-0.10137 5.59703,-1.52094 1.227627,-1.279115 2.565785,-2.47674 3.555314,-3.963428 -0.535269,-1.350893 -1.937411,-2.004695 -2.76159,-3.148198 -1.243152,-1.225684 -2.989716,-2.009043 -4.689582,-2.047115 z" />
    </g>
  </g>
</svg>
