<?xml version="1.0" encoding="UTF-8" standalone="no"?>
<!-- Created with Inkscape (http://www.inkscape.org/) -->

<svg width="422.07492mm" height="468.27496mm" viewBox="0 0 422.07492 468.27496" version="1.1" id="svg5" inkscape:label="quad_bg" inkscape:version="1.1.2 (b8e25be833, 2022-02-05)" sodipodi:docname="touchpad.svg" xmlns:inkscape="http://www.inkscape.org/namespaces/inkscape" xmlns:sodipodi="http://sodipodi.sourceforge.net/DTD/sodipodi-0.dtd" xmlns="http://www.w3.org/2000/svg" xmlns:svg="http://www.w3.org/2000/svg" xmlns:rdf="http://www.w3.org/1999/02/22-rdf-syntax-ns#" xmlns:cc="http://creativecommons.org/ns#" xmlns:dc="http://purl.org/dc/elements/1.1/">
  <title id="title63815">PS5 DualSense Controller</title>
  <sodipodi:namedview id="namedview7" pagecolor="#ffffff" bordercolor="#666666" borderopacity="1.0" inkscape:pageshadow="2" inkscape:pageopacity="0.0" inkscape:pagecheckerboard="true" inkscape:document-units="mm" showgrid="false" fit-margin-top="10" fit-margin-left="10" fit-margin-right="10" fit-margin-bottom="10" inkscape:zoom="0.62218128" inkscape:cx="721.65463" inkscape:cy="1161.2371" inkscape:window-width="1833" inkscape:window-height="964" inkscape:window-x="1954" inkscape:window-y="19" inkscape:window-maximized="0" inkscape:current-layer="g1054" inkscape:showpageshadow="false" />
  <defs id="defs2">
    <linearGradient id="linearGradient8705" inkscape:swatch="solid">
      <stop style="stop-color:#0000ff;stop-opacity:1;" offset="0" id="stop8703" />
    </linearGradient>
    <linearGradient id="linearGradient8655" inkscape:swatch="solid">
      <stop style="stop-color:#0000ff;stop-opacity:1;" offset="0" id="stop8653" />
    </linearGradient>
    <linearGradient id="linearGradient8629" inkscape:swatch="solid">
      <stop style="stop-color:#0000ff;stop-opacity:1;" offset="0" id="stop8627" />
    </linearGradient>
    <linearGradient id="linearGradient8541" inkscape:swatch="solid">
      <stop style="stop-color:#000000;stop-opacity:1;" offset="0" id="stop8539" />
    </linearGradient>
    <linearGradient id="linearGradient3771">
      <stop style="stop-color:#d1d1d1;stop-opacity:1;" offset="0" id="stop3773" />
      <stop style="stop-color:#b2b2b2;stop-opacity:0;" offset="1" id="stop3775" />
    </linearGradient>
  </defs>
  <style type="text/css" id="style2">
	.st0{fill:#61E0DF;}
	.st1{fill:#3ED8D2;}
</style>
  <style type="text/css" id="style2-5">
	.st0{fill:#3ED8D2;}
	.st1{fill:#61E0DF;}
	.st2{opacity:8.000000e-002;}
</style>
  <metadata id="metadata63811">
    <rdf:RDF>
      <cc:Work rdf:about="">
        <cc:license rdf:resource="http://creativecommons.org/licenses/by-nc-sa/4.0/" />
        <dc:title>PS5 DualSense Controller</dc:title>
        <dc:date>2024-03-14</dc:date>
        <dc:creator>
          <cc:Agent>
            <dc:title>Robin Christopher Ladiges</dc:title>
          </cc:Agent>
        </dc:creator>
        <dc:source>https://rcl.blackpinguin.de/</dc:source>
      </cc:Work>
      <cc:License rdf:about="http://creativecommons.org/licenses/by-nc-sa/4.0/">
        <cc:permits rdf:resource="http://creativecommons.org/ns#Reproduction" />
        <cc:permits rdf:resource="http://creativecommons.org/ns#Distribution" />
        <cc:requires rdf:resource="http://creativecommons.org/ns#Notice" />
        <cc:requires rdf:resource="http://creativecommons.org/ns#Attribution" />
        <cc:prohibits rdf:resource="http://creativecommons.org/ns#CommercialUse" />
        <cc:permits rdf:resource="http://creativecommons.org/ns#DerivativeWorks" />
        <cc:requires rdf:resource="http://creativecommons.org/ns#ShareAlike" />
      </cc:License>
    </rdf:RDF>
  </metadata>
  <g id="g1054" inkscape:label="pressed">
    <path id="path833" style="display:inline;fill:#ff7f27;fill-opacity:1;stroke:#993e00;stroke-width:1.03131px;stroke-linecap:butt;stroke-linejoin:miter;stroke-opacity:1" inkscape:label="touchpad_pressed" d="m 211.33761,239.65707 c -61.35775,0.0468 -122.629057,4.19508 -183.669237,10.17811 -18.6944285,9.18138 -20.0018585,29.01836 -13.861568,46.8841 9.157828,42.68534 17.760638,85.53968 28.006828,127.97108 6.95682,20.07373 27.3442,34.75693 48.84841,32.91224 82.426657,-0.55132 164.872917,0.51744 247.302917,-0.0156 25.19107,-1.58896 43.62986,-24.38716 46.61815,-48.34588 8.55449,-46.30611 21.34214,-91.94258 26.89026,-138.73492 1.36943,-11.80321 -13.97501,-20.00436 -21.58669,-21.81669 -55.7786,-5.24244 -111.84089,-7.2066 -167.82822,-8.93246 -3.57336,-0.0545 -7.14714,-0.0897 -10.72085,-0.10192 z" />
    <path style="display:inline;fill:#cc5200;fill-opacity:1;stroke:none;stroke-width:0.15" d="m 211.03747,274.44462 c -17.07282,0 -32.81124,5.70697 -45.41718,15.31406 l 11.89688,6.87188 -3.00002,5.19374 -13.81406,-7.97812 c -0.48814,0.44219 -0.96742,0.89058 -1.44375,1.34531 l 16.97343,9.80157 -3,5.19844 -18.27186,-10.55157 c -11.77309,13.24497 -18.92344,30.68944 -18.92344,49.80469 0,26.23017 13.46724,49.31394 33.8625,62.71875 l 43.49062,-75.32343 -28.66406,-16.55157 3.94219,-6.825 -2.6625,-1.5375 6,-10.39219 31.32657,18.08438 8.52655,-14.77032 46.6875,26.95783 -52.63125,91.16248 c 34.29493,-6.90136 60.12188,-37.19557 60.12188,-73.52343 0,-41.42135 -33.57864,-75 -75,-75 z m -39.81563,48.69845 c 0.19304,-0.005 0.3829,0.002 0.57188,0.0187 1.51186,0.1329 3.69669,1.02273 6.55312,2.67187 l 1.42033,0.82031 -5.01095,8.68125 -2.66718,-1.5375 c -1.24322,-0.71774 -2.09547,-1.06607 -2.56407,-1.04063 -0.46856,0.0255 -0.85403,0.29765 -1.15313,0.81563 -0.32467,0.56244 -0.33903,1.11997 -0.047,1.67344 0.2922,0.55352 0.90512,1.10232 1.8375,1.64063 1.19885,0.69216 2.19117,1.04872 2.98595,1.07343 0.78627,0.0396 2.03076,-0.41859 3.72655,-1.37343 4.87278,-2.73185 8.4098,-4.17918 10.6172,-4.34532 2.2074,-0.16608 5.07441,0.76947 8.59687,2.80312 2.56044,1.4783 4.27463,2.86713 5.14218,4.1672 0.86755,1.30011 1.21511,3.04488 1.04532,5.23593 -0.16981,2.19109 -0.91065,4.4239 -2.22657,6.70312 -1.44409,2.50125 -3.15042,4.36577 -5.11875,5.5875 -1.96832,1.22177 -3.84361,1.68116 -5.625,1.38282 -1.78136,-0.29833 -4.01884,-1.22451 -6.71249,-2.77969 l -2.35313,-1.35938 5.01095,-8.68125 4.37343,2.52657 c 1.34681,0.7776 2.28202,1.15643 2.80781,1.13438 0.5258,-0.0221 0.96767,-0.34401 1.32656,-0.96563 0.35889,-0.6216 0.38355,-1.22398 0.0703,-1.80937 -0.31324,-0.58538 -0.95049,-1.15551 -1.9125,-1.71095 -2.11644,-1.2219 -3.66553,-1.73401 -4.65,-1.5328 -0.993,0.21604 -2.92308,1.04556 -5.78907,2.48905 -2.88075,1.43499 -4.88733,2.32808 -6.01875,2.68125 -1.13137,0.35322 -2.45562,0.42438 -3.9703,0.21095 -1.51466,-0.21342 -3.22826,-0.87113 -5.1375,-1.97345 -2.75282,-1.58934 -4.56117,-3.10429 -5.42813,-4.54218 -0.86691,-1.43785 -1.20511,-3.14953 -1.01719,-5.13282 0.18798,-1.98322 0.92142,-4.08462 2.20312,-6.30468 1.4014,-2.42721 2.98649,-4.26529 4.75781,-5.52187 1.54996,-1.09945 3.00346,-1.67052 4.35469,-1.70626 z m 53.15157,14.84998 c -0.51436,0.002 -1.04035,0.0537 -1.57501,0.15938 -1.42571,0.28198 -2.80605,1.09984 -4.13906,2.45157 -1.33296,1.3518 -3.30001,4.2844 -5.90625,8.79843 l -4.04062,6.99376 35.94375,20.75156 6.80625,-11.78907 c 1.29029,-2.23481 2.13458,-3.98022 2.53125,-5.23124 0.39666,-1.251 0.50654,-2.42962 0.32813,-3.53907 -0.17843,-1.1094 -0.728,-2.12946 -1.64063,-3.06094 -0.91266,-0.93143 -2.97981,-2.32779 -6.20625,-4.19061 l -12.58594,-7.26564 c -3.40404,-1.96529 -5.74977,-3.18326 -7.03124,-3.64686 -0.80089,-0.28971 -1.62711,-0.43274 -2.48438,-0.43127 z m -65.77032,8.91095 c 0.85727,-10e-4 1.68817,0.14625 2.48906,0.43593 1.28146,0.46362 3.62253,1.67691 7.02657,3.64219 l 12.59062,7.26563 c 3.22644,1.86282 5.2936,3.2592 6.20625,4.19062 0.91264,0.93149 1.45751,1.95623 1.63593,3.06563 0.17841,1.10944 0.0686,2.28807 -0.32812,3.53905 -0.39668,1.25105 -1.23629,2.99175 -2.52656,5.22657 l -6.80625,11.78907 -35.94375,-20.75157 4.03593,-6.99375 c 2.60624,-4.51404 4.57799,-7.44663 5.91095,-8.79843 1.333,-1.35174 2.71336,-2.1649 4.13907,-2.44689 0.53464,-0.10575 1.05594,-0.16317 1.5703,-0.16405 z m 63.92813,1.5703 c 0.0374,-0.001 0.0747,-5.5e-4 0.1125,0 0.18177,0.003 0.36802,0.0379 0.5625,0.0984 0.51864,0.16133 1.59231,0.71009 3.2203,1.65 l 13.96407,8.0625 c 2.39765,1.38431 3.77829,2.38671 4.13906,3.00938 0.36076,0.62271 0.1494,1.61101 -0.62811,2.95782 l -23.64377,-13.6547 c 0.58964,-1.02118 1.09994,-1.65229 1.52814,-1.89843 0.2342,-0.13455 0.48372,-0.21181 0.74531,-0.225 z m -65.65781,8.91564 c -0.30295,-0.005 -0.58548,0.0665 -0.85312,0.22031 -0.42822,0.24613 -0.93851,0.88194 -1.52813,1.90312 l 23.64374,13.65 c 0.7776,-1.3468 0.98421,-2.33041 0.62344,-2.95312 -0.36076,-0.62268 -1.73673,-1.62977 -4.13437,-3.01406 l -13.96407,-8.05782 c -1.628,-0.93991 -2.70166,-1.49337 -3.22031,-1.65468 -0.19447,-0.0605 -0.38541,-0.0906 -0.56718,-0.0937 z m 52.91251,4.65 c -0.44076,0.006 -0.88045,0.06 -1.3125,0.15468 -1.15214,0.25247 -2.32091,0.94767 -3.51095,2.08593 -1.18998,1.13835 -2.51931,2.97629 -3.98905,5.52189 l -5.43752,9.41718 35.94375,20.75157 5.39532,-9.34687 -14.475,-8.35782 1.44845,-2.50782 c 1.17919,-2.0424 1.85212,-3.86141 2.0203,-5.45156 0.16819,-1.59009 -0.132,-2.92279 -0.90937,-4.00312 -0.77738,-1.08027 -2.31377,-2.28488 -4.60781,-3.60938 l -3.13125,-1.80468 c -2.24962,-1.29879 -3.97973,-2.13717 -5.19376,-2.5125 -0.75873,-0.23454 -1.50603,-0.34813 -2.24061,-0.3375 z m -0.39845,9.25311 c 0.57809,-0.005 1.36911,0.2816 2.3672,0.85782 l 2.95312,1.70625 c 1.33203,0.76907 2.10952,1.43912 2.33905,2.01563 0.22956,0.57655 0.0972,1.29786 -0.39843,2.15625 -0.111,0.19243 -0.24856,0.41716 -0.41719,0.675 l -9.15,-5.28281 c 0.70071,-1.21359 1.34847,-1.90536 1.94062,-2.07657 0.11101,-0.0321 0.23222,-0.0504 0.36563,-0.0516 z" id="path1048" inkscape:label="dspd_pressed" />
  </g>
  <g id="g1046" inkscape:label="normal" sodipodi:insensitive="true">
    <path id="path6056" style="display:inline;fill:#80ffff;fill-opacity:1;stroke:#009999;stroke-width:1.03131px;stroke-linecap:butt;stroke-linejoin:miter;stroke-opacity:1" inkscape:label="touchpad_normal" d="m 211.33761,10.519361 c -61.35775,0.0468 -122.629055,4.19508 -183.669235,10.17811 -18.6944291,9.18138 -20.0018591,29.01836 -13.861569,46.8841 9.157829,42.685339 17.760639,85.539679 28.006829,127.971079 6.95682,20.07373 27.3442,34.75693 48.84841,32.91224 82.426655,-0.55132 164.872915,0.51744 247.302915,-0.0156 25.19107,-1.58896 43.62986,-24.38716 46.61815,-48.34588 8.55449,-46.30611 21.34214,-91.942579 26.89026,-138.734919 1.36943,-11.80321 -13.97501,-20.00436 -21.58669,-21.81669 -55.7786,-5.24244 -111.84089,-7.2066 -167.82822,-8.93246 -3.57336,-0.0545 -7.14714,-0.0897 -10.72085,-0.10192 z" />
    <path style="display:inline;fill:#60c0ff;fill-opacity:1;stroke:none;stroke-width:0.15" d="m 211.03747,45.306909 c -17.07282,0 -32.81124,5.706976 -45.41718,15.314062 l 11.89688,6.871875 -3.00002,5.193749 -13.81406,-7.978124 c -0.48814,0.442187 -0.96742,0.890583 -1.44375,1.345313 l 16.97343,9.801561 -3,5.198442 -18.27186,-10.551567 c -11.77309,13.244967 -18.92344,30.68944 -18.92344,49.80469 0,26.23017 13.46724,49.31394 33.8625,62.71875 l 43.49062,-75.32343 -28.66406,-16.551573 3.94219,-6.825 -2.6625,-1.5375 6,-10.392187 31.32657,18.084377 8.52655,-14.770315 46.6875,26.957828 -52.63125,91.16248 c 34.29493,-6.90136 60.12188,-37.19557 60.12188,-73.52343 0,-41.421353 -33.57864,-75.000001 -75,-75.000001 z m -39.81563,48.698448 c 0.19304,-0.005 0.3829,0.002 0.57188,0.0187 1.51186,0.1329 3.69669,1.02273 6.55312,2.67187 l 1.42033,0.82031 -5.01095,8.681253 -2.66718,-1.5375 c -1.24322,-0.71774 -2.09547,-1.06607 -2.56407,-1.04063 -0.46856,0.0255 -0.85403,0.29765 -1.15313,0.81563 -0.32467,0.56244 -0.33903,1.11997 -0.047,1.67344 0.2922,0.55352 0.90512,1.10232 1.8375,1.64063 1.19885,0.69216 2.19117,1.04872 2.98595,1.07343 0.78627,0.0396 2.03076,-0.41859 3.72655,-1.37343 4.87278,-2.73185 8.4098,-4.17918 10.6172,-4.34532 2.2074,-0.16608 5.07441,0.76947 8.59687,2.80312 2.56044,1.4783 4.27463,2.86713 5.14218,4.1672 0.86755,1.30011 1.21511,3.04488 1.04532,5.23593 -0.16981,2.19109 -0.91065,4.4239 -2.22657,6.70312 -1.44409,2.50125 -3.15042,4.36577 -5.11875,5.5875 -1.96832,1.22177 -3.84361,1.68116 -5.625,1.38282 -1.78136,-0.29833 -4.01884,-1.22451 -6.71249,-2.77969 l -2.35313,-1.35938 5.01095,-8.68125 4.37343,2.52657 c 1.34681,0.7776 2.28202,1.15643 2.80781,1.13438 0.5258,-0.0221 0.96767,-0.34401 1.32656,-0.96563 0.35889,-0.6216 0.38355,-1.22398 0.0703,-1.80937 -0.31324,-0.58538 -0.95049,-1.15551 -1.9125,-1.71095 -2.11644,-1.2219 -3.66553,-1.73401 -4.65,-1.5328 -0.993,0.21604 -2.92308,1.04556 -5.78907,2.48905 -2.88075,1.43499 -4.88733,2.32808 -6.01875,2.68125 -1.13137,0.35322 -2.45562,0.42438 -3.9703,0.21095 -1.51466,-0.21342 -3.22826,-0.87113 -5.1375,-1.97345 -2.75282,-1.58934 -4.56117,-3.10429 -5.42813,-4.54218 -0.86691,-1.43785 -1.20511,-3.14953 -1.01719,-5.13282 0.18798,-1.98322 0.92142,-4.08462 2.20312,-6.30468 1.4014,-2.427213 2.98649,-4.265293 4.75781,-5.521873 1.54996,-1.09945 3.00346,-1.67052 4.35469,-1.70626 z m 53.15157,14.849983 c -0.51436,0.002 -1.04035,0.0537 -1.57501,0.15938 -1.42571,0.28198 -2.80605,1.09984 -4.13906,2.45157 -1.33296,1.3518 -3.30001,4.2844 -5.90625,8.79843 l -4.04062,6.99376 35.94375,20.75156 6.80625,-11.78907 c 1.29029,-2.23481 2.13458,-3.98022 2.53125,-5.23124 0.39666,-1.251 0.50654,-2.42962 0.32813,-3.53907 -0.17843,-1.1094 -0.728,-2.12946 -1.64063,-3.06094 -0.91266,-0.93143 -2.97981,-2.32779 -6.20625,-4.19061 l -12.58594,-7.26564 c -3.40404,-1.96529 -5.74977,-3.18326 -7.03124,-3.64686 -0.80089,-0.28971 -1.62711,-0.43274 -2.48438,-0.43127 z m -65.77032,8.91095 c 0.85727,-0.001 1.68817,0.14625 2.48906,0.43593 1.28146,0.46362 3.62253,1.67691 7.02657,3.64219 l 12.59062,7.26563 c 3.22644,1.86282 5.2936,3.2592 6.20625,4.19062 0.91264,0.93149 1.45751,1.95623 1.63593,3.06563 0.17841,1.10944 0.0686,2.28807 -0.32812,3.53905 -0.39668,1.25105 -1.23629,2.99175 -2.52656,5.22657 l -6.80625,11.78907 -35.94375,-20.75157 4.03593,-6.99375 c 2.60624,-4.51404 4.57799,-7.44663 5.91095,-8.79843 1.333,-1.35174 2.71336,-2.1649 4.13907,-2.44689 0.53464,-0.10575 1.05594,-0.16317 1.5703,-0.16405 z m 63.92813,1.5703 c 0.0374,-0.001 0.0747,-5.5e-4 0.1125,0 0.18177,0.003 0.36802,0.0379 0.5625,0.0984 0.51864,0.16133 1.59231,0.71009 3.2203,1.65 l 13.96407,8.0625 c 2.39765,1.38431 3.77829,2.38671 4.13906,3.00938 0.36076,0.62271 0.1494,1.61101 -0.62811,2.95782 l -23.64377,-13.6547 c 0.58964,-1.02118 1.09994,-1.65229 1.52814,-1.89843 0.2342,-0.13455 0.48372,-0.21181 0.74531,-0.225 z m -65.65781,8.91564 c -0.30295,-0.005 -0.58548,0.0665 -0.85312,0.22031 -0.42822,0.24613 -0.93851,0.88194 -1.52813,1.90312 l 23.64374,13.65 c 0.7776,-1.3468 0.98421,-2.33041 0.62344,-2.95312 -0.36076,-0.62268 -1.73673,-1.62977 -4.13437,-3.01406 l -13.96407,-8.05782 c -1.628,-0.93991 -2.70166,-1.49337 -3.22031,-1.65468 -0.19447,-0.0605 -0.38541,-0.0906 -0.56718,-0.0937 z m 52.91251,4.65 c -0.44076,0.006 -0.88045,0.06 -1.3125,0.15468 -1.15214,0.25247 -2.32091,0.94767 -3.51095,2.08593 -1.18998,1.13835 -2.51931,2.97629 -3.98905,5.52189 l -5.43752,9.41718 35.94375,20.75157 5.39532,-9.34687 -14.475,-8.35782 1.44845,-2.50782 c 1.17919,-2.0424 1.85212,-3.86141 2.0203,-5.45156 0.16819,-1.59009 -0.132,-2.92279 -0.90937,-4.00312 -0.77738,-1.08027 -2.31377,-2.28488 -4.60781,-3.60938 l -3.13125,-1.80468 c -2.24962,-1.29879 -3.97973,-2.13717 -5.19376,-2.5125 -0.75873,-0.23454 -1.50603,-0.34813 -2.24061,-0.3375 z m -0.39845,9.25311 c 0.57809,-0.005 1.36911,0.2816 2.3672,0.85782 l 2.95312,1.70625 c 1.33203,0.76907 2.10952,1.43912 2.33905,2.01563 0.22956,0.57655 0.0972,1.29786 -0.39843,2.15625 -0.111,0.19243 -0.24856,0.41716 -0.41719,0.675 l -9.15,-5.28281 c 0.70071,-1.21359 1.34847,-1.90536 1.94062,-2.07657 0.11101,-0.0321 0.23222,-0.0504 0.36563,-0.0516 z" id="path2993" inkscape:label="dspd_normal" />
  </g>
</svg>
