<?xml version="1.0" encoding="UTF-8" standalone="no"?>
<svg enable-background="new 0 0 570.791 192.118" viewBox="0 0 6.3880399 6.387438" version="1.1" id="svg179" sodipodi:docname="gba.svg" width="6.3880401" height="6.3874378" inkscape:version="1.1.2 (b8e25be833, 2022-02-05)" xmlns:inkscape="http://www.inkscape.org/namespaces/inkscape" xmlns:sodipodi="http://sodipodi.sourceforge.net/DTD/sodipodi-0.dtd" xmlns="http://www.w3.org/2000/svg" xmlns:svg="http://www.w3.org/2000/svg" xmlns:rdf="http://www.w3.org/1999/02/22-rdf-syntax-ns#" xmlns:cc="http://creativecommons.org/ns#" xmlns:dc="http://purl.org/dc/elements/1.1/">
  <metadata id="metadata185">
    <rdf:RDF>
      <cc:Work rdf:about="">
        <dc:format>image/svg+xml</dc:format>
        <dc:type rdf:resource="http://purl.org/dc/dcmitype/StillImage" />
      </cc:Work>
    </rdf:RDF>
  </metadata>
  <defs id="defs183" />
  <sodipodi:namedview pagecolor="#ffffff" bordercolor="#666666" borderopacity="1" objecttolerance="10" gridtolerance="10" guidetolerance="10" inkscape:pageopacity="0" inkscape:pageshadow="2" inkscape:window-width="1654" inkscape:window-height="1001" id="namedview181" showgrid="false" fit-margin-top="0" fit-margin-left="0" fit-margin-right="0" fit-margin-bottom="0" inkscape:zoom="9.0089622" inkscape:cx="-29.803655" inkscape:cy="6.1050317" inkscape:window-x="2075" inkscape:window-y="11" inkscape:window-maximized="0" inkscape:current-layer="svg179" inkscape:pagecheckerboard="0" />
  <linearGradient id="a" gradientUnits="userSpaceOnUse" x1="167.8232" x2="167.8232" y1="192.1181" y2="0" gradientTransform="matrix(0.29757469,0,0,0.29757469,1.2821567e-4,0)">
    <stop offset="0" stop-color="#493575" id="stop2" />
    <stop offset="1" stop-color="#4d407b" id="stop4" />
  </linearGradient>
  <path d="m 6.38804,3.193572 c 0,1.764318 -1.43044,3.193866 -3.19417,3.193866 -1.76402,0 -3.19387,-1.429846 -3.19387,-3.193866 0,-1.764023 1.42955,-3.193571953739934 3.19387,-3.193571953739934 1.76402,-2.97000000066e-4 3.19417,1.429548953739934 3.19417,3.193571953739934 z" id="path29" inkscape:connector-curvature="0" style="fill:#ffcccc;fill-opacity:1;stroke-width:0.297575" />
  <path d="m 1.7145,5.315277 v -3.075136 h 0.81386 c 0.47463,0 0.84571,0.176164 0.84571,0.795417 0,0.270793 -0.0857,0.512722 -0.30353,0.64782 v 0.008 c 0.28568,0.188662 0.34638,0.352626 0.34638,0.734117 0,0.62312 -0.3071,0.889747 -0.81744,0.889747 z m 0.62847,-1.865495 c 0.27496,-0.02053 0.40322,0 0.40322,-0.364826 0,-0.303526 -0.18212,-0.291326 -0.40322,-0.291326 z m 0,1.312007 c 0.31424,-0.008 0.44607,0.01637 0.44607,-0.39756 0,-0.356792 -0.17855,-0.34846 -0.44607,-0.36066 z" id="path141" inkscape:connector-curvature="0" style="fill:#ff9999;fill-opacity:1;stroke-width:0.297575" />
</svg>
