<?xml version="1.0" encoding="UTF-8" standalone="no"?>
<svg enable-background="new 0 0 570.791 192.118" viewBox="0 0 99.999997 57.169454" version="1.1" id="svg179" sodipodi:docname="base.svg" width="100" height="57.169453" inkscape:version="1.1.2 (b8e25be833, 2022-02-05)" xmlns:inkscape="http://www.inkscape.org/namespaces/inkscape" xmlns:sodipodi="http://sodipodi.sourceforge.net/DTD/sodipodi-0.dtd" xmlns="http://www.w3.org/2000/svg" xmlns:svg="http://www.w3.org/2000/svg" xmlns:rdf="http://www.w3.org/1999/02/22-rdf-syntax-ns#" xmlns:cc="http://creativecommons.org/ns#" xmlns:dc="http://purl.org/dc/elements/1.1/">
  <metadata id="metadata185">
    <rdf:RDF>
      <cc:Work rdf:about="">
        <dc:format>image/svg+xml</dc:format>
        <dc:type rdf:resource="http://purl.org/dc/dcmitype/StillImage" />
      </cc:Work>
    </rdf:RDF>
  </metadata>
  <defs id="defs183" />
  <sodipodi:namedview pagecolor="#ffffff" bordercolor="#666666" borderopacity="1" objecttolerance="10" gridtolerance="10" guidetolerance="10" inkscape:pageopacity="0" inkscape:pageshadow="2" inkscape:window-width="1654" inkscape:window-height="1001" id="namedview181" showgrid="false" fit-margin-top="0" fit-margin-left="0" fit-margin-right="0" fit-margin-bottom="0" inkscape:zoom="33.121185" inkscape:cx="95.029814" inkscape:cy="7.6688078" inkscape:window-x="2080" inkscape:window-y="11" inkscape:window-maximized="0" inkscape:current-layer="svg179" inkscape:pagecheckerboard="0" />
  <linearGradient id="a" gradientUnits="userSpaceOnUse" x1="167.8232" x2="167.8232" y1="192.1181" y2="0" gradientTransform="matrix(0.29757469,0,0,0.29757469,1.2821567e-4,0)">
    <stop offset="0" stop-color="#493575" id="stop2" />
    <stop offset="1" stop-color="#4d407b" id="stop4" />
  </linearGradient>
  <path d="m 96.124272,9.458545 1.1394,-0.552295 c 0,0 -1.93065,-4.38443 -5.66042,-5.281909 -3.72977,-0.897478 -15.22558,-1.967845 -15.22558,-1.967845 z" fill="#c4c4c3" id="path11-9" style="stroke-width:0.297572;fill:#cccccc" />
  <path d="m 3.8754381,9.458545 -1.13911,-0.552295 c 0,0 1.93035,-4.38443 5.66012,-5.281909 3.7297699,-0.897478 15.2255899,-1.967845 15.2255899,-1.967845 z" fill="#c4c4c3" id="path7-2" style="fill:#cccccc;stroke-width:0.297572" />
  <path d="m 3.8322982,11.495905 -1.57953,0.284779 c 0,0 -2.74452998,19.858942 -2.17496998,29.956837 0.10356,5.23018 4.94538998,7.61197 5.25635998,7.63815 0.31037,0.0259 1.29445,-0.15503 2.17468,-0.80256 -0.38834,-0.36274 -3.67654,-37.077206 -3.67654,-37.077206 z" id="path9" inkscape:connector-curvature="0" style="fill:#cccccc;stroke-width:0.2975747" />
  <path d="m 96.167638,11.495905 1.57923,0.284779 c 0,0 2.745132,19.858942 2.17527,29.956837 -0.10385,5.23018 -4.94509,7.61197 -5.25606,7.63815 -0.31067,0.0259 -1.29475,-0.15503 -2.17497,-0.80256 0.38804,-0.36274 3.67653,-37.077206 3.67653,-37.077206 z" id="path13" inkscape:connector-curvature="0" style="fill:#cccccc;stroke-width:0.2975747" />
  <path d="m 50.545278,57.169451 c 8.13004,0 20.60972,-1.70927 23.14744,-2.12379 2.53742,-0.41422 6.31751,-3.00372 8.75137,-3.31409 2.43387,-0.31096 8.85493,-2.01964 11.65095,-3.15875 2.79631,-1.13912 4.83499,-3.90984 4.81594,-7.19804 -0.0235,-4.14283 0.0842,-13.735451 -2.35619,-31.574754 -0.1476,-1.079899 -1.07752,-2.845409 -3.39146,-3.102811 -2.71864,-0.302039 -6.17944,-1.035263 -9.83871,-2.381788 -4.6261,-1.795268 -7.14656,-4.315428 -10.87487,-4.315428 h -45.01948 c -3.72831,0 -6.24817,2.52016 -10.87427,4.31513 -3.65928,1.346526 -7.1203698,2.080047 -9.8390098,2.381788 -2.31424,0.257402 -3.24416,2.022913 -3.39176,3.102811 -2.44010998,17.839303 -2.33238998,27.432222 -2.35618998,31.574752 -0.019,3.2885 2.01963998,6.05892 4.81594998,7.19804 2.7963,1.13911 9.2173698,2.84779 11.6512298,3.15875 2.43387,0.31037 6.21396,2.89957 8.75138,3.31409 2.53742,0.41452 15.01711,2.12379 23.14744,2.12379 h 1.21024 z" id="path15" inkscape:connector-curvature="0" style="fill:url(#a);stroke-width:0.2975747" />
  <path d="m 49.940008,6.006842 c 11.63517,0 19.78158,0.98408 21.28314,1.242672 1.50186,0.259188 3.00342,1.035858 3.41764,3.469721 0.41423,2.433566 2.1232,28.998356 1.6569,32.260966 -0.46571,3.26231 -2.43357,5.02306 -5.79943,5.79943 -3.36587,0.77667 -14.29222,2.74483 -20.55825,2.79661 -6.26573,-0.0521 -17.19178,-2.01994 -20.55795,-2.79661 -3.36586,-0.77637 -5.33343,-2.53712 -5.79973,-5.79943 -0.466,-3.26231 1.24267,-29.8274 1.6569,-32.260966 0.41422,-2.433863 1.91608,-3.210533 3.41764,-3.469721 1.50157,-0.258592 9.64797,-1.242672 21.28314,-1.242672 z" id="path17" inkscape:connector-curvature="0" style="fill:#000000;stroke-width:0.2975747" />
  <path d="m 14.924098,29.932738 h -2.84005 c -0.31365,0 -0.56837,-0.254129 -0.56837,-0.567773 v -3.858648 h -3.7658098 c -0.31334,0 -0.56837,-0.255319 -0.56837,-0.568368 v -2.840053 c 0,-0.313643 0.25473,-0.568367 0.56837,-0.568367 h 3.7655098 v -3.765511 c 0,-0.313941 0.25473,-0.568665 0.56837,-0.568665 h 2.84005 c 0.31305,0 0.56837,0.254724 0.56837,0.568665 v 3.765511 h 3.58012 c 0.31335,0 0.56837,0.254724 0.56837,0.568367 v 2.840053 c 0,0.313346 -0.25502,0.567773 -0.56837,0.567773 h -3.58012 v 3.858648 c 0,0.314239 -0.25472,0.568368 -0.56807,0.568368 z" id="path19" inkscape:connector-curvature="0" style="fill:#cccccc;stroke-width:0.2975747;fill-opacity:1" />
  <path d="m 21.319868,35.994041 c 0.5407,0.44517 0.81625,1.17125 0.65258,1.9012 -0.2324,1.03289 -1.25814,1.6813 -2.28983,1.44889 l -7.33284,-1.76729 c -1.03318,-0.23211 -1.68219,-1.25755 -1.45068,-2.29014 0.23241,-1.03258 1.25785,-1.68159 2.29014,-1.44919 l 7.33343,1.7673 c 0.30263,0.0684 0.57313,0.20443 0.7972,0.38923 z" id="path21" inkscape:connector-curvature="0" style="fill:#514281;stroke-width:0.2975747" />
  <path d="m 21.059198,41.717891 c 0.54039,0.44487 0.81595,1.17185 0.65228,1.90061 -0.23241,1.03347 -1.25785,1.68159 -2.28984,1.44978 l -7.33283,-1.76729 c -1.03288,-0.23271 -1.68189,-1.25785 -1.45038,-2.29044 0.2324,-1.03228 1.25814,-1.68189 2.29013,-1.44919 l 7.33343,1.767 c 0.30234,0.0684 0.57284,0.20473 0.79721,0.38953 z" id="path23" inkscape:connector-curvature="0" style="fill:#514281;stroke-width:0.2975747" />
  <path d="m 21.758498,37.484291 c 0,0.88707 -0.71865,1.60572 -1.60572,1.60572 -0.88677,0 -1.60601,-0.71894 -1.60601,-1.60572 0,-0.88707 0.71924,-1.60601 1.60601,-1.60601 0.88707,-3e-4 1.60572,0.71865 1.60572,1.60601 z" id="path25" inkscape:connector-curvature="0" style="fill:#cccccc;stroke-width:0.2975747;fill-opacity:1" />
  <path d="m 21.523708,43.228671 c 0,0.88707 -0.71894,1.60602 -1.60601,1.60602 -0.88707,0 -1.60601,-0.71895 -1.60601,-1.60602 0,-0.88677 0.71894,-1.60571 1.60601,-1.60571 0.88707,0 1.60601,0.71894 1.60601,1.60571 z" id="path27" inkscape:connector-curvature="0" style="fill:#cccccc;stroke-width:0.2975747;fill-opacity:1" />
  <path d="m 85.992078,25.036149 c 0,1.764318 -1.43044,3.193866 -3.19417,3.193866 -1.76402,0 -3.19387,-1.429846 -3.19387,-3.193866 0,-1.764023 1.42955,-3.193572 3.19387,-3.193572 1.76402,-2.97e-4 3.19417,1.429549 3.19417,3.193572 z" id="path29" inkscape:connector-curvature="0" style="fill:#cccccc;stroke-width:0.2975747;fill-opacity:1" />
  <path d="m 95.102028,21.84228 c 0,1.764022 -1.43044,3.193571 -3.19447,3.193571 -1.76372,0 -3.19357,-1.429846 -3.19357,-3.193571 0,-1.764618 1.42985,-3.194167 3.19357,-3.194167 1.76403,0 3.19447,1.429846 3.19447,3.194167 z" id="path31" inkscape:connector-curvature="0" style="fill:#cccccc;stroke-width:0.2975747;fill-opacity:1" />
  <path d="m 83.765618,9.855673 c 0,0.534147 -0.43327,0.967416 -0.96771,0.967416 -0.53415,0 -0.96712,-0.433269 -0.96712,-0.967416 0,-0.534444 0.43297,-0.967117 0.96712,-0.967117 0.53444,0 0.96771,0.432673 0.96771,0.967117 z" stroke-miterlimit="10" id="path33" inkscape:connector-curvature="0" style="fill:#93b857;stroke:#93b857;stroke-width:0.03118583;stroke-miterlimit:10" />
  <path d="m 79.746578,38.241921 c -0.0393,-0.1595 0.058,-0.32079 0.21753,-0.36007 l 9.90894,-2.44666 c 0.1595,-0.0393 0.32078,0.058 0.36006,0.21753 0.0393,0.1595 -0.058,0.32079 -0.21753,0.36007 l -9.90893,2.44665 c -0.15921,0.0396 -0.32049,-0.0577 -0.36007,-0.21752 z" id="path35" inkscape:connector-curvature="0" style="fill:#160f26;stroke-width:0.2975747" />
  <path d="m 79.746578,40.449921 c -0.0393,-0.1595 0.058,-0.32078 0.21753,-0.36006 l 9.90894,-2.44666 c 0.1595,-0.0393 0.32078,0.058 0.36006,0.21752 0.0393,0.1595 -0.058,0.32079 -0.21753,0.36007 l -9.90893,2.44666 c -0.15921,0.0396 -0.32049,-0.058 -0.36007,-0.21753 z" id="path37" inkscape:connector-curvature="0" style="fill:#160f26;stroke-width:0.2975747" />
  <path d="m 79.746578,42.657931 c -0.0393,-0.1595 0.058,-0.32079 0.21753,-0.36007 l 9.90894,-2.44636 c 0.1595,-0.0393 0.32078,0.058 0.36006,0.21753 0.0393,0.1595 -0.058,0.32078 -0.21753,0.36006 l -9.90893,2.44636 c -0.15921,0.0396 -0.32049,-0.058 -0.36007,-0.21752 z" id="path39" inkscape:connector-curvature="0" style="fill:#160f26;stroke-width:0.2975747" />
  <path d="m 79.746578,44.865931 c -0.0393,-0.1595 0.058,-0.32079 0.21753,-0.36006 l 9.90894,-2.44607 c 0.1595,-0.0393 0.32078,0.058 0.36006,0.21753 0.0393,0.1595 -0.058,0.32078 -0.21753,0.36006 l -9.90893,2.44607 c -0.15921,0.0396 -0.32049,-0.058 -0.36007,-0.21753 z" id="path41" inkscape:connector-curvature="0" style="fill:#160f26;stroke-width:0.2975747" />
  <path d="m 12.310798,20.117834 h 2.20086 l -1.14239,-2.149084 z" id="path43" inkscape:connector-curvature="0" style="fill:#999999;stroke-width:0.2975747;fill-opacity:1" />
  <path d="m 14.511658,26.979014 h -2.20086 l 1.14209,2.149382 z" id="path45" inkscape:connector-curvature="0" style="fill:#999999;stroke-width:0.2975747;fill-opacity:1" />
  <path d="m 16.841968,22.448439 v 2.200565 l 2.14908,-1.142092 z" id="path47" inkscape:connector-curvature="0" style="fill:#999999;stroke-width:0.2975747;fill-opacity:1" />
  <path d="m 9.9804882,24.649004 v -2.200565 l -2.14908,1.141794 z" id="path49" inkscape:connector-curvature="0" style="fill:#999999;stroke-width:0.2975747;fill-opacity:1" />
  <g id="g908" transform="matrix(0.29757469,0,0,0.29757469,-2.9757418,-2.975747)">
    <path style="fill:#080a00" inkscape:connector-curvature="0" id="path51" d="m 165.08044,156.415 c 1.211,0 1.959,0.521 2.67,1.354 0.26,-0.242 0.539,-0.459 0.838,-0.643 0.751,-0.461 1.582,-0.696 2.41,-0.699 l 11.238,-0.001 -0.748,1.155 14.133,-0.011 1.286,2.182 1.163,-2.159 9.38,0.006 2.329,1.795 v -1.795 h 17.658 v 8.296 h -16.295 l -2.369,-1.81 v 1.811 l -13.2,-10e-4 v 0.005 l -0.898,-1.432 c -0.724,0.802 -2.02,1.428 -4.145,1.428 l -12.929,0.006 -0.185,1.168 h -4.531 l 0.104,-0.643 c -0.045,0.027 -0.089,0.06 -0.135,0.086 -1.044,0.643 -2.243,0.854 -3.374,0.598 -0.867,-0.197 -1.618,-0.651 -2.204,-1.279 -0.761,0.738 -1.786,1.223 -2.763,1.223 l -22.245,0.016 -0.356,-1.996 -0.914,1.996 h -3.709 c -1.169,0.195 -2.345,0.024 -3.391,-0.502 -1.451,-0.728 -2.406,-2.051 -2.557,-3.534 -0.252,-2.47 0.71,-4.439 2.78,-5.698 1.988,-1.213 4.1,-1.449 6.278,-0.707 l 0.4,0.139 0.153,-0.341 h 4.156 l 0.314,1.854 0.614,-1.854 z" />
    <path style="fill:#ffffff" inkscape:connector-curvature="0" id="path53" d="m 200.65044,158.964 h -1.714 l -0.047,0.083 -1.964,3.509 -2.083,-3.512 -0.047,-0.08 h -1.842 l 0.15,0.244 0.355,0.574 c -0.568,-0.53 -1.439,-0.818 -2.572,-0.818 h -3.706 v 4.561 l -2.746,-4.479 -0.046,-0.077 h -1.42 l -0.046,0.078 -3.125,5.176 -0.146,0.242 h 1.229 v 0.002 h 2.73 v -1.216 h -1.607 l 1.607,-2.851 2.27,3.982 0.046,0.082 h 1.83 l -0.002,-0.006 h 2.808 c 2.422,0 3.654,-0.932 3.654,-2.766 0,-0.318 -0.044,-0.613 -0.124,-0.881 l 2.197,3.57 0.048,0.076 h 1.071 l 0.048,-0.08 3.051,-5.174 z m -10.361,4.217 h -1.492 v -2.971 h 2.102 c 1.136,0 1.666,0.453 1.666,1.423 0,1.154 -0.575,1.548 -2.276,1.548 z" />
    <path style="fill:#ffffff" inkscape:connector-curvature="0" id="path55" d="m 211.34944,158.964 h -0.164 v 3.269 l -4.203,-3.236 -0.044,-0.033 h -1.101 v 4.564 l -2.751,-4.484 -0.048,-0.077 h -1.417 l -0.048,0.079 -3.124,5.175 -0.145,0.243 h 1.664 l 0.004,-0.006 h 2.293 v -1.216 h -1.607 l 1.605,-2.843 2.27,3.983 0.046,0.082 h 1.83 l -0.002,-0.004 h 0.926 v -3.315 l 4.186,3.282 0.044,0.033 h 1.1 v -5.496 z" />
    <path style="fill:#ffffff" inkscape:connector-curvature="0" id="path57" d="m 217.96144,158.966 h -3.275 c -1.151,0 -1.539,0.349 -1.539,1.387 v 2.724 c 0,1.032 0.387,1.384 1.539,1.384 h 3.275 c 1.152,0 1.541,-0.352 1.541,-1.384 v -0.773 h -0.164 l -1.289,-0.004 h -0.165 v 0.846 h -3.123 v -2.901 h 3.123 v 0.763 h 0.165 l 1.289,0.008 h 0.165 v -0.662 c -0.001,-1.052 -0.375,-1.388 -1.542,-1.388" />
    <path style="fill:#ffffff" inkscape:connector-curvature="0" id="path59" d="m 225.89844,163.181 h -4.254 v -0.965 h 2.538 v -1.213 h -2.538 v -0.794 h 4.357 v -1.243 h -5.974 v 5.494 h 6.037 v -1.279 z" />
    <path style="fill:#ffffff" inkscape:connector-curvature="0" id="path61" d="m 151.32944,157.792 -1.856,4.297 -0.802,-4.297 h -1.621 l -2.094,6.34 -1.073,-6.34 h -2.023 l -3.06,6.83 0.457,-2.855 h -3.041 l -0.232,1.471 h 1.271 l -0.145,0.787 c -0.729,0.283 -1.968,0.178 -2.495,-0.752 -0.335,-0.592 -0.646,-1.909 0.764,-3.117 1.147,-0.986 3.132,-1.163 4.279,-0.645 0,0 0.146,-0.824 0.255,-1.593 -2.203,-0.754 -3.915,-0.126 -5.061,0.572 -1.562,0.95 -2.313,2.399 -2.113,4.368 0.232,2.285 3.242,3.726 5.79,2.275 0.023,-0.014 0.042,-0.023 0.059,-0.034 l -0.24,0.536 h 1.711 l 1.075,-2.348 h 1.893 l 0.419,2.348 h 2.787 l 1.42,-4.389 0.91,4.389 h 1.093 l 2.131,-4.855 0.216,4.855 h 1.64 l -0.346,-7.844 h -1.968 m -9.542,3.976 0.692,-1.523 0.301,1.523 z" />
    <path style="fill:#ffffff" inkscape:connector-curvature="0" id="path63" d="m 153.76944,165.636 h 4.571 l 0.273,-1.686 h -2.86 l 0.228,-1.396 h 2.486 l 0.273,-1.682 h -2.512 l 0.218,-1.396 h 2.858 l 0.273,-1.684 h -4.533 z" />
    <path style="fill:#ffffff" inkscape:connector-curvature="0" id="path65" d="m 176.09344,160.352 -1.02,-2.56 h -1.877 l 1.931,4.135 -0.593,3.709 h 1.639 l 0.502,-3.278 2.95,-4.566 h -1.912 z" />
    <path style="fill:#ffffff" inkscape:connector-curvature="0" id="path67" d="m 171.62544,157.86 c -1.816,-0.412 -3.702,1.01 -4.21,3.178 -0.509,2.168 0.55,4.26 2.367,4.673 1.815,0.413 3.7,-1.01 4.209,-3.179 0.509,-2.168 -0.552,-4.26 -2.366,-4.672 m 0.641,4.608 c -0.444,1.307 -1.505,2.055 -2.373,1.673 -0.865,-0.38 -1.21,-1.747 -0.767,-3.052 0.441,-1.305 1.503,-2.053 2.37,-1.671 0.868,0.38 1.212,1.747 0.77,3.05 z" />
    <path style="fill:#ffffff" inkscape:connector-curvature="0" id="path69" d="m 165.12544,157.837 c -0.885,-0.015 -3.072,0 -3.072,0 h 0.018 l -1.264,7.781 h 3.686 c 1.518,0 3.738,-2.2 1.717,-3.996 2.077,-2.115 0.019,-3.768 -1.085,-3.785 m -0.957,6.271 c -0.904,0 -1.445,0 -1.445,0 l 0.254,-1.563 h 1.373 c 1.3,0 1.264,1.563 -0.182,1.563 z m 0.199,-3.162 c -0.904,0 -1.138,0 -1.138,0 l 0.252,-1.457 h 1.065 c 1.157,0 0.923,1.457 -0.179,1.457 z" />
  </g>
  <path d="m 27.880498,10.840348 h 44.11962 v 29.758063 h -44.11962 z" id="path71" inkscape:connector-curvature="0" style="fill:#1a1a1a;stroke-width:0.2975747" />
  <path d="m 45.741828,4.541882 c -0.97932,-2.97e-4 -1.63369,-0.694241 -1.63369,-1.535783 0,-0.841541 0.65586,-1.54352 1.6322,-1.541139 h 9.22601 c 0.97634,-0.0021 1.63219,0.699896 1.63219,1.541139 0,0.841542 -0.65436,1.535486 -1.63368,1.535783 z m 0.003,-2.698407 c -0.77518,0.0015 -1.251,0.519565 -1.251,1.160839 0,0.640976 0.47285,1.163517 1.251,1.160541 h 9.21708 c 0.77816,0.0027 1.2513,-0.519565 1.2513,-1.160541 0,-0.640976 -0.47582,-1.159054 -1.251,-1.160541 z m 9.71284,0.540991 c 0.0705,0 0.10564,0.02381 0.10564,0.07112 0,0.03244 -0.0202,0.05713 -0.0539,0.06547 l 0.0554,0.1104 h -0.067 l -0.0473,-0.101176 h -0.0295 v 0.101176 h -0.0601 v -0.246987 z m -0.006,-0.09641 c -0.1232,0 -0.22289,0.09999 -0.22289,0.222883 0,0.123196 0.1,0.222883 0.22289,0.222883 0.12319,0 0.22288,-0.09999 0.22288,-0.222883 0,-0.123196 -0.0997,-0.222883 -0.22288,-0.222883 z m 0.18033,0.223181 c 0,0.09939 -0.0807,0.18033 -0.18033,0.18033 -0.0997,0 -0.18033,-0.08064 -0.18033,-0.18033 0,-0.09939 0.0806,-0.180331 0.18033,-0.180331 0.0997,0 0.18033,0.08064 0.18033,0.180331 z m -0.21158,-0.01696 h 0.0295 c 0.0342,0 0.0509,-0.01042 0.0509,-0.03511 0,-0.02559 -0.0179,-0.0369 -0.0539,-0.0369 h -0.0265 z m -5.03824,0.603481 c -5.9e-4,-0.08451 10e-4,-0.140753 0.0289,-0.18896 0.0339,-0.05952 0.0964,-0.08749 0.15325,-0.08778 h -3e-4 c 0.0568,2.97e-4 0.11933,0.02857 0.15325,0.08778 0.0277,0.04821 0.0289,0.104747 0.0283,0.18896 z m 0.36186,0.290433 c 0,0 2.9e-4,0.0042 2.9e-4,0.05832 0,0.176164 -0.11605,0.215444 -0.18033,0.215444 -0.0643,0 -0.18241,-0.03928 -0.18241,-0.215444 0,-0.05267 3e-4,-0.19878 3e-4,-0.19878 0,0 0.82041,2.98e-4 0.82041,-2.98e-4 0,-0.298765 -0.28835,-0.546347 -0.64276,-0.546347 -0.35441,0 -0.64127,0.242226 -0.64127,0.540991 0,0.298765 0.28716,0.540693 0.64127,0.540693 0.294,0 0.54218,-0.167832 0.61806,-0.395179 z m 1.37062,-0.670733 c 0.16278,-0.0048 0.49338,0.102068 0.491,0.483261 -2.9e-4,0.06755 -2.9e-4,0.524029 -2.9e-4,0.524029 h -0.43268 c 0,0 0,-0.572534 0,-0.632644 0,-0.08392 -0.0803,-0.177354 -0.19908,-0.177354 -0.11873,0 -0.20681,0.09344 -0.20681,0.177354 0,0.04107 5.9e-4,0.632644 5.9e-4,0.632644 h -0.43237 l 3e-4,-0.963249 0.43237,-2.98e-4 c 0,0 -5.9e-4,0.07737 0,0.101473 0.083,-0.07945 0.20325,-0.14105 0.34697,-0.145216 z m -3.53994,0 c 0.16277,-0.0048 0.49337,0.102068 0.49099,0.483261 -2.9e-4,0.06755 -2.9e-4,0.524029 -2.9e-4,0.524029 h -0.43268 c 0,0 0,-0.572534 0,-0.632644 0,-0.08392 -0.0803,-0.177354 -0.19907,-0.177354 -0.11874,0 -0.20682,0.09344 -0.20682,0.177354 0,0.04107 6e-4,0.632644 6e-4,0.632644 h -0.43238 l -3e-4,-0.963249 0.43268,-2.98e-4 c 0,0 -6e-4,0.07737 0,0.101473 0.0833,-0.07945 0.20324,-0.14105 0.34727,-0.145216 z m 4.96979,-0.440708 h 0.43 v 1.448593 h -0.43059 c 0,0 -3e-4,-0.04672 -3e-4,-0.05565 -0.16664,0.104746 -0.35471,0.104449 -0.50112,0.0363 -0.0393,-0.01815 -0.29787,-0.142241 -0.29787,-0.477607 0,-0.254129 0.23985,-0.532064 0.55379,-0.50439 0.10325,0.0092 0.17676,0.04672 0.24639,0.086 -3e-4,-0.223181 -3e-4,-0.533254 -3e-4,-0.533254 z m 0.003,0.962059 c 0,0 0,-0.120816 0,-0.172296 0,-0.149085 -0.10296,-0.186877 -0.17051,-0.186877 -0.0693,0 -0.17081,0.03809 -0.17081,0.186877 0,0.0494 3e-4,0.171701 3e-4,0.171701 0,0 -3e-4,0.12022 -3e-4,0.171403 0,0.148787 0.10147,0.187769 0.17081,0.187769 0.0678,0 0.1708,-0.03898 0.1708,-0.187769 0,-0.0619 -2.9e-4,-0.170808 -2.9e-4,-0.170808 z m 1.38015,-0.003 c 0,0 -3e-4,0.145514 -3e-4,0.204136 0,0.153549 -0.0908,0.216932 -0.17795,0.216932 -0.0875,0 -0.17854,-0.06338 -0.17854,-0.216932 0,-0.05832 2.9e-4,-0.207707 2.9e-4,-0.207707 0,0 3e-4,-0.142538 3e-4,-0.200863 0,-0.152953 0.0914,-0.215742 0.17795,-0.215742 0.0869,0 0.17795,0.06279 0.17795,0.215742 0,0.05832 -3e-4,0.166344 3e-4,0.205029 z m -0.17498,-0.539503 c -0.35173,0 -0.63651,0.242226 -0.63651,0.540991 0,0.298765 0.28508,0.540991 0.63651,0.540991 0.35174,0 0.63652,-0.242226 0.63652,-0.540991 2.9e-4,-0.299063 -0.28478,-0.540991 -0.63652,-0.540991 z m -7.63427,-0.123791 v -0.296087 h 0.43654 v 0.296087 z m 8.9e-4,1.152804 v -0.963547 l 0.43565,2.98e-4 v 0.963249 z m 2.18539,0 2.9e-4,-0.961464 h -0.23687 v -0.142835 l 0.23717,-2.98e-4 -3e-4,-0.195209 h 0.43595 v 0.194911 h 0.23598 v 0.143431 h -0.23598 l 3e-4,0.961464 z m -3.95804,0 2.9e-4,-1.448593 h 0.45142 l 0.62432,1.010266 -3e-4,-1.010266 h 0.44785 v 1.448593 h -0.44726 l -0.62758,-1.010266 v 1.010266 z" id="path73" inkscape:connector-curvature="0" style="fill:#342060;stroke-width:0.2975747" />
  <g id="g896" transform="matrix(0.29757469,0,0,0.29757469,-2.9757418,-2.975747)">
    <path style="fill:#3d2f7d" inkscape:connector-curvature="0" id="path75" d="m 294.02644,45.025 v -5.253 h 1.464 c 0.477,0 1.163,0.042 1.506,0.435 0.287,0.322 0.343,0.714 0.343,1.142 0,0.567 -0.133,1.205 -0.693,1.463 -0.427,0.21 -0.924,0.147 -1.387,0.168 v 2.045 z m 1.232,-2.991 c 0.231,-0.007 0.498,0.021 0.693,-0.133 0.126,-0.14 0.154,-0.35 0.154,-0.532 0,-0.203 -0.021,-0.512 -0.231,-0.609 -0.118,-0.042 -0.287,-0.042 -0.482,-0.042 h -0.134 z" />
    <path style="fill:#3d2f7d" inkscape:connector-curvature="0" id="path77" d="m 301.16744,43.351 c 0,1.184 -0.413,1.8 -1.66,1.8 -1.246,0 -1.681,-0.616 -1.681,-1.8 v -2.136 c 0,-1.008 0.603,-1.569 1.681,-1.569 1.079,0 1.66,0.561 1.66,1.569 z m -1.232,-2.052 c 0,-0.322 -0.028,-0.708 -0.435,-0.708 -0.393,0 -0.441,0.385 -0.441,0.708 v 2.157 c 0,0.301 0.049,0.75 0.448,0.75 0.399,0 0.428,-0.448 0.428,-0.75 z" />
    <path style="fill:#3d2f7d" inkscape:connector-curvature="0" id="path79" d="m 305.24844,43.456 h 0.015 l 0.385,-3.684 h 1.17 l -0.875,5.253 h -1.388 l -0.378,-3.698 h -0.014 l -0.406,3.698 h -1.366 l -0.882,-5.253 h 1.19 l 0.371,3.691 0.014,-0.014 0.498,-3.677 h 1.19 z" />
    <path style="fill:#3d2f7d" inkscape:connector-curvature="0" id="path81" d="m 307.20744,45.025 v -5.253 h 2.822 v 1.051 h -1.59 v 0.966 h 1.541 v 1.051 h -1.541 v 1.134 h 1.674 v 1.051 z" />
    <path style="fill:#3d2f7d" inkscape:connector-curvature="0" id="path83" d="m 311.91244,45.025 h -1.232 v -5.253 h 1.8 c 1.009,0 1.514,0.406 1.514,1.45 0,0.561 -0.134,0.959 -0.651,1.198 v 0.014 c 0.343,0.077 0.588,0.315 0.608,0.679 0.035,0.42 0.043,1.324 0.112,1.66 0.028,0.07 0.063,0.133 0.119,0.182 v 0.07 h -1.345 c -0.035,-0.098 -0.063,-0.196 -0.07,-0.301 -0.021,-0.462 0.008,-0.896 -0.027,-1.219 -0.035,-0.322 -0.134,-0.532 -0.421,-0.553 h -0.406 v 2.073 z m 0,-3.019 h 0.421 c 0.357,0 0.441,-0.329 0.441,-0.651 0,-0.624 -0.26,-0.651 -0.862,-0.637 z" />
    <path style="fill:#514281" inkscape:connector-curvature="0" id="path85" d="m 294.13244,45.151 v -5.253 h 1.464 c 0.477,0 1.163,0.042 1.506,0.435 0.287,0.322 0.343,0.714 0.343,1.142 0,0.567 -0.133,1.205 -0.693,1.463 -0.427,0.21 -0.924,0.147 -1.387,0.168 v 2.045 z m 1.233,-2.991 c 0.231,-0.007 0.498,0.021 0.693,-0.133 0.126,-0.14 0.154,-0.35 0.154,-0.532 0,-0.203 -0.021,-0.512 -0.231,-0.609 -0.118,-0.042 -0.287,-0.042 -0.482,-0.042 h -0.134 z" />
    <path style="fill:#514281" inkscape:connector-curvature="0" id="path87" d="m 301.27444,43.477 c 0,1.184 -0.413,1.8 -1.66,1.8 -1.246,0 -1.681,-0.616 -1.681,-1.8 v -2.136 c 0,-1.008 0.603,-1.569 1.681,-1.569 1.079,0 1.66,0.561 1.66,1.569 z m -1.233,-2.052 c 0,-0.322 -0.028,-0.708 -0.435,-0.708 -0.393,0 -0.441,0.385 -0.441,0.708 v 2.157 c 0,0.301 0.049,0.75 0.448,0.75 0.399,0 0.428,-0.448 0.428,-0.75 z" />
    <path style="fill:#514281" inkscape:connector-curvature="0" id="path89" d="m 305.35544,43.582 h 0.015 l 0.385,-3.684 h 1.17 l -0.875,5.253 h -1.388 l -0.378,-3.698 h -0.014 l -0.406,3.698 h -1.366 l -0.882,-5.253 h 1.19 l 0.371,3.691 0.014,-0.014 0.498,-3.677 h 1.19 z" />
    <path style="fill:#514281" inkscape:connector-curvature="0" id="path91" d="m 307.31444,45.151 v -5.253 h 2.822 v 1.051 h -1.59 v 0.966 h 1.541 v 1.051 h -1.541 v 1.134 h 1.674 v 1.051 z" />
    <path style="fill:#514281" inkscape:connector-curvature="0" id="path93" d="m 312.01844,45.151 h -1.232 v -5.253 h 1.8 c 1.009,0 1.514,0.406 1.514,1.45 0,0.561 -0.134,0.959 -0.651,1.198 v 0.014 c 0.343,0.077 0.588,0.315 0.608,0.679 0.035,0.42 0.043,1.324 0.112,1.66 0.028,0.07 0.063,0.133 0.119,0.182 v 0.07 h -1.345 c -0.035,-0.098 -0.063,-0.196 -0.07,-0.301 -0.021,-0.462 0.008,-0.896 -0.027,-1.219 -0.035,-0.322 -0.134,-0.532 -0.421,-0.553 h -0.406 v 2.073 z m 0,-3.019 h 0.421 c 0.357,0 0.441,-0.329 0.441,-0.651 0,-0.624 -0.26,-0.651 -0.862,-0.637 z" />
  </g>
  <path d="m 13.264818,36.112181 -0.0256,0.10742 c -0.0208,0.0872 -0.0125,0.17051 0.0949,0.1961 0.0783,0.0187 0.13063,-0.0482 0.14879,-0.12528 0.0306,-0.12795 -0.0571,-0.20026 -0.13183,-0.27793 -0.0884,-0.0875 -0.16218,-0.16724 -0.20681,-0.25949 -0.0431,-0.0917 -0.0571,-0.19342 -0.025,-0.32733 0.0681,-0.28597 0.26544,-0.3931 0.52552,-0.3309 0.29251,0.0696 0.39279,0.31215 0.30918,0.59425 l -0.30978,-0.0738 c 0.0173,-0.0902 0.0503,-0.21098 -0.0589,-0.2455 -0.0676,-0.0223 -0.11724,0.009 -0.14075,0.0738 -0.0312,0.0887 0.001,0.14581 0.0565,0.21038 0.10593,0.11546 0.20205,0.19402 0.26246,0.29014 0.0598,0.0955 0.0818,0.2077 0.0378,0.3922 -0.0696,0.29192 -0.26127,0.4175 -0.5404,0.35114 -0.30828,-0.0735 -0.39488,-0.28686 -0.34697,-0.48773 l 0.0387,-0.16218 z" id="path95" inkscape:connector-curvature="0" style="fill:#453370;stroke-width:0.2975747" />
  <path d="m 14.161708,35.256651 0.8719,0.208 -0.0723,0.30412 -0.27139,-0.0649 -0.29014,1.21619 -0.33655,-0.0803 0.29013,-1.21619 -0.26395,-0.0631 z" id="path97" inkscape:connector-curvature="0" style="fill:#453370;stroke-width:0.2975747" />
  <path d="m 14.624438,36.973951 0.67579,-1.44562 0.4056,0.0967 -0.0506,1.5947 -0.34102,-0.0812 0.0229,-0.3071 -0.26424,-0.0631 -0.1107,0.28656 z m 0.81327,-1.12156 -0.004,-8.9e-4 -0.26008,0.65794 0.19492,0.0464 z" id="path99" inkscape:connector-curvature="0" style="fill:#453370;stroke-width:0.2975747" />
  <path d="m 16.087018,37.322711 -0.33685,-0.0804 0.36244,-1.5206 0.4916,0.11754 c 0.27525,0.0655 0.38506,0.21604 0.31304,0.51778 -0.0387,0.16248 -0.10236,0.2693 -0.26037,0.30442 l -9e-4,0.004 c 0.0887,0.0446 0.13897,0.12945 0.11963,0.23628 -0.0193,0.12409 -0.08,0.38595 -0.0842,0.48802 0.003,0.0217 0.008,0.0425 0.0199,0.0604 l -0.005,0.0199 -0.36691,-0.0875 c -0.003,-0.031 -0.004,-0.061 0.001,-0.0919 0.0265,-0.1348 0.064,-0.25889 0.0768,-0.35441 0.0125,-0.0952 5.9e-4,-0.16278 -0.0768,-0.18747 l -0.1107,-0.0265 z m 0.2083,-0.87368 0.11487,0.0277 c 0.0973,0.0232 0.14313,-0.0669 0.16515,-0.16009 0.0431,-0.18033 -0.0256,-0.20533 -0.19104,-0.24074 z" id="path101" inkscape:connector-curvature="0" style="fill:#453370;stroke-width:0.2975747" />
  <path d="m 17.102638,35.957731 0.8722,0.20801 -0.0723,0.30412 -0.27168,-0.0649 -0.29014,1.21648 -0.33685,-0.0806 0.29013,-1.21619 -0.26365,-0.0631 z" id="path103" inkscape:connector-curvature="0" style="fill:#453370;stroke-width:0.2975747" />
  <path d="m 12.703598,41.575051 -0.0256,0.10743 c -0.0208,0.0872 -0.0149,0.16991 0.0833,0.19312 0.0714,0.0173 0.12081,-0.0506 0.13926,-0.12766 0.0303,-0.12766 -0.0491,-0.19788 -0.11576,-0.27406 -0.0797,-0.0851 -0.1461,-0.16307 -0.18538,-0.25413 -0.0378,-0.0905 -0.0485,-0.19164 -0.0167,-0.32555 0.0682,-0.28567 0.25145,-0.39607 0.48921,-0.33953 0.26752,0.0637 0.35501,0.30323 0.27288,0.58563 l -0.28329,-0.0675 c 0.0176,-0.0905 0.0503,-0.21098 -0.0491,-0.24342 -0.0616,-0.0208 -0.10802,0.0107 -0.13093,0.0762 -0.0304,0.0893 -10e-4,0.14522 0.0482,0.2083 0.0952,0.11308 0.18212,0.18956 0.23568,0.28359 0.0536,0.094 0.0711,0.20533 0.0271,0.39012 -0.0696,0.29192 -0.24818,0.42047 -0.5032,0.35977 -0.2815,-0.0673 -0.35709,-0.27823 -0.30947,-0.4785 l 0.0387,-0.16218 z" id="path105" inkscape:connector-curvature="0" style="fill:#4c377b;stroke-width:0.2975747" />
  <path d="m 13.224948,42.237161 0.36244,-1.52031 0.70466,0.16783 -0.0726,0.30412 -0.39696,-0.0946 -0.0667,0.27972 0.38477,0.0917 -0.0726,0.30413 -0.38477,-0.0919 -0.0783,0.32852 0.4178,0.0997 -0.0726,0.30382 z" id="path107" inkscape:connector-curvature="0" style="fill:#4c377b;stroke-width:0.2975747" />
  <path d="m 14.084338,42.441891 0.36245,-1.52031 0.30769,0.0735 -0.29013,1.21619 0.37613,0.0899 -0.0726,0.30383 z" id="path109" inkscape:connector-curvature="0" style="fill:#4c377b;stroke-width:0.2975747" />
  <path d="m 14.877378,42.631141 0.36245,-1.5203 0.70465,0.16783 -0.0726,0.30412 -0.39666,-0.0946 -0.0667,0.27942 0.38477,0.0919 -0.0726,0.30412 -0.38477,-0.0919 -0.0783,0.32853 0.4175,0.0997 -0.0726,0.30383 z" id="path111" inkscape:connector-curvature="0" style="fill:#4c377b;stroke-width:0.2975747" />
  <path d="m 16.501248,41.972611 0.0232,-0.097 c 0.0309,-0.13004 0.007,-0.20651 -0.0509,-0.2202 -0.0958,-0.025 -0.13302,0.0303 -0.15682,0.12974 l -0.18063,0.75197 c -0.0202,0.0851 -0.003,0.14254 0.078,0.16218 0.10504,0.025 0.14343,-0.0988 0.16574,-0.19223 l 0.0327,-0.13778 0.30769,0.0732 -0.0443,0.18658 c -0.0622,0.26157 -0.23538,0.41333 -0.55021,0.33805 -0.2833,-0.0675 -0.35203,-0.26782 -0.27794,-0.57819 l 0.14879,-0.62461 c 0.0789,-0.33031 0.24669,-0.45291 0.52849,-0.38595 0.26246,0.0625 0.38893,0.22972 0.31513,0.54009 l -0.0303,0.12766 z" id="path113" inkscape:connector-curvature="0" style="fill:#4c377b;stroke-width:0.2975747" />
  <path d="m 17.046398,41.541431 0.7978,0.19015 -0.0726,0.30412 -0.24847,-0.0592 -0.29014,1.21649 -0.30769,-0.0735 0.29013,-1.21618 -0.24163,-0.0574 z" id="path115" inkscape:connector-curvature="0" style="fill:#4c377b;stroke-width:0.2975747" />
  <g id="g139" style="fill:#4b3e78" transform="matrix(0.29757469,0,0,0.29757469,1.2821567e-4,0)">
    <path d="m 44.701,121.527 -0.086,0.361 c -0.07,0.293 -0.042,0.573 0.319,0.659 0.263,0.063 0.439,-0.162 0.5,-0.421 0.103,-0.43 -0.192,-0.673 -0.443,-0.934 -0.297,-0.294 -0.545,-0.562 -0.695,-0.872 -0.145,-0.308 -0.192,-0.65 -0.084,-1.1 0.229,-0.961 0.892,-1.321 1.766,-1.112 0.983,0.234 1.32,1.049 1.039,1.997 l -1.041,-0.248 c 0.058,-0.303 0.169,-0.709 -0.198,-0.825 -0.227,-0.075 -0.394,0.029 -0.473,0.248 -0.105,0.298 0.005,0.49 0.19,0.707 0.356,0.388 0.679,0.652 0.882,0.975 0.201,0.321 0.275,0.698 0.127,1.318 -0.234,0.981 -0.878,1.403 -1.816,1.18 -1.036,-0.247 -1.327,-0.964 -1.166,-1.639 l 0.13,-0.545 z" id="path117" inkscape:connector-curvature="0" />
    <path d="m 47.715,118.652 2.93,0.699 -0.243,1.022 -0.912,-0.218 -0.975,4.087 -1.131,-0.27 0.975,-4.087 -0.887,-0.212 z" id="path119" inkscape:connector-curvature="0" />
    <path d="m 49.27,124.424 2.271,-4.858 1.363,0.325 -0.17,5.359 -1.146,-0.273 0.077,-1.032 -0.888,-0.212 -0.372,0.963 z m 2.733,-3.77 -0.013,-0.003 -0.874,2.211 0.655,0.156 z" id="path121" inkscape:connector-curvature="0" />
    <path d="m 54.185,125.596 -1.132,-0.27 1.218,-5.11 1.652,0.395 c 0.925,0.22 1.294,0.726 1.052,1.74 -0.13,0.546 -0.344,0.905 -0.875,1.023 l -0.003,0.014 c 0.298,0.15 0.467,0.435 0.402,0.794 -0.065,0.417 -0.269,1.297 -0.283,1.64 0.01,0.073 0.028,0.143 0.067,0.203 l -0.016,0.067 -1.233,-0.294 c -0.011,-0.104 -0.013,-0.205 0.004,-0.309 0.089,-0.453 0.215,-0.87 0.258,-1.191 0.042,-0.32 0.002,-0.547 -0.258,-0.63 l -0.372,-0.089 z m 0.7,-2.937 0.386,0.093 c 0.327,0.078 0.481,-0.225 0.555,-0.538 0.145,-0.606 -0.086,-0.69 -0.642,-0.809 z" id="path123" inkscape:connector-curvature="0" />
    <path d="m 57.598,121.009 2.931,0.699 -0.243,1.022 -0.913,-0.218 -0.975,4.088 -1.132,-0.271 0.975,-4.087 -0.886,-0.212 z" id="path125" inkscape:connector-curvature="0" />
    <path d="m 42.831,139.826 -0.086,0.361 c -0.07,0.293 -0.05,0.571 0.28,0.649 0.24,0.058 0.406,-0.17 0.468,-0.429 0.102,-0.429 -0.165,-0.665 -0.389,-0.921 -0.268,-0.286 -0.491,-0.548 -0.623,-0.854 -0.127,-0.304 -0.163,-0.644 -0.056,-1.094 0.229,-0.96 0.845,-1.331 1.644,-1.141 0.899,0.214 1.193,1.019 0.917,1.968 l -0.952,-0.227 c 0.059,-0.304 0.169,-0.709 -0.165,-0.818 -0.207,-0.07 -0.363,0.036 -0.44,0.256 -0.102,0.3 -0.004,0.488 0.162,0.7 0.32,0.38 0.612,0.637 0.792,0.953 0.18,0.316 0.239,0.69 0.091,1.311 -0.234,0.981 -0.834,1.413 -1.691,1.209 -0.946,-0.226 -1.2,-0.935 -1.04,-1.608 l 0.13,-0.545 z" id="path127" inkscape:connector-curvature="0" />
    <path d="m 44.583,142.051 1.218,-5.109 2.368,0.564 -0.244,1.022 -1.334,-0.318 -0.224,0.94 1.293,0.308 -0.244,1.022 -1.293,-0.309 -0.263,1.104 1.404,0.335 -0.244,1.021 z" id="path129" inkscape:connector-curvature="0" />
    <path d="m 47.471,142.739 1.218,-5.109 1.034,0.247 -0.975,4.087 1.264,0.302 -0.244,1.021 z" id="path131" inkscape:connector-curvature="0" />
    <path d="m 50.136,143.375 1.218,-5.109 2.368,0.564 -0.244,1.022 -1.333,-0.318 -0.224,0.939 1.293,0.309 -0.244,1.022 -1.293,-0.309 -0.263,1.104 1.403,0.335 -0.244,1.021 z" id="path133" inkscape:connector-curvature="0" />
    <path d="m 55.593,141.162 0.078,-0.326 c 0.104,-0.437 0.022,-0.694 -0.171,-0.74 -0.322,-0.084 -0.447,0.102 -0.527,0.436 l -0.607,2.527 c -0.068,0.286 -0.009,0.479 0.262,0.545 0.353,0.084 0.482,-0.332 0.557,-0.646 l 0.11,-0.463 1.034,0.246 -0.149,0.627 c -0.209,0.879 -0.791,1.389 -1.849,1.136 -0.952,-0.227 -1.183,-0.9 -0.934,-1.943 l 0.5,-2.099 c 0.265,-1.11 0.829,-1.522 1.776,-1.297 0.882,0.21 1.307,0.772 1.059,1.815 l -0.102,0.429 z" id="path135" inkscape:connector-curvature="0" />
    <path d="m 57.426,139.713 2.681,0.639 -0.244,1.022 -0.835,-0.199 -0.975,4.088 -1.034,-0.247 0.975,-4.087 -0.812,-0.193 z" id="path137" inkscape:connector-curvature="0" />
  </g>
  <path d="m 81.318538,27.157854 v -3.075136 h 0.81386 c 0.47463,0 0.84571,0.176164 0.84571,0.795417 0,0.270793 -0.0857,0.512722 -0.30353,0.64782 v 0.008 c 0.28568,0.188662 0.34638,0.352626 0.34638,0.734117 0,0.62312 -0.3071,0.889747 -0.81744,0.889747 z m 0.62847,-1.865495 c 0.27496,-0.02053 0.40322,0 0.40322,-0.364826 0,-0.303526 -0.18212,-0.291326 -0.40322,-0.291326 z m 0,1.312007 c 0.31424,-0.008 0.44607,0.01637 0.44607,-0.39756 0,-0.356792 -0.17855,-0.34846 -0.44607,-0.36066 z" id="path141" inkscape:connector-curvature="0" style="fill:#999999;stroke-width:0.2975747;fill-opacity:1" />
  <path d="m 90.294578,24.008622 0.58533,-3.075137 h 0.75643 l 0.58176,3.075137 h -0.63532 l -0.0893,-0.59872 h -0.49249 l -0.075,0.59872 z m 0.96355,-2.517482 h -0.007 l -0.18182,1.377473 h 0.36394 z" id="path143" inkscape:connector-curvature="0" style="fill:#999999;stroke-width:0.2975747;fill-opacity:1" />
</svg>
