<?xml version="1.0" encoding="UTF-8" standalone="no"?>
<svg enable-background="new 0 0 570.791 192.118" viewBox="0 0 99.999997 57.169454" version="1.1" id="svg179" sodipodi:docname="disconnected.svg" width="100" height="57.169453" inkscape:version="1.1.2 (b8e25be833, 2022-02-05)" xmlns:inkscape="http://www.inkscape.org/namespaces/inkscape" xmlns:sodipodi="http://sodipodi.sourceforge.net/DTD/sodipodi-0.dtd" xmlns="http://www.w3.org/2000/svg" xmlns:svg="http://www.w3.org/2000/svg" xmlns:rdf="http://www.w3.org/1999/02/22-rdf-syntax-ns#" xmlns:cc="http://creativecommons.org/ns#" xmlns:dc="http://purl.org/dc/elements/1.1/">
  <metadata id="metadata185">
    <rdf:RDF>
      <cc:Work rdf:about="">
        <dc:format>image/svg+xml</dc:format>
        <dc:type rdf:resource="http://purl.org/dc/dcmitype/StillImage" />
      </cc:Work>
    </rdf:RDF>
  </metadata>
  <defs id="defs183" />
  <sodipodi:namedview pagecolor="#ffffff" bordercolor="#666666" borderopacity="1" objecttolerance="10" gridtolerance="10" guidetolerance="10" inkscape:pageopacity="0" inkscape:pageshadow="2" inkscape:window-width="1654" inkscape:window-height="1001" id="namedview181" showgrid="false" fit-margin-top="0" fit-margin-left="0" fit-margin-right="0" fit-margin-bottom="0" inkscape:zoom="11.313709" inkscape:cx="44.503533" inkscape:cy="16.705398" inkscape:window-x="2075" inkscape:window-y="11" inkscape:window-maximized="0" inkscape:current-layer="svg179" inkscape:pagecheckerboard="0" />
  <linearGradient id="a" gradientUnits="userSpaceOnUse" x1="167.8232" x2="167.8232" y1="192.1181" y2="0" gradientTransform="matrix(0.29757469,0,0,0.29757469,1.2821567e-4,0)">
    <stop offset="0" stop-color="#493575" id="stop2" />
    <stop offset="1" stop-color="#4d407b" id="stop4" />
  </linearGradient>
  <path id="path9" style="fill:#ff0000;stroke-width:0.2975747" d="M 27.429688 0 C 25.30995 0 23.551177 0.83434516 21.603516 1.8671875 C 18.900691 2.1310106 11.520273 2.8733368 8.3964844 3.625 C 4.6666844 4.522485 2.7363281 8.90625 2.7363281 8.90625 L 3.4550781 9.2558594 C 3.4868793 9.1584083 3.5254886 9.0576744 3.5683594 8.9570312 C 3.4406023 9.2564683 3.3606849 9.5463176 3.3261719 9.7988281 C 3.2376923 10.44569 3.1756575 11.003596 3.09375 11.628906 L 2.2519531 11.78125 C 2.2519531 11.78125 -0.491435 31.640386 0.078125 41.738281 C 0.181685 46.968461 5.0230144 49.34882 5.3339844 49.375 C 5.5710515 49.394783 6.2022282 49.292395 6.8789062 48.955078 C 9.9843354 50.063458 15.252067 51.451498 17.435547 51.730469 C 19.869417 52.040839 23.65008 54.630402 26.1875 55.044922 C 28.72492 55.459442 41.205608 57.169922 49.335938 57.169922 L 50.544922 57.169922 C 58.674962 57.169922 71.155639 55.459442 73.693359 55.044922 C 76.230779 54.630702 80.009499 52.042792 82.443359 51.732422 C 84.643452 51.45133 89.980751 50.041884 93.074219 48.929688 C 93.768473 49.285955 94.423261 49.395238 94.666016 49.375 C 94.976986 49.34882 99.818025 46.968461 99.921875 41.738281 C 100.49174 31.640386 97.746094 11.78125 97.746094 11.78125 L 96.783203 11.607422 C 96.702256 10.989865 96.642042 10.439343 96.554688 9.8007812 C 96.517947 9.5319743 96.432029 9.2203251 96.289062 8.9003906 C 96.350568 9.0383227 96.400549 9.1746281 96.441406 9.3066406 L 97.263672 8.90625 C 97.263672 8.90625 95.333316 4.522485 91.603516 3.625 C 88.435181 2.8626179 80.81732 2.1013771 78.248047 1.8515625 C 76.31166 0.82573397 74.558764 -3.3503162e-16 72.449219 0 L 27.429688 0 z M 79.996094 2.7773438 C 80.085987 2.8242114 80.174281 2.870983 80.265625 2.9179688 C 80.171595 2.8695132 80.088583 2.825667 79.996094 2.7773438 z M 81.550781 3.5507812 C 81.61847 3.582498 81.685294 3.6149262 81.753906 3.6464844 C 81.684978 3.6147135 81.61879 3.5827217 81.550781 3.5507812 z M 18.277344 3.5761719 C 18.232876 3.5969525 18.18939 3.6179645 18.144531 3.6386719 C 18.189354 3.6180252 18.232917 3.5968875 18.277344 3.5761719 z M 6.7167969 6.6972656 C 6.4393954 6.7281197 6.1839705 6.7831023 5.9453125 6.8535156 C 6.184021 6.7830545 6.4391923 6.7281423 6.7167969 6.6972656 z M 93.164062 6.6972656 C 93.440128 6.727975 93.694054 6.7816779 93.931641 6.8515625 C 93.69362 6.7814707 93.440588 6.7280262 93.164062 6.6972656 z M 5.875 6.875 C 5.6498737 6.9458754 5.4415951 7.031138 5.25 7.1308594 C 5.441297 7.031283 5.65017 6.945795 5.875 6.875 z M 94.011719 6.8769531 C 94.231707 6.9466313 94.435264 7.031583 94.623047 7.1289062 C 94.435567 7.0318032 94.231177 6.9465401 94.011719 6.8769531 z M 5.2207031 7.1464844 C 5.019674 7.2534057 4.8355954 7.3746729 4.6699219 7.5058594 C 4.835586 7.3745581 5.0195641 7.2534681 5.2207031 7.1464844 z M 94.667969 7.1503906 C 94.864965 7.2558605 95.046192 7.3750232 95.208984 7.5039062 C 95.046053 7.3750721 94.865027 7.2558268 94.667969 7.1503906 z M 95.21875 7.5117188 C 95.378344 7.6389691 95.521889 7.7753781 95.650391 7.9179688 C 95.521513 7.7751149 95.378807 7.6391868 95.21875 7.5117188 z M 4.6582031 7.5136719 C 4.5006137 7.6394736 4.3616531 7.7752592 4.234375 7.9160156 C 4.3616308 7.7750329 4.5005308 7.6396538 4.6582031 7.5136719 z M 4.1855469 7.96875 C 4.0688776 8.1029948 3.9664938 8.2439349 3.875 8.3847656 C 3.966395 8.243812 4.0689542 8.1031039 4.1855469 7.96875 z M 95.697266 7.9726562 C 95.812062 8.1052439 95.913623 8.2418534 96.003906 8.3808594 C 95.913733 8.2423896 95.811785 8.1047563 95.697266 7.9726562 z M 3.8417969 8.4316406 C 3.7506796 8.576664 3.6738784 8.724064 3.6074219 8.8691406 C 3.6738867 8.7236685 3.7505916 8.5770598 3.8417969 8.4316406 z M 96.044922 8.4433594 C 96.138452 8.5937894 96.219935 8.746302 96.287109 8.8964844 C 96.219762 8.7462656 96.138699 8.5938243 96.044922 8.4433594 z " />
  <text xml:space="preserve" style="font-style:normal;font-weight:normal;font-size:10.6667px;line-height:1.25;font-family:sans-serif;letter-spacing:0px;word-spacing:0px;fill:#000000;fill-opacity:1;stroke:none" x="20.635324" y="32.152447" id="text3221"><tspan sodipodi:role="line" id="tspan3219" x="20.635324" y="32.152447" style="font-style:normal;font-variant:normal;font-weight:normal;font-stretch:normal;font-size:10.6667px;font-family:Calibri;-inkscape-font-specification:Calibri;fill:#ffffff">Disconnected</tspan></text>
</svg>
