<?xml version="1.0" encoding="UTF-8" standalone="no"?>
<svg enable-background="new 0 0 570.791 192.118" viewBox="0 0 12.459159 12.737385" version="1.1" id="svg179" sodipodi:docname="gba.svg" width="12.45916" height="12.737385" inkscape:version="1.1.2 (b8e25be833, 2022-02-05)" xmlns:inkscape="http://www.inkscape.org/namespaces/inkscape" xmlns:sodipodi="http://sodipodi.sourceforge.net/DTD/sodipodi-0.dtd" xmlns="http://www.w3.org/2000/svg" xmlns:svg="http://www.w3.org/2000/svg" xmlns:rdf="http://www.w3.org/1999/02/22-rdf-syntax-ns#" xmlns:cc="http://creativecommons.org/ns#" xmlns:dc="http://purl.org/dc/elements/1.1/">
  <metadata id="metadata185">
    <rdf:RDF>
      <cc:Work rdf:about="">
        <dc:format>image/svg+xml</dc:format>
        <dc:type rdf:resource="http://purl.org/dc/dcmitype/StillImage" />
      </cc:Work>
    </rdf:RDF>
  </metadata>
  <defs id="defs183" />
  <sodipodi:namedview pagecolor="#ffffff" bordercolor="#666666" borderopacity="1" objecttolerance="10" gridtolerance="10" guidetolerance="10" inkscape:pageopacity="0" inkscape:pageshadow="2" inkscape:window-width="1654" inkscape:window-height="1001" id="namedview181" showgrid="false" fit-margin-top="0" fit-margin-left="0" fit-margin-right="0" fit-margin-bottom="0" inkscape:zoom="9.0089622" inkscape:cx="43.678727" inkscape:cy="11.100058" inkscape:window-x="2075" inkscape:window-y="11" inkscape:window-maximized="0" inkscape:current-layer="svg179" inkscape:pagecheckerboard="0" />
  <linearGradient id="a" gradientUnits="userSpaceOnUse" x1="167.8232" x2="167.8232" y1="192.1181" y2="0" gradientTransform="matrix(0.29757469,0,0,0.29757469,1.2821567e-4,0)">
    <stop offset="0" stop-color="#493575" id="stop2" />
    <stop offset="1" stop-color="#4d407b" id="stop4" />
  </linearGradient>
  <path d="m 7.7425998,12.737385 h -2.84005 c -0.31365,0 -0.56837,-0.254129 -0.56837,-0.567773 v -3.858648 h -3.7658098 c -0.31334,0 -0.56837,-0.255319 -0.56837,-0.568368 v -2.840053 c 0,-0.313643 0.25473,-0.568367 0.56837,-0.568367 h 3.7655098 v -3.765511 c 0,-0.313941 0.25473,-0.568665 0.56837,-0.568665 h 2.84005 c 0.31305,0 0.56837,0.254724 0.56837,0.568665 v 3.765511 h 3.5801202 c 0.31335,0 0.56837,0.254724 0.56837,0.568367 v 2.840053 c 0,0.313346 -0.25502,0.567773 -0.56837,0.567773 h -3.5801202 v 3.858648 c 0,0.314239 -0.25472,0.568368 -0.56807,0.568368 z" id="path19" inkscape:connector-curvature="0" style="fill:#ffcccc;fill-opacity:1;stroke-width:0.297575" />
  <path d="m 5.1292998,2.922481 h 2.20086 l -1.14239,-2.149084 z" id="path43" inkscape:connector-curvature="0" style="fill:#ff9999;fill-opacity:1;stroke-width:0.297575" />
  <path d="m 7.3301598,9.783661 h -2.20086 l 1.14209,2.149382 z" id="path45" inkscape:connector-curvature="0" style="fill:#ff9999;fill-opacity:1;stroke-width:0.297575" />
  <path d="m 9.6604698,5.253086 v 2.200565 l 2.1490802,-1.142092 z" id="path47" inkscape:connector-curvature="0" style="fill:#ff9999;fill-opacity:1;stroke-width:0.297575" />
  <path d="m 2.79899,7.453651 v -2.200565 l -2.14908,1.141794 z" id="path49" inkscape:connector-curvature="0" style="fill:#ff9999;fill-opacity:1;stroke-width:0.297575" />
</svg>
