<?xml version="1.0" encoding="UTF-8" standalone="no"?>
<!-- Generator: Adobe Illustrator 19.0.1, SVG Export Plug-In . SVG Version: 6.00 Build 0)  -->

<svg version="1.1" id="Layer_1" x="0px" y="0px" width="98.9px" height="22.4px" viewBox="-910 529.6 98.9 22.4" style="enable-background:new -910 529.6 98.9 22.4;" xml:space="preserve" sodipodi:docname="bumper.svg" inkscape:version="1.1.2 (b8e25be833, 2022-02-05)" xmlns:inkscape="http://www.inkscape.org/namespaces/inkscape" xmlns:sodipodi="http://sodipodi.sourceforge.net/DTD/sodipodi-0.dtd" xmlns="http://www.w3.org/2000/svg" xmlns:svg="http://www.w3.org/2000/svg"><defs id="defs17" /><sodipodi:namedview id="namedview15" pagecolor="#ffffff" bordercolor="#666666" borderopacity="1.0" inkscape:pageshadow="2" inkscape:pageopacity="0.0" inkscape:pagecheckerboard="0" showgrid="false" inkscape:zoom="11.772106" inkscape:cx="48.079756" inkscape:cy="3.9500153" inkscape:window-width="2011" inkscape:window-height="1042" inkscape:window-x="3824" inkscape:window-y="26" inkscape:window-maximized="0" inkscape:current-layer="g8" />
<style type="text/css" id="style2">
	.st0{fill:#61E0DF;}
	.st1{fill:#3ED8D2;}
</style>
<g id="g12">
	<g id="g10">
		<g id="g8">
			
			<path id="path6" style="fill:#d83e3e;fill-opacity:1" class="st1" d="m 52.599609,0 c -28.1,0 -46.9999996,10.699609 -51.4999996,13.599609 -0.70000003,0.4 -1.0996094,1.100391 -1.0996094,1.900391 42.239857,-4.367388 44.130673,-22.6124495 0,0 v 6.900391 c 8.9,-1.7 26.300781,-4 54.800781,-4 22.9,0 36.39961,1.299609 44.09961,2.599609 v -11 c 0,-0.8 -0.401172,-1.6 -1.201172,-2 -4,-2.1 -18.19961,-8 -45.09961,-8 z" transform="translate(-910,529.6)" sodipodi:nodetypes="sccccscscs" /><path class="st0" d="m -910,545.1 c 0,-0.8 0.4,-1.5 1.1,-1.9 4.5,-2.9 23.4,-13.6 51.5,-13.6 26.9,0 41.1,5.9 45.1,8 0.8,0.4 1.2,1.2 1.2,2 0,0 -9.8,-2.9 -47.5,-2.9 -37.8,0 -51.4,8.4 -51.4,8.4 z" id="path4" style="display:inline;fill:#e06161;fill-opacity:1" />
		</g>
	</g>
</g>
</svg>
