<?xml version="1.0" encoding="UTF-8" standalone="no"?>
<!-- Generator: Adobe Illustrator 19.0.1, SVG Export Plug-In . SVG Version: 6.00 Build 0)  -->

<svg version="1.1" id="Layer_1" x="0px" y="0px" width="224px" height="112.3px" viewBox="-847 484.7 224 112.3" style="enable-background:new -847 484.7 224 112.3;" xml:space="preserve" sodipodi:docname="face.svg" inkscape:version="1.1.2 (b8e25be833, 2022-02-05)" xmlns:inkscape="http://www.inkscape.org/namespaces/inkscape" xmlns:sodipodi="http://sodipodi.sourceforge.net/DTD/sodipodi-0.dtd" xmlns="http://www.w3.org/2000/svg" xmlns:svg="http://www.w3.org/2000/svg"><defs id="defs93" /><sodipodi:namedview id="namedview91" pagecolor="#ffffff" bordercolor="#666666" borderopacity="1.0" inkscape:pageshadow="2" inkscape:pageopacity="0.0" inkscape:pagecheckerboard="0" showgrid="false" inkscape:zoom="5.2410714" inkscape:cx="39.01874" inkscape:cy="56.190801" inkscape:window-width="1734" inkscape:window-height="970" inkscape:window-x="118" inkscape:window-y="0" inkscape:window-maximized="0" inkscape:current-layer="Layer_1" />
<style type="text/css" id="style2">
	.st0{fill:#2C2C2C;}
	.st1{fill:#222222;}
	.st2{fill:#7CB2E8;}
	.st3{fill:#FF6666;}
	.st4{fill:#FF69F8;}
	.st5{fill:#40E2A0;}
	.st6{fill:#D3D3D3;}
	.st7{fill:#DDDDDD;}
	.st8{fill:#834D17;}
	.st9{fill:#009999;}
	.st10{fill:#009607;}
	.st11{fill:#BF1D5F;}
</style>
<g id="g12">
	<g id="g8">
		<path class="st0" d="m -819.7,538.3 c -14.5,0 -26.3,-11.8 -26.3,-26.3 0,-14.5 11.8,-26.3 26.3,-26.3 14.5,0 26.3,11.8 26.3,26.3 0,14.5 -11.8,26.3 -26.3,26.3 z" id="path4" style="fill:#d4aa00;fill-opacity:1" />
		<path class="st1" d="m -819.7,486.7 c 13.9,0 25.3,11.3 25.3,25.3 0,13.9 -11.3,25.3 -25.3,25.3 -14,0 -25.3,-11.4 -25.3,-25.3 0,-13.9 11.4,-25.3 25.3,-25.3 m 0,-2 c -15,0 -27.3,12.2 -27.3,27.3 0,15 12.2,27.3 27.3,27.3 15.1,0 27.3,-12.2 27.3,-27.3 -0.1,-15 -12.3,-27.3 -27.3,-27.3 z" id="path6" style="fill:#806600;fill-opacity:1" />
	</g>
	<polygon class="st2" points="-834.1,524.4 -832.1,526.4 -819.7,514 -807.3,526.4 -805.3,524.4 -817.7,512 -805.3,499.6 -807.3,497.6 -819.7,510 -832.1,497.6 -834.1,499.6 -821.7,512 " id="polygon10" style="fill:#aa8800;fill-opacity:1" />
</g>
<g id="g22" transform="translate(-3.8146973e-6,-0.1)">
	<g id="g18">
		<path class="st0" d="m -763.2,538.2 c -14.5,0 -26.3,-11.8 -26.3,-26.3 0,-14.5 11.8,-26.3 26.3,-26.3 14.5,0 26.2,11.9 26.2,26.4 0,14.5 -11.7,26.2 -26.2,26.2 z" id="path14" style="fill:#d4aa00;fill-opacity:1" />
		<path class="st1" d="m -763.2,486.8 c 13.9,0 25.3,11.3 25.3,25.3 0,14 -11.3,25.3 -25.3,25.3 -14,0 -25.3,-11.3 -25.3,-25.3 0,-14 11.4,-25.3 25.3,-25.3 m 0,-2 c -15,0 -27.3,12.2 -27.3,27.3 0,15.1 12.2,27.3 27.3,27.3 15.1,0 27.2,-12.4 27.2,-27.4 0,-15 -12.2,-27.2 -27.2,-27.2 z" id="path16" style="fill:#806600;fill-opacity:1" />
	</g>
	<path class="st3" d="m -763.2,493.1 c -10.4,0 -18.9,8.5 -18.9,18.9 0,10.4 8.5,18.9 18.9,18.9 10.4,0 18.9,-8.5 18.9,-18.9 0,-10.4 -8.5,-18.9 -18.9,-18.9 z m 0,34.9 c -8.9,0 -16,-7.2 -16,-16 0,-8.9 7.2,-16 16,-16 8.8,0 16,7.2 16,16 0,8.9 -7.1,16 -16,16 z" id="path20" style="fill:#aa8800;fill-opacity:1" />
</g>
<g id="g32" transform="translate(-0.09999847,-0.7)">
	<g id="g28">
		<path class="st0" d="m -706.7,538.8 c -14.5,0 -26.3,-11.8 -26.3,-26.3 0,-14.5 11.8,-26.3 26.3,-26.3 14.5,0 26.3,11.8 26.3,26.3 0,14.5 -11.8,26.3 -26.3,26.3 z" id="path24" style="fill:#d4aa00;fill-opacity:1" />
		<path class="st1" d="m -706.7,487.4 c 13.9,0 25.3,11.3 25.3,25.3 0,13.9 -11.3,25.3 -25.3,25.3 -14,0 -25.3,-11.3 -25.3,-25.3 0,-14 11.4,-25.3 25.3,-25.3 m 0,-2 c -15,0 -27.3,12.2 -27.3,27.3 0,15 12.2,27.3 27.3,27.3 15.1,0 27.3,-12.2 27.3,-27.3 -0.1,-15.1 -12.3,-27.3 -27.3,-27.3 z" id="path26" style="fill:#806600;fill-opacity:1" />
	</g>
	<path class="st4" d="m -695.2,498.2 h -23 -2.8 v 2.8 23 2.8 h 2.8 23 2.8 v -2.8 -23 -2.8 z m 0,25.9 h -23 v -23 h 23 z" id="path30" style="fill:#aa8800;fill-opacity:1" />
</g>
<g id="g44" transform="translate(-0.1000061,-1.3)">
	<g id="g42">
		<g id="g38">
			<path class="st0" d="m -650.2,539.5 c -14.5,0 -26.3,-11.8 -26.3,-26.3 0,-14.5 11.8,-26.3 26.3,-26.3 14.5,0 26.3,11.8 26.3,26.3 0,14.5 -11.8,26.3 -26.3,26.3 z" id="path34" style="fill:#d4aa00;fill-opacity:1" />
			<path class="st1" d="m -650.2,488 c 13.9,0 25.3,11.3 25.3,25.3 0,14 -11.3,25.3 -25.3,25.3 -14,0 -25.3,-11.3 -25.3,-25.3 0,-14 11.4,-25.3 25.3,-25.3 m 0,-2 c -15,0 -27.3,12.2 -27.3,27.3 0,15.1 12.2,27.3 27.3,27.3 15.1,0 27.3,-12.2 27.3,-27.3 0,-15.1 -12.3,-27.3 -27.3,-27.3 z" id="path36" style="fill:#806600;fill-opacity:1" />
		</g>
		<path class="st5" d="m -634.2,521.3 -16,-27.6 -16,27.6 -1.6,2.8 h 3.3 14.3 14.3 3.3 z m -16,0 h -12.7 l 12.7,-21.9 12.7,21.9 z" id="path40" style="fill:#aa8800;fill-opacity:1" />
	</g>
</g>
<g id="g54" transform="translate(0,-0.09999695)">
	<g id="g50">
		<path class="st6" d="m -819.7,596.1 c -14.5,0 -26.3,-11.8 -26.3,-26.3 0,-14.5 11.8,-26.3 26.3,-26.3 14.5,0 26.3,11.8 26.3,26.3 0,14.5 -11.8,26.3 -26.3,26.3 z" id="path46" style="fill:#2c2c2c;fill-opacity:1" />
		<path class="st7" d="m -819.7,544.5 c 13.9,0 25.3,11.3 25.3,25.3 0,14 -11.3,25.3 -25.3,25.3 -14,0 -25.3,-11.3 -25.3,-25.3 0,-14 11.4,-25.3 25.3,-25.3 m 0,-2 c -15,0 -27.3,12.2 -27.3,27.3 0,15.1 12.2,27.3 27.3,27.3 15.1,0 27.3,-12.2 27.3,-27.3 0,-15.1 -12.3,-27.3 -27.3,-27.3 z" id="path48" style="fill:#222222;fill-opacity:1" />
	</g>
	<polygon class="st8" points="-834.1,557.4 -821.7,569.8 -834.1,582.2 -832.1,584.2 -819.7,571.8 -807.3,584.2 -805.3,582.2 -817.7,569.8 -805.3,557.4 -807.3,555.4 -819.7,567.8 -832.1,555.4 " id="polygon52" style="fill:#7cb2e8;fill-opacity:1" />
</g>
<g id="g64" transform="translate(-3.8146973e-6,-0.09999695)">
	<g id="g60">
		<path class="st6" d="m -763.2,595.9 c -14.5,0 -26.3,-11.8 -26.3,-26.3 0,-14.5 11.8,-26.3 26.3,-26.3 14.5,0 26.3,11.8 26.3,26.3 0,14.5 -11.8,26.3 -26.3,26.3 z" id="path56" style="fill:#2c2c2c;fill-opacity:1" />
		<path class="st7" d="m -763.2,544.5 c 13.9,0 25.3,11.3 25.3,25.3 0,14 -11.3,25.3 -25.3,25.3 -14,0 -25.3,-11.3 -25.3,-25.3 0,-14 11.4,-25.3 25.3,-25.3 m 0,-2 c -15,0 -27.3,12.2 -27.3,27.3 0,15.1 12.2,27.3 27.3,27.3 15.1,0 27.3,-12.2 27.3,-27.3 0,-15.1 -12.3,-27.3 -27.3,-27.3 z" id="path58" style="fill:#222222;fill-opacity:1" />
	</g>
	<path class="st9" d="m -763.2,550.8 c -10.4,0 -18.9,8.5 -18.9,18.9 0,10.4 8.5,18.9 18.9,18.9 10.4,0 18.9,-8.5 18.9,-18.9 0,-10.4 -8.5,-18.9 -18.9,-18.9 z m 0,34.9 c -8.9,0 -16,-7.2 -16,-16 0,-8.9 7.2,-16 16,-16 8.8,0 16,7.2 16,16 0,8.9 -7.1,16 -16,16 z" id="path62" style="fill:#ff6666;fill-opacity:1" />
</g>
<g id="g74" transform="translate(-0.09999847,-0.09999695)">
	<g id="g70">
		<path class="st6" d="m -706.7,595.9 c -14.5,0 -26.3,-11.8 -26.3,-26.3 0,-14.5 11.8,-26.3 26.3,-26.3 14.5,0 26.3,11.8 26.3,26.3 0,14.5 -11.8,26.3 -26.3,26.3 z" id="path66" style="fill:#2c2c2c;fill-opacity:1" />
		<path class="st7" d="m -706.7,544.5 c 13.9,0 25.3,11.3 25.3,25.3 0,14 -11.3,25.3 -25.3,25.3 -14,0 -25.3,-11.3 -25.3,-25.3 0,-14 11.4,-25.3 25.3,-25.3 m 0,-2 c -15,0 -27.3,12.2 -27.3,27.3 0,15.1 12.2,27.3 27.3,27.3 15.1,0 27.3,-12.2 27.3,-27.3 0,-15.1 -12.3,-27.3 -27.3,-27.3 z" id="path68" style="fill:#222222;fill-opacity:1" />
	</g>
	<path class="st10" d="m -695.2,555.3 h -23 -2.8 v 2.8 23 2.8 h 2.8 23 2.8 v -2.8 -23 -2.8 z m 0,25.9 h -23 v -23 h 23 z" id="path72" style="fill:#ff69f8;fill-opacity:1" />
</g>
<g id="g88" transform="translate(-0.1000061,-0.09999695)">
	<g id="g86">
		<g id="g84">
			<g id="g80">
				<path class="st6" d="m -650.2,596 c -14.5,0 -26.3,-11.8 -26.3,-26.3 0,-14.5 11.8,-26.3 26.3,-26.3 14.5,0 26.3,11.8 26.3,26.3 0,14.5 -11.8,26.3 -26.3,26.3 z" id="path76" style="fill:#2c2c2c;fill-opacity:1" />
				<path class="st7" d="m -650.2,544.5 c 13.9,0 25.3,11.3 25.3,25.3 0,14 -11.3,25.3 -25.3,25.3 -14,0 -25.3,-11.3 -25.3,-25.3 0,-14 11.4,-25.3 25.3,-25.3 m 0,-2 c -15,0 -27.3,12.2 -27.3,27.3 0,15.1 12.2,27.3 27.3,27.3 15.1,0 27.3,-12.2 27.3,-27.3 0,-15.1 -12.3,-27.3 -27.3,-27.3 z" id="path78" style="fill:#222222;fill-opacity:1" />
			</g>
			<path class="st11" d="m -634.2,577.7 -16,-27.6 -16,27.6 -1.6,2.8 h 3.3 14.3 14.3 3.3 z m -16,0 h -12.7 l 12.7,-21.9 12.7,21.9 z" id="path82" style="fill:#40e2a0;fill-opacity:1" />
		</g>
	</g>
</g>
</svg>
