<?xml version="1.0" encoding="UTF-8" standalone="no"?>
<!-- Generator: Adobe Illustrator 19.0.1, SVG Export Plug-In . SVG Version: 6.00 Build 0)  -->

<svg version="1.1" id="Layer_1" x="0px" y="0px" width="42.400002" height="42.400002" viewBox="-689.8 522.1 42.400002 42.400002" xml:space="preserve" sodipodi:docname="meta.svg" inkscape:version="1.1.2 (b8e25be833, 2022-02-05)" xmlns:inkscape="http://www.inkscape.org/namespaces/inkscape" xmlns:sodipodi="http://sodipodi.sourceforge.net/DTD/sodipodi-0.dtd" xmlns="http://www.w3.org/2000/svg" xmlns:svg="http://www.w3.org/2000/svg"><defs id="defs29" /><sodipodi:namedview id="namedview27" pagecolor="#ffffff" bordercolor="#666666" borderopacity="1.0" inkscape:pageshadow="2" inkscape:pageopacity="0.0" inkscape:pagecheckerboard="0" showgrid="false" inkscape:zoom="16.997636" inkscape:cx="21.179416" inkscape:cy="21.15" inkscape:window-width="1343" inkscape:window-height="970" inkscape:window-x="2189" inkscape:window-y="69" inkscape:window-maximized="0" inkscape:current-layer="Layer_1" />
<style type="text/css" id="style2">
	.st0{fill:#FAFAFA;}
	.st1{fill:#FFFFFF;}
	.st2{fill:#0D0D0D;}
</style>
<g id="g24" transform="translate(0.1)">
	<g id="g8">
		<circle class="st0" cx="-668.70001" cy="543.29999" r="20.200001" id="circle4" />
		<path class="st1" d="m -668.7,564.5 c -11.7,0 -21.2,-9.5 -21.2,-21.2 0,-11.7 9.5,-21.2 21.2,-21.2 11.7,0 21.2,9.5 21.2,21.2 0,11.7 -9.5,21.2 -21.2,21.2 z m 0,-40.4 c -10.6,0 -19.2,8.6 -19.2,19.2 0,10.6 8.6,19.2 19.2,19.2 10.6,0 19.2,-8.6 19.2,-19.2 0,-10.6 -8.6,-19.2 -19.2,-19.2 z" id="path6" />
	</g>
	<g id="g22">
		<g id="g12">
			<path class="st2" d="m -667.6,549.9 v -2.8 -3.5 -6.5 c 0,-0.5 0.1,-0.8 0.3,-1 0.1,-0.2 0.4,-0.3 0.7,-0.2 0.6,0.2 0.9,0.7 0.9,1.7 v 6.9 c 0.8,0.4 1.5,0.5 2.1,0.5 0.6,0 1.2,-0.2 1.6,-0.5 1,-0.7 1.5,-1.9 1.5,-3.7 0,-1.9 -0.4,-3.4 -1.2,-4.3 -0.8,-1 -2.1,-1.9 -4.1,-2.6 -1.3,-0.4 -2.5,-0.8 -3.6,-1.1 -1.1,-0.3 -2,-0.5 -2.9,-0.7 v 12.2 0 2.7 0 1.7 0 2.5 c 0,0 0,0 0,0 v 1.5 l 4.7,1.5 v -3.6 0 z" id="path10" />
		</g>
		<g id="g16">
			<path class="st2" d="m -672.6,548.9 -1.7,0.6 -0.9,0.4 -1.6,0.3 -1.5,-0.2 c -0.3,-0.2 -0.4,-0.4 -0.2,-0.6 0.1,-0.1 0.2,-0.1 0.3,-0.2 0.1,-0.1 0.3,-0.1 0.4,-0.2 l 1.1,-0.4 4.1,-1.5 v -2.7 l -1.7,0.5 -5.5,2 -1,0.4 c -1.5,0.6 -2.2,1.2 -2.2,1.8 0.1,0.8 1,1.5 2.7,1.9 0.7,0.2 1.4,0.3 2.1,0.4 0.7,0.1 1.4,0.1 2.2,0.1 1,0 2.1,-0.1 3.3,-0.3 v -2.3 z" id="path14" />
		</g>
		<g id="g20">
			<path class="st2" d="m -656.8,546.6 c -0.9,-0.3 -1.7,-0.5 -2.5,-0.6 -0.8,-0.1 -1.7,-0.2 -2.5,-0.1 -0.9,0 -1.9,0.2 -2.8,0.3 -0.8,0.2 -1.7,0.4 -2.6,0.8 v 2.8 l 3.9,-1.4 1.6,-0.5 1.1,-0.3 h 1.4 c 0.3,0.1 0.6,0.2 0.7,0.4 0,0.2 -0.2,0.4 -0.8,0.6 l -1.4,0.5 -6.5,2.4 v 2.7 l 3.5,-1.3 6.4,-2.3 0.7,-0.4 c 1.5,-0.5 2.2,-1.2 2.2,-1.9 0,-0.6 -0.8,-1.2 -2.4,-1.7 z" id="path18" />
		</g>
	</g>
</g>
</svg>
