<?xml version="1.0" encoding="UTF-8" standalone="no"?>
<!-- Generator: Adobe Illustrator 19.0.1, SVG Export Plug-In . SVG Version: 6.00 Build 0)  -->

<svg version="1.1" id="Layer_1" x="0px" y="0px" width="263.79999" height="151.2" viewBox="-955.6 461.6 263.79999 151.2" xml:space="preserve" sodipodi:docname="touchpad.svg" inkscape:version="1.1.2 (b8e25be833, 2022-02-05)" xmlns:inkscape="http://www.inkscape.org/namespaces/inkscape" xmlns:sodipodi="http://sodipodi.sourceforge.net/DTD/sodipodi-0.dtd" xmlns:xlink="http://www.w3.org/1999/xlink" xmlns="http://www.w3.org/2000/svg" xmlns:svg="http://www.w3.org/2000/svg"><defs id="defs27" /><sodipodi:namedview id="namedview25" pagecolor="#ffffff" bordercolor="#666666" borderopacity="1.0" inkscape:pageshadow="2" inkscape:pageopacity="0.0" inkscape:pagecheckerboard="0" showgrid="false" inkscape:zoom="3.145674" inkscape:cx="126.52296" inkscape:cy="60.877255" inkscape:window-width="1657" inkscape:window-height="970" inkscape:window-x="1982" inkscape:window-y="27" inkscape:window-maximized="0" inkscape:current-layer="g20" />
<style type="text/css" id="style2">
	.st0{fill:none;}
	.st1{fill:#61E0DF;}
	.st2{fill:#3ED8D2;}
	.st3{opacity:0.2;}
	.st4{fill:url(#SVGID_1_);}
</style>
<pattern x="-910" y="552" width="71" height="71" patternUnits="userSpaceOnUse" id="Dots_white_2" viewBox="0 -71 71 71" style="overflow:visible">
	<g id="g8">
		<polygon class="st0" points="0,-71 71,-71 71,0 0,0   " id="polygon4" />
		<path d="M41.8-35.5c0,3.5-2.8,6.3-6.3,6.3c-3.5,0-6.3-2.8-6.3-6.3s2.8-6.3,6.3-6.3C39-41.8,41.8-39,41.8-35.5z" id="path6" />
	</g>
</pattern>
<g id="g22" transform="translate(-0.1)">
	<path class="st1" d="m -691.8,467.2 c -0.4,-3.2 -3.3,-5.6 -6.5,-5.6 v 0 h -125.3 v 0 h -125.3 v 0 c -3.2,0 -6.1,2.3 -6.5,5.6 -0.1,0.7 -0.1,1.4 -0.1,2.1 v 127.4 c 0,8.9 7.2,16.1 16.1,16.1 h 115.8 v 0 h 115.8 c 8.9,0 16.1,-7.2 16.1,-16.1 v -127.4 c 0,-0.8 -0.1,-1.5 -0.1,-2.1 z" id="path11" style="display:inline;fill:#e06161;fill-opacity:1" />
	<g id="g20">
		<path class="st2" d="m -696.2,463.5 c 0,-1 -0.8,-1.9 -1.9,-1.9 h -125.6 v 0 h -125.6 c -1,0 -1.9,0.8 -1.9,1.9 v 6 123.2 c 0,8.6 7,15.6 15.6,15.6 h 111.9 v 0 h 111.9 c 8.6,0 15.6,-7 15.6,-15.6 v -123.2 z" id="path13" style="fill:#d83e3e;fill-opacity:1" />
		<g class="st3" id="g18">
			
				<pattern id="SVGID_1_" xlink:href="#Dots_white_2" patternTransform="matrix(0.1017 0 0 0.1017 -7232.3452 -7295.9248)" class="st3">
			</pattern>
			<path class="st4" d="m -951.1,592.7 c 0,8.6 7,15.6 15.6,15.6 h 111.9 v 0 h 111.9 c 8.6,0 15.6,-7 15.6,-15.6 v -106.6 h -254.9 v 106.6 z" id="path16" />
		</g>
	</g>
</g>
</svg>
