<?xml version="1.0" encoding="UTF-8" standalone="no"?>
<!-- Generator: Adobe Illustrator 19.0.1, SVG Export Plug-In . SVG Version: 6.00 Build 0)  -->

<svg version="1.1" id="Layer_1" x="0px" y="0px" width="200" height="90.800003" viewBox="-859 495.2 200.00001 90.8" xml:space="preserve" sodipodi:docname="triggers.svg" inkscape:version="1.1.2 (b8e25be833, 2022-02-05)" xmlns:inkscape="http://www.inkscape.org/namespaces/inkscape" xmlns:sodipodi="http://sodipodi.sourceforge.net/DTD/sodipodi-0.dtd" xmlns="http://www.w3.org/2000/svg" xmlns:svg="http://www.w3.org/2000/svg"><defs id="defs39" /><sodipodi:namedview id="namedview37" pagecolor="#ffffff" bordercolor="#666666" borderopacity="1.0" inkscape:pageshadow="2" inkscape:pageopacity="0.0" inkscape:pagecheckerboard="0" showgrid="false" inkscape:zoom="5.8729366" inkscape:cx="89.81878" inkscape:cy="45.37764" inkscape:window-width="1476" inkscape:window-height="970" inkscape:window-x="228" inkscape:window-y="42" inkscape:window-maximized="0" inkscape:current-layer="g18" />
<style type="text/css" id="style2">
	.st0{fill:#3ED8D2;}
	.st1{fill:#61E0DF;}
	.st2{opacity:8.000000e-002;}
</style>
<g id="g18">
	<g id="g8">
		<path class="st0" d="m -659.1,586 c 0,0 -32.7,-3.2 -50.6,-3.2 -17.9,0 -48.3,2.4 -48.3,2.4 0,0 3.1,-44.7 4.8,-52 1.6,-7.3 7.7,-21.3 16.9,-27.9 9.2,-6.7 12,-10.1 22.8,-10.1 10.8,0 25.4,6.4 34.6,21.4 9.1,15 19.8,69.4 19.8,69.4 z" id="path4" style="fill:#d83e3e;fill-opacity:1" />
		<path class="st1" d="m -757.5,578.4 c 0,0 26.1,-4.4 49,-4.4 22.8,0 47.9,4.4 47.9,4.4 1,4.7 1.6,7.6 1.6,7.6 0,0 -32.7,-3.2 -50.6,-3.2 -17.9,0 -48.3,2.4 -48.3,2.4 0,0 0,-2.7 0.4,-6.8 z" id="path6" style="fill:#e06161;fill-opacity:1" />
	</g>
	<g class="st2" id="g16" style="opacity:0.16">
		<g id="g12">
			<path d="m -707.5,560.9 c -2.1,1.7 -3.2,2.6 -3.2,2.6 -1.2,1.2 -1.9,2.7 -2,4.5 h 9.8 v -2.6 h -6.2 c 0.3,-0.5 1,-1.2 2.1,-1.9 1.4,-0.9 2.3,-1.6 2.7,-2.1 0.9,-1 1.3,-2.1 1.3,-3.3 0,-1.4 -0.5,-2.5 -1.4,-3.3 -0.9,-0.8 -2.1,-1.2 -3.5,-1.2 -3.1,0 -4.7,1.7 -4.7,5 h 2.7 c 0,-1.8 0.7,-2.7 2.1,-2.7 1.3,0 2,0.7 2,2.1 0,1.1 -0.6,2 -1.7,2.9 z" id="path10" />
		</g>
		<path d="m -725.1,562.4 h 3 c 1.5,0 2.3,0.6 2.4,1.9 0.1,1.2 0.2,2.5 0.3,3.8 h 3.3 v -0.4 c -0.5,-0.2 -0.7,-0.7 -0.7,-1.5 0,-0.2 0,-0.4 0.1,-0.8 v -0.7 c 0,-1.7 -0.6,-2.9 -1.8,-3.5 1.4,-0.5 2.2,-1.6 2.2,-3.4 0,-1.3 -0.4,-2.3 -1.3,-3 -0.8,-0.7 -1.9,-1 -3.2,-1 h -7.3 v 14.2 h 3 z m 0,-6.2 h 3.7 c 1.4,0 2.1,0.6 2.1,1.9 0,1.3 -0.8,1.9 -2.3,1.9 h -3.5 z" id="path14" />
	</g>
</g>
<g id="g34" transform="translate(0.1)">
	<g id="g24">
		<path class="st0" d="m -859,586 c 0,0 32.7,-3.2 50.6,-3.2 17.9,0 48.3,2.4 48.3,2.4 0,0 -3.1,-44.7 -4.8,-52 -1.6,-7.3 -7.7,-21.3 -16.9,-27.9 -9.2,-6.6 -12,-10.1 -22.8,-10.1 -10.8,0 -25.4,6.4 -34.6,21.4 -9.1,15 -19.8,69.4 -19.8,69.4 z" id="path20" style="fill:#d83e3e;fill-opacity:1" />
		<path class="st1" d="m -760.6,578.4 c 0,0 -26.1,-4.4 -49,-4.4 -22.8,0 -47.9,4.4 -47.9,4.4 -1,4.7 -1.6,7.6 -1.6,7.6 0,0 32.7,-3.2 50.6,-3.2 17.9,0 48.3,2.4 48.3,2.4 0,0 0,-2.7 -0.4,-6.8 z" id="path22" style="fill:#e06161;fill-opacity:1" />
	</g>
	<g class="st2" id="g32" style="opacity:0.16">
		<g id="g28">
			<path d="m -794.5,560.9 c -2.1,1.7 -3.2,2.6 -3.2,2.6 -1.2,1.2 -1.9,2.7 -2,4.5 h 9.8 v -2.6 h -6.2 c 0.3,-0.5 1,-1.2 2.1,-1.9 1.4,-0.9 2.3,-1.6 2.7,-2.1 0.9,-1 1.3,-2.1 1.3,-3.3 0,-1.4 -0.5,-2.5 -1.4,-3.3 -0.9,-0.8 -2.1,-1.2 -3.5,-1.2 -3.1,0 -4.7,1.7 -4.7,5 h 2.7 c 0,-1.8 0.7,-2.7 2.1,-2.7 1.3,0 2,0.7 2,2.1 0,1.1 -0.5,2 -1.7,2.9 z" id="path26" />
		</g>
		<polygon points="-803,565.4 -810.1,565.4 -810.1,553.7 -813.1,553.7 -813.1,568 -803,568 " id="polygon30" />
	</g>
</g>
</svg>
